<svg width="32" height="32" viewBox="0 0 32 32" fill="none" xmlns="http://www.w3.org/2000/svg">
<path d="M27.5215 12.4999L25.3577 8.74995C24.8936 7.94632 24.1294 7.3599 23.233 7.11964C22.3366 6.87937 21.3816 7.00493 20.5777 7.4687C20.1295 7.72769 19.7451 8.08394 19.4527 8.5112L17.2752 4.74995C16.9679 4.21839 16.5261 3.77704 15.9943 3.4702C15.4625 3.16336 14.8592 3.00183 14.2452 3.00183C13.6312 3.00183 13.028 3.16336 12.4962 3.4702C11.9643 3.77704 11.5226 4.21839 11.2152 4.74995C10.5761 4.24667 9.78157 3.98176 8.96827 4.00076C8.15498 4.01976 7.3737 4.32147 6.75873 4.85403C6.14377 5.3866 5.73353 6.11675 5.59852 6.91899C5.46352 7.72123 5.6122 8.54544 6.01899 9.24995L6.21774 9.59495C5.70055 9.63506 5.199 9.79099 4.75024 10.0512C3.94649 10.5155 3.36009 11.2801 3.12004 12.1767C2.88 13.0734 3.00597 14.0287 3.47024 14.8324L8.47024 23.4974C9.18959 24.7506 10.1502 25.8488 11.2966 26.7285C12.443 27.6082 13.7523 28.2519 15.149 28.6224C16.0835 28.8721 17.0467 28.9982 18.014 28.9974C19.9433 28.9942 21.8378 28.4835 23.5074 27.5167C25.177 26.5499 26.563 25.161 27.5262 23.4893C28.4894 21.8177 28.996 19.9221 28.9952 17.9928C28.9944 16.0634 28.4861 14.1683 27.5215 12.4974V12.4999ZM26.689 20.3299C26.228 22.0489 25.2677 23.5926 23.9294 24.7659C22.5912 25.9392 20.9352 26.6894 19.1707 26.9216C17.4062 27.1539 15.6124 26.8578 14.0162 26.0707C12.4199 25.2837 11.0929 24.0411 10.2027 22.4999L5.20274 13.8349C5.0124 13.491 4.96468 13.0861 5.06984 12.7074C5.175 12.3286 5.42464 12.0062 5.76504 11.8097C6.10545 11.6131 6.50942 11.558 6.89003 11.6562C7.27064 11.7545 7.59749 11.9982 7.80024 12.3349L10.204 16.4999C10.2677 16.6173 10.3543 16.7207 10.4586 16.804C10.563 16.8874 10.6829 16.949 10.8115 16.9852C10.94 17.0215 11.0745 17.0316 11.207 17.015C11.3395 16.9984 11.4673 16.9555 11.583 16.8887C11.6986 16.8219 11.7997 16.7326 11.8802 16.6261C11.9608 16.5196 12.0192 16.3981 12.0521 16.2686C12.0849 16.1392 12.0915 16.0045 12.0714 15.8725C12.0514 15.7404 12.0051 15.6138 11.9352 15.4999L7.75024 8.24995C7.64745 8.07922 7.57971 7.88971 7.55098 7.69251C7.52225 7.49531 7.5331 7.29436 7.5829 7.1014C7.63271 6.90843 7.72046 6.72733 7.84104 6.56866C7.96162 6.41 8.11261 6.27695 8.28518 6.17729C8.45776 6.07763 8.64846 6.01336 8.84616 5.98823C9.04385 5.9631 9.24457 5.97762 9.43659 6.03093C9.62862 6.08424 9.80809 6.17528 9.96453 6.29874C10.121 6.42219 10.2512 6.57558 10.3477 6.74995L14.2502 13.4999C14.314 13.6173 14.4005 13.7207 14.5049 13.804C14.6092 13.8874 14.7292 13.949 14.8577 13.9852C14.9862 14.0215 15.1207 14.0316 15.2532 14.015C15.3857 13.9984 15.5136 13.9555 15.6292 13.8887C15.7448 13.8219 15.8459 13.7326 15.9265 13.6261C16.0071 13.5196 16.0655 13.3981 16.0983 13.2686C16.1312 13.1392 16.1377 13.0045 16.1177 12.8725C16.0976 12.7404 16.0513 12.6138 15.9815 12.4999L12.9465 7.24995C12.8437 7.07922 12.776 6.88971 12.7472 6.69251C12.7185 6.49531 12.7293 6.29436 12.7792 6.1014C12.829 5.90843 12.9167 5.72733 13.0373 5.56866C13.1579 5.41 13.3089 5.27695 13.4814 5.17729C13.654 5.07763 13.8447 5.01336 14.0424 4.98823C14.2401 4.9631 14.4408 4.97762 14.6328 5.03093C14.8249 5.08424 15.0043 5.17528 15.1608 5.29874C15.3172 5.42219 15.4475 5.57558 15.544 5.74995L19.7215 12.9874C18.7484 13.9755 18.1477 15.2702 18.0215 16.6512C17.8952 18.0322 18.2512 19.4143 19.029 20.5624C19.1782 20.7819 19.4084 20.9331 19.6691 20.9828C19.9298 21.0325 20.1995 20.9766 20.419 20.8274C20.6385 20.6783 20.7897 20.448 20.8394 20.1873C20.8891 19.9267 20.8332 19.6569 20.684 19.4374C20.1097 18.5869 19.8842 17.5482 20.0543 16.5361C20.2244 15.524 20.777 14.616 21.5977 13.9999C21.7934 13.8533 21.9285 13.64 21.9776 13.4005C22.0266 13.1609 21.9862 12.9117 21.864 12.6999L21.029 11.2499C20.9228 11.0792 20.852 10.8888 20.8209 10.6902C20.7897 10.4915 20.7988 10.2886 20.8476 10.0936C20.8965 9.8985 20.984 9.71525 21.1051 9.55469C21.2261 9.39414 21.3782 9.25956 21.5524 9.15897C21.7265 9.05838 21.919 8.99382 22.1186 8.96913C22.3181 8.94444 22.5206 8.96013 22.714 9.01526C22.9074 9.07039 23.0877 9.16384 23.2442 9.29005C23.4008 9.41626 23.5303 9.57266 23.6252 9.74995L25.789 13.4999C26.3827 14.5221 26.7679 15.6517 26.9224 16.8236C27.0768 17.9955 26.9975 19.1864 26.689 20.3274V20.3299ZM23.0315 3.9637C23.0988 3.70762 23.2648 3.48868 23.4933 3.35487C23.7218 3.22107 23.994 3.18334 24.2502 3.24995C25.2053 3.50165 26.1008 3.94069 26.8847 4.54154C27.6686 5.14239 28.3253 5.89308 28.8165 6.74995L28.8577 6.8212C28.9276 6.93503 28.9739 7.0617 28.9939 7.19372C29.014 7.32574 29.0074 7.46044 28.9746 7.58988C28.9417 7.71932 28.8833 7.84087 28.8027 7.94736C28.7222 8.05385 28.6211 8.14313 28.5055 8.20992C28.3898 8.27671 28.262 8.31967 28.1295 8.33626C27.997 8.35284 27.8625 8.34272 27.734 8.30649C27.6054 8.27025 27.4855 8.20865 27.3811 8.1253C27.2768 8.04195 27.1902 7.93855 27.1265 7.8212L27.0852 7.74995C26.7247 7.12198 26.2429 6.57202 25.6677 6.13208C25.0926 5.69215 24.4357 5.37104 23.7352 5.18745C23.4799 5.11807 23.2625 4.95032 23.1306 4.72095C22.9987 4.49158 22.963 4.21928 23.0315 3.9637ZM10.1115 29.6249C9.94731 29.833 9.70724 29.9674 9.44402 29.9986C9.18081 30.0298 8.91598 29.9552 8.70774 29.7912C7.21205 28.6098 5.95615 27.1532 5.00774 25.4999C4.94208 25.3862 4.89947 25.2606 4.88234 25.1304C4.86521 25.0002 4.87389 24.8678 4.9079 24.741C4.94191 24.6141 5.00058 24.4952 5.08055 24.391C5.16052 24.2868 5.26023 24.1994 5.37399 24.1337C5.48775 24.068 5.61332 24.0254 5.74355 24.0083C5.87377 23.9912 6.0061 23.9999 6.13297 24.0339C6.25983 24.0679 6.37876 24.1265 6.48296 24.2065C6.58715 24.2865 6.67458 24.3862 6.74024 24.4999C7.56226 25.9311 8.65008 27.192 9.94524 28.2149C10.0492 28.2963 10.136 28.3974 10.2006 28.5125C10.2653 28.6275 10.3066 28.7542 10.322 28.8853C10.3375 29.0164 10.3268 29.1492 10.2907 29.2762C10.2546 29.4031 10.1937 29.5217 10.1115 29.6249Z" fill="#343330"/>
</svg>
