<svg width="32" height="32" viewBox="0 0 32 32" fill="none" xmlns="http://www.w3.org/2000/svg">
<path d="M20.0277 3V1C20.0277 0.734784 20.133 0.48043 20.3206 0.292893C20.5081 0.105357 20.7625 0 21.0277 0C21.2929 0 21.5472 0.105357 21.7348 0.292893C21.9223 0.48043 22.0277 0.734784 22.0277 1V3C22.0277 3.26522 21.9223 3.51957 21.7348 3.70711C21.5472 3.89464 21.2929 4 21.0277 4C20.7625 4 20.5081 3.89464 20.3206 3.70711C20.133 3.51957 20.0277 3.26522 20.0277 3ZM24.5127 5.125C24.6694 5.22129 24.85 5.27194 25.0339 5.27125C25.2055 5.27152 25.3743 5.22763 25.5241 5.14378C25.6738 5.05993 25.7995 4.93896 25.8889 4.7925L26.8889 3.15375C26.9573 3.04147 27.0029 2.91682 27.0231 2.78693C27.0433 2.65703 27.0377 2.52442 27.0066 2.39669C26.9756 2.26895 26.9197 2.14858 26.8421 2.04244C26.7645 1.93631 26.6668 1.84649 26.5546 1.77813C26.4423 1.70976 26.3176 1.66417 26.1877 1.64397C26.0578 1.62378 25.9252 1.62936 25.7975 1.66041C25.6698 1.69146 25.5494 1.74737 25.4432 1.82494C25.3371 1.90251 25.2473 2.00022 25.1789 2.1125L24.1789 3.75C24.1105 3.86218 24.0648 3.98675 24.0446 4.11658C24.0243 4.24642 24.0298 4.37897 24.0608 4.50667C24.0918 4.63437 24.1477 4.75471 24.2252 4.8608C24.3027 4.9669 24.4004 5.05668 24.5127 5.125ZM30.4514 6.69875C30.4111 6.5736 30.3466 6.45762 30.2614 6.35744C30.1763 6.25727 30.0722 6.17487 29.9552 6.11496C29.8382 6.05505 29.7105 6.01881 29.5794 6.00831C29.4483 5.9978 29.3165 6.01325 29.1914 6.05375L27.3089 6.66C27.0815 6.73271 26.8876 6.88439 26.7623 7.08762C26.637 7.29085 26.5885 7.53222 26.6256 7.76808C26.6628 8.00393 26.7831 8.21872 26.9648 8.37359C27.1465 8.52847 27.3777 8.61321 27.6164 8.6125C27.7208 8.6121 27.8245 8.59566 27.9239 8.56375L29.8052 7.9575C29.9309 7.91737 30.0474 7.85277 30.148 7.76742C30.2486 7.68206 30.3313 7.57764 30.3914 7.46016C30.4515 7.34269 30.4877 7.21449 30.498 7.08296C30.5083 6.95142 30.4925 6.81914 30.4514 6.69375V6.69875ZM27.1252 12.1975C28.1842 14.0389 28.6312 16.169 28.4016 18.2807C28.172 20.3925 27.2777 22.3768 25.8477 23.9475C25.8052 24.1637 25.7577 24.38 25.6989 24.595C25.1834 26.5071 24.1129 28.2235 22.6225 29.5277C21.1322 30.8318 19.2889 31.6651 17.3253 31.9224C15.3617 32.1798 13.366 31.8495 11.5899 30.9734C9.81389 30.0973 8.33725 28.7147 7.34643 27L2.93768 19.375C2.6699 18.9111 2.52094 18.3881 2.50406 17.8527C2.48717 17.3173 2.60289 16.7861 2.84091 16.3062C3.07894 15.8263 3.43188 15.4127 3.86835 15.1022C4.30482 14.7916 4.81129 14.5938 5.34268 14.5262L4.96768 13.8763C4.70024 13.4127 4.55142 12.8903 4.53441 12.3554C4.51741 11.8205 4.63275 11.2897 4.8702 10.8101C5.10764 10.3305 5.45985 9.91698 5.89553 9.60622C6.33122 9.29546 6.8369 9.0971 7.36768 9.02875L7.28018 8.875C6.90947 8.23658 6.76716 7.49097 6.87668 6.76089C6.98619 6.03081 7.341 5.35977 7.88272 4.85822C8.42443 4.35667 9.12076 4.05449 9.85709 4.00142C10.5934 3.94835 11.3259 4.14756 11.9339 4.56625C12.2274 4.08294 12.6416 3.68433 13.1358 3.40963C13.63 3.13493 14.1872 2.99359 14.7525 2.99952C15.3179 3.00545 15.872 3.15844 16.3604 3.44344C16.8487 3.72844 17.2544 4.13565 17.5377 4.625L19.0702 7.275C19.3961 6.8499 19.8218 6.5117 20.3096 6.29034C20.7974 6.06898 21.3322 5.97128 21.8668 6.00589C22.4013 6.04049 22.9191 6.20634 23.3743 6.48875C23.8295 6.77116 24.208 7.16142 24.4764 7.625L27.1252 12.1975ZM13.6339 6.875L16.7589 12.2712C17.0196 11.9302 17.3452 11.6441 17.717 11.4295C18.0888 11.215 18.4994 11.0762 18.9252 11.0212L15.8027 5.625C15.6369 5.33741 15.3637 5.12744 15.0431 5.04129C14.7226 4.95514 14.3809 4.99986 14.0933 5.16563C13.8057 5.33139 13.5957 5.6046 13.5096 5.92517C13.4234 6.24574 13.4682 6.58741 13.6339 6.875ZM9.01518 7.875L9.82268 9.27125C10.0834 8.93054 10.4089 8.64472 10.7804 8.43021C11.152 8.21569 11.5623 8.07671 11.9877 8.02125L11.1814 6.625C11.0994 6.48276 10.9901 6.35808 10.8598 6.25808C10.7295 6.15808 10.5809 6.08471 10.4222 6.04217C10.2636 5.99963 10.0982 5.98875 9.93537 6.01015C9.77255 6.03154 9.61554 6.0848 9.4733 6.16687C9.33106 6.24895 9.20639 6.35824 9.10638 6.4885C9.00638 6.61876 8.93302 6.76744 8.89048 6.92606C8.84793 7.08467 8.83705 7.25011 8.85845 7.41293C8.87984 7.57575 8.9331 7.73276 9.01518 7.875ZM22.9577 18L20.4302 13.625C20.2768 13.3309 20.013 13.1098 19.6966 13.0103C19.3803 12.9108 19.0374 12.941 18.7433 13.0944C18.4492 13.2477 18.2281 13.5116 18.1286 13.8279C18.0291 14.1443 18.0593 14.4872 18.2127 14.7812L19.7877 17.5C19.9203 17.7299 19.9561 18.0031 19.8873 18.2594C19.8185 18.5158 19.6507 18.7343 19.4208 18.8669C19.1909 18.9995 18.9177 19.0353 18.6614 18.9665C18.405 18.8977 18.1865 18.7299 18.0539 18.5L13.4914 10.625C13.3257 10.3374 13.0524 10.1274 12.7319 10.0413C12.4113 9.95514 12.0696 9.99986 11.7821 10.1656C11.4945 10.3314 11.2845 10.6046 11.1983 10.9252C11.1122 11.2457 11.1569 11.5874 11.3227 11.875L14.5789 17.5C14.7115 17.7299 14.7474 18.0031 14.6786 18.2594C14.6098 18.5158 14.442 18.7343 14.2121 18.8669C13.9821 18.9995 13.709 19.0353 13.4526 18.9665C13.1963 18.8977 12.9778 18.7299 12.8452 18.5L8.87518 11.625C8.70942 11.3377 8.43633 11.1281 8.116 11.0422C7.79566 10.9563 7.45431 11.0011 7.16705 11.1669C6.87979 11.3326 6.67014 11.6057 6.58423 11.9261C6.49831 12.2464 6.54317 12.5877 6.70893 12.875L11.1114 20.5C11.244 20.7302 11.2797 21.0037 11.2107 21.2603C11.1417 21.5169 10.9735 21.7355 10.7433 21.8681C10.5131 22.0007 10.2396 22.0364 9.983 21.9674C9.72643 21.8984 9.50779 21.7302 9.37518 21.5L6.84018 17.125C6.67442 16.8376 6.40127 16.6278 6.08081 16.5417C5.76036 16.4557 5.41886 16.5005 5.13143 16.6663C4.844 16.832 4.63419 17.1052 4.54816 17.4256C4.46213 17.7461 4.50692 18.0876 4.67268 18.375L9.08143 26C9.87449 27.3711 11.056 28.4764 12.4768 29.1765C13.8976 29.8765 15.4939 30.14 17.0643 29.9335C18.6347 29.727 20.1087 29.0598 21.3002 28.0162C22.4917 26.9727 23.3473 25.5995 23.7589 24.07C24.0338 23.0556 24.1045 21.9966 23.9669 20.9547C23.8294 19.9127 23.4863 18.9084 22.9577 18ZM25.3839 13.1975L22.7414 8.625C22.6593 8.48235 22.55 8.35727 22.4196 8.25689C22.2891 8.1565 22.1402 8.0828 21.9813 8.03996C21.6604 7.95346 21.3183 7.99799 21.0302 8.16375C20.8875 8.24583 20.7624 8.3552 20.6621 8.48561C20.5617 8.61603 20.488 8.76494 20.4451 8.92385C20.3586 9.24477 20.4032 9.58691 20.5689 9.875L24.6939 17.0063C25.2657 17.9922 25.6652 19.0685 25.8752 20.1887C26.3272 19.0621 26.5178 17.8476 26.4327 16.6367C26.3476 15.4258 25.989 14.2499 25.3839 13.1975Z" fill="#343330"/>
</svg>
