<svg width="32" height="32" viewBox="0 0 32 32" fill="none" xmlns="http://www.w3.org/2000/svg">
<path d="M24.4998 11C23.9169 10.9994 23.3431 11.1451 22.8311 11.4237C22.678 10.9497 22.4254 10.5138 22.0903 10.1452C21.7553 9.77658 21.3454 9.48374 20.888 9.28625C20.4307 9.08877 19.9365 8.99118 19.4384 9.00002C18.9403 9.00885 18.4499 9.12391 17.9998 9.3375V5.5C17.9998 4.57174 17.6311 3.6815 16.9747 3.02513C16.3183 2.36875 15.4281 2 14.4998 2C13.5716 2 12.6813 2.36875 12.0249 3.02513C11.3686 3.6815 10.9998 4.57174 10.9998 5.5V15.5L10.5223 14.7338C10.2914 14.3361 9.98449 13.9878 9.61901 13.7088C9.25352 13.4297 8.83666 13.2254 8.39222 13.1075C7.49462 12.8693 6.53917 12.9975 5.73607 13.4637C4.93296 13.93 4.34797 14.6963 4.1098 15.5938C3.87163 16.4914 3.99978 17.4469 4.46607 18.25L5.04982 19.2787C9.35107 26.8612 11.1311 30 16.9998 30C19.9162 29.9967 22.7122 28.8367 24.7743 26.7745C26.8365 24.7123 27.9965 21.9164 27.9998 19V14.5C27.9998 13.5717 27.6311 12.6815 26.9747 12.0251C26.3183 11.3687 25.4281 11 24.4998 11ZM25.9998 19C25.9972 21.3861 25.0481 23.6738 23.3609 25.361C21.6736 27.0483 19.386 27.9974 16.9998 28C12.2961 28 11.0198 25.75 6.78982 18.29L6.20357 17.2563V17.25C6.00451 16.9058 5.95024 16.4967 6.05266 16.1126C6.15509 15.7284 6.40584 15.4006 6.74982 15.2013C6.97766 15.0693 7.23651 15.0002 7.49982 15.0013C7.7635 15.0009 8.02262 15.07 8.25107 15.2017C8.47952 15.3333 8.66923 15.5229 8.80107 15.7513C8.80616 15.7613 8.81201 15.7709 8.81857 15.78L11.1523 19.53C11.2675 19.7139 11.4394 19.8553 11.642 19.933C11.8446 20.0106 12.067 20.0203 12.2756 19.9604C12.4841 19.9006 12.6676 19.7745 12.7982 19.6013C12.9289 19.428 12.9996 19.217 12.9998 19V5.5C12.9998 5.10218 13.1579 4.72064 13.4392 4.43934C13.7205 4.15804 14.102 4 14.4998 4C14.8976 4 15.2792 4.15804 15.5605 4.43934C15.8418 4.72064 15.9998 5.10218 15.9998 5.5V14C15.9998 14.2652 16.1052 14.5196 16.2927 14.7071C16.4802 14.8946 16.7346 15 16.9998 15C17.265 15 17.5194 14.8946 17.7069 14.7071C17.8945 14.5196 17.9998 14.2652 17.9998 14V12.5C17.9998 12.1022 18.1579 11.7206 18.4392 11.4393C18.7205 11.158 19.102 11 19.4998 11C19.8976 11 20.2792 11.158 20.5605 11.4393C20.8418 11.7206 20.9998 12.1022 20.9998 12.5V15C20.9998 15.2652 21.1052 15.5196 21.2927 15.7071C21.4802 15.8946 21.7346 16 21.9998 16C22.265 16 22.5194 15.8946 22.7069 15.7071C22.8945 15.5196 22.9998 15.2652 22.9998 15V14.5C22.9998 14.1022 23.1579 13.7206 23.4392 13.4393C23.7205 13.158 24.102 13 24.4998 13C24.8976 13 25.2792 13.158 25.5605 13.4393C25.8418 13.7206 25.9998 14.1022 25.9998 14.5V19Z" fill="#343330"/>
</svg>
