<svg width="32" height="32" viewBox="0 0 32 32" fill="none" xmlns="http://www.w3.org/2000/svg">
<path d="M17.9998 20.71C19.5674 19.7336 20.7744 18.2733 21.4381 16.5498C22.1018 14.8264 22.1862 12.9337 21.6785 11.1581C21.1707 9.38242 20.0985 7.82045 18.6239 6.70847C17.1494 5.59649 15.3528 4.995 13.506 4.995C11.6592 4.995 9.86264 5.59649 8.38811 6.70847C6.91358 7.82045 5.84134 9.38242 5.33358 11.1581C4.82583 12.9337 4.91021 14.8264 5.57394 16.5498C6.23767 18.2733 7.44465 19.7336 9.01227 20.71C6.43102 21.555 4.10852 23.1337 2.24102 25.3562C2.07029 25.5593 1.98721 25.8219 2.01007 26.0862C2.03293 26.3505 2.15984 26.5949 2.3629 26.7656C2.56595 26.9364 2.82852 27.0194 3.09283 26.9966C3.35714 26.9737 3.60154 26.8468 3.77227 26.6437C6.28102 23.6487 9.73852 22 13.4998 22C17.261 22 20.7185 23.6487 23.2348 26.6437C23.4055 26.8468 23.6499 26.9737 23.9142 26.9966C24.1785 27.0194 24.4411 26.9364 24.6441 26.7656C24.8472 26.5949 24.9741 26.3505 24.997 26.0862C25.0198 25.8219 24.9368 25.5593 24.766 25.3562C22.8973 23.1337 20.5748 21.555 17.9998 20.71ZM6.99977 13.5C6.99977 12.2144 7.38099 10.9577 8.09522 9.88879C8.80945 8.81987 9.82461 7.98675 11.0123 7.49478C12.2001 7.00281 13.507 6.87409 14.7679 7.12489C16.0287 7.37569 17.1869 7.99476 18.096 8.9038C19.005 9.81284 19.6241 10.971 19.8749 12.2319C20.1257 13.4928 19.997 14.7997 19.505 15.9874C19.013 17.1752 18.1799 18.1903 17.111 18.9045C16.0421 19.6188 14.7854 20 13.4998 20C11.7765 19.998 10.1243 19.3126 8.90577 18.094C7.68721 16.8754 7.00176 15.2233 6.99977 13.5ZM25.9198 8.19999C26.6324 9.87609 26.9997 11.6787 26.9997 13.5C26.9997 15.3213 26.6324 17.1239 25.9198 18.8C25.8428 18.9803 25.7146 19.134 25.5511 19.242C25.3875 19.35 25.1958 19.4075 24.9998 19.4075C24.8342 19.4076 24.6713 19.3667 24.5255 19.2883C24.3797 19.2099 24.2556 19.0965 24.1644 18.9584C24.0732 18.8202 24.0178 18.6616 24.003 18.4967C23.9882 18.3319 24.0146 18.1659 24.0798 18.0137C24.6869 16.5863 24.9998 15.0511 24.9998 13.5C24.9998 11.9488 24.6869 10.4136 24.0798 8.98624C23.9755 8.74224 23.9724 8.46682 24.0713 8.22056C24.1701 7.9743 24.3626 7.77738 24.6066 7.67312C24.8506 7.56886 25.1261 7.56579 25.3723 7.6646C25.6186 7.76341 25.8155 7.95599 25.9198 8.19999ZM30.9998 13.5C31.0045 15.8701 30.5242 18.2161 29.5885 20.3937C29.4791 20.6297 29.282 20.8138 29.0391 20.9069C28.7961 20.9999 28.5265 20.9947 28.2874 20.8922C28.0483 20.7897 27.8585 20.5981 27.7584 20.358C27.6582 20.1179 27.6556 19.8483 27.751 19.6062C28.575 17.6759 28.9998 15.5988 28.9998 13.5C28.9998 11.4012 28.575 9.32406 27.751 7.39374C27.6947 7.27237 27.6634 7.14094 27.6588 7.00723C27.6542 6.87351 27.6765 6.74024 27.7244 6.61531C27.7723 6.49037 27.8447 6.37631 27.9375 6.27988C28.0302 6.18345 28.1413 6.10661 28.2643 6.0539C28.3873 6.0012 28.5196 5.97371 28.6534 5.97306C28.7871 5.97241 28.9197 5.99861 29.0432 6.05012C29.1667 6.10162 29.2786 6.17738 29.3722 6.2729C29.4659 6.36843 29.5394 6.48178 29.5885 6.60624C30.5242 8.78385 31.0045 11.1299 30.9998 13.5Z" fill="#343330"/>
</svg>
