<svg width="32" height="32" viewBox="0 0 32 32" fill="none" xmlns="http://www.w3.org/2000/svg">
<path d="M17.9998 19.71C19.5674 18.7336 20.7744 17.2733 21.4381 15.5498C22.1018 13.8264 22.1862 11.9337 21.6785 10.1581C21.1707 8.38242 20.0985 6.82045 18.6239 5.70847C17.1494 4.59649 15.3528 3.995 13.506 3.995C11.6592 3.995 9.86264 4.59649 8.38811 5.70847C6.91358 6.82045 5.84134 8.38242 5.33358 10.1581C4.82583 11.9337 4.91021 13.8264 5.57394 15.5498C6.23767 17.2733 7.44465 18.7336 9.01227 19.71C6.43102 20.555 4.10852 22.1337 2.24102 24.3562C2.07029 24.5593 1.98721 24.8219 2.01007 25.0862C2.03293 25.3505 2.15984 25.5949 2.3629 25.7656C2.56595 25.9364 2.82852 26.0194 3.09283 25.9966C3.35714 25.9737 3.60154 25.8468 3.77227 25.6437C6.28102 22.6487 9.73852 21 13.4998 21C17.261 21 20.7185 22.6487 23.2335 25.6437C23.4043 25.8468 23.6487 25.9737 23.913 25.9966C24.1773 26.0194 24.4398 25.9364 24.6429 25.7656C24.846 25.5949 24.9729 25.3505 24.9957 25.0862C25.0186 24.8219 24.9355 24.5593 24.7648 24.3562C22.8973 22.1337 20.5748 20.555 17.9998 19.71ZM6.99977 12.5C6.99977 11.2144 7.38099 9.95771 8.09522 8.88879C8.80945 7.81987 9.82461 6.98675 11.0123 6.49478C12.2001 6.00281 13.507 5.87409 14.7679 6.12489C16.0287 6.37569 17.1869 6.99476 18.096 7.9038C19.005 8.81284 19.6241 9.97103 19.8749 11.2319C20.1257 12.4928 19.997 13.7997 19.505 14.9874C19.013 16.1752 18.1799 17.1903 17.111 17.9045C16.0421 18.6188 14.7854 19 13.4998 19C11.7765 18.998 10.1243 18.3126 8.90577 17.094C7.68721 15.8754 7.00176 14.2233 6.99977 12.5ZM31.7073 16.7075L27.7073 20.7075C27.6144 20.8005 27.5041 20.8742 27.3827 20.9246C27.2613 20.9749 27.1312 21.0008 26.9998 21.0008C26.8684 21.0008 26.7382 20.9749 26.6168 20.9246C26.4954 20.8742 26.3851 20.8005 26.2923 20.7075L24.2923 18.7075C24.1046 18.5199 23.9992 18.2654 23.9992 18C23.9992 17.7346 24.1046 17.4801 24.2923 17.2925C24.4799 17.1049 24.7344 16.9994 24.9998 16.9994C25.2651 16.9994 25.5196 17.1049 25.7073 17.2925L26.9998 18.5862L30.2923 15.2925C30.4799 15.1049 30.7344 14.9994 30.9998 14.9994C31.2651 14.9994 31.5196 15.1049 31.7073 15.2925C31.8949 15.4801 32.0003 15.7346 32.0003 16C32.0003 16.2654 31.8949 16.5199 31.7073 16.7075Z" fill="#343330"/>
</svg>
