<svg width="32" height="32" viewBox="0 0 32 32" fill="none" xmlns="http://www.w3.org/2000/svg">
<path d="M16.0002 3C15.735 3 15.4807 3.10536 15.2931 3.29289C15.1056 3.48043 15.0002 3.73478 15.0002 4V11C15.0002 11.2652 15.1056 11.5196 15.2931 11.7071C15.4807 11.8946 15.735 12 16.0002 12C16.8807 12.0002 17.7366 12.2909 18.435 12.8271C19.1334 13.3632 19.6355 14.1148 19.8632 14.9654C20.091 15.8159 20.0317 16.7178 19.6946 17.5313C19.3576 18.3447 18.7615 19.0242 17.9989 19.4643C17.2364 19.9045 16.3498 20.0807 15.4769 19.9657C14.6039 19.8507 13.7933 19.4509 13.1707 18.8283C12.5482 18.2056 12.1484 17.395 12.0335 16.522C11.9186 15.649 12.095 14.7625 12.5352 14C12.6009 13.8862 12.6435 13.7607 12.6607 13.6304C12.6778 13.5002 12.6691 13.3679 12.6351 13.241C12.6011 13.1141 12.5424 12.9952 12.4625 12.891C12.3825 12.7868 12.2827 12.6994 12.169 12.6337L6.10647 9.13375C5.99272 9.06806 5.86714 9.02543 5.73691 9.00829C5.60668 8.99114 5.47435 8.99983 5.34747 9.03384C5.2206 9.06785 5.10167 9.12652 4.99747 9.20651C4.89328 9.28649 4.80587 9.38622 4.74022 9.5C3.30939 11.9783 2.73627 14.8594 3.10974 17.6966C3.48322 20.5338 4.78243 23.1685 6.80587 25.1921C8.82931 27.2157 11.4639 28.515 14.3011 28.8887C17.1383 29.2624 20.0195 28.6894 22.4978 27.2587C24.9762 25.8281 26.9133 23.6196 28.0086 20.9758C29.1039 18.3321 29.2963 15.4008 28.5559 12.6366C27.8155 9.87233 26.1837 7.42963 23.9136 5.6873C21.6435 3.94496 18.8619 3.00037 16.0002 3ZM6.01147 11.3875L10.3752 13.9075C10.1269 14.5772 9.99992 15.2858 10.0002 16C10.0002 16.1912 10.0102 16.375 10.0277 16.565L5.16022 17.875C4.78063 15.6762 5.07747 13.4139 6.01147 11.3875ZM5.67772 19.8013L10.5527 18.4963C10.9603 19.3847 11.5784 20.1604 12.3533 20.7561C13.1283 21.3518 14.0368 21.7496 15.0002 21.915V26.9538C12.93 26.7619 10.9562 25.9885 9.30671 24.7229C7.65718 23.4574 6.39912 21.7512 5.67772 19.8013ZM17.0002 26.9538V21.915C18.3977 21.6781 19.6663 20.9541 20.581 19.8713C21.4957 18.7885 21.9975 17.4168 21.9975 15.9994C21.9975 14.5819 21.4957 13.2102 20.581 12.1274C19.6663 11.0446 18.3977 10.3206 17.0002 10.0837V5.045C19.733 5.29467 22.2737 6.55675 24.1237 8.58349C25.9737 10.6102 26.9994 13.2553 26.9994 15.9994C26.9994 18.7435 25.9737 21.3885 24.1237 23.4153C22.2737 25.442 19.733 26.7041 17.0002 26.9538Z" fill="#343330"/>
</svg>
