<svg width="32" height="32" viewBox="0 0 32 32" fill="none" xmlns="http://www.w3.org/2000/svg">
<path d="M24.7802 7.82875L26.7402 5.6725C26.9148 5.47566 27.0048 5.21791 26.9907 4.95515C26.9765 4.6924 26.8594 4.4458 26.6647 4.26882C26.4699 4.09185 26.2133 3.99876 25.9504 4.00975C25.6874 4.02073 25.4395 4.1349 25.2602 4.3275L23.3002 6.4825C20.9137 4.64965 17.9254 3.78082 14.9283 4.04839C11.9311 4.31595 9.14399 5.70036 7.1199 7.92695C5.09581 10.1535 3.98263 13.0596 4.00121 16.0687C4.01978 19.0777 5.16875 21.9698 7.22017 24.1713L5.26017 26.3275C5.17 26.4244 5.09996 26.5382 5.05409 26.6623C5.00822 26.7864 4.98745 26.9184 4.99298 27.0506C4.9985 27.1828 5.03021 27.3126 5.08627 27.4325C5.14233 27.5524 5.22162 27.6599 5.31956 27.7489C5.41749 27.8379 5.53211 27.9066 5.65678 27.951C5.78145 27.9954 5.91369 28.0145 6.04582 28.0074C6.17796 28.0003 6.30738 27.9671 6.42657 27.9096C6.54576 27.8521 6.65235 27.7715 6.74017 27.6725L8.70017 25.5175C11.0867 27.3504 14.0749 28.2192 17.0721 27.9516C20.0692 27.6841 22.8563 26.2996 24.8804 24.0731C26.9045 21.8465 28.0177 18.9404 27.9991 15.9313C27.9806 12.9223 26.8316 10.0302 24.7802 7.82875ZM6.00017 16C6.00128 14.1487 6.51629 12.334 7.48784 10.7581C8.45938 9.18223 9.84932 7.90697 11.5028 7.07437C13.1564 6.24178 15.0086 5.88454 16.8531 6.04245C18.6977 6.20036 20.4622 6.86722 21.9502 7.96875L8.57517 22.685C6.91692 20.8535 5.99909 18.4707 6.00017 16ZM16.0002 26C13.8565 26.0023 11.7694 25.3117 10.0502 24.0313L23.4252 9.315C24.7192 10.7505 25.5692 12.5305 25.8722 14.4392C26.1753 16.348 25.9183 18.3037 25.1326 20.0694C24.3468 21.8351 23.0659 23.3351 21.445 24.3877C19.8242 25.4403 17.9328 26.0004 16.0002 26Z" fill="#343330"/>
</svg>
