<svg width="32" height="32" viewBox="0 0 32 32" fill="none" xmlns="http://www.w3.org/2000/svg">
<path d="M28.0002 16C28.0001 16.1894 27.9463 16.3749 27.8449 16.5349C27.7436 16.6949 27.5989 16.8228 27.4277 16.9037L8.42766 25.9037C8.30898 25.96 8.18039 25.9923 8.04922 25.9988C7.91806 26.0053 7.7869 25.9859 7.66322 25.9418C7.53955 25.8976 7.42578 25.8295 7.32842 25.7414C7.23106 25.6533 7.15201 25.5468 7.09579 25.4281C7.03957 25.3094 7.00727 25.1808 7.00075 25.0497C6.99422 24.9185 7.0136 24.7874 7.05776 24.6637C7.10193 24.54 7.17002 24.4262 7.25815 24.3289C7.34629 24.2315 7.45273 24.1525 7.57141 24.0962L24.6639 16L7.57266 7.90375C7.45398 7.84753 7.34754 7.76848 7.2594 7.67112C7.17127 7.57376 7.10318 7.45999 7.05901 7.33631C7.01485 7.21264 6.99547 7.08147 7.002 6.95031C7.00852 6.81915 7.04082 6.69055 7.09704 6.57187C7.15326 6.45319 7.23231 6.34674 7.32967 6.25861C7.42703 6.17048 7.5408 6.10239 7.66447 6.05822C7.78815 6.01405 7.91931 5.99468 8.05048 6.0012C8.18164 6.00773 8.31023 6.04003 8.42891 6.09625L27.4289 15.0962C27.5999 15.1774 27.7443 15.3054 27.8455 15.4654C27.9466 15.6253 28.0002 15.8107 28.0002 16Z" fill="#343330"/>
</svg>
