<svg width="32" height="32" viewBox="0 0 32 32" fill="none" xmlns="http://www.w3.org/2000/svg">
<path d="M6.65523 19.0612L23.1077 13L6.65523 6.93874C6.52704 6.89729 6.40854 6.83036 6.30686 6.74198C6.20517 6.65359 6.1224 6.54557 6.0635 6.42439C6.00461 6.30322 5.9708 6.1714 5.96412 6.03683C5.95744 5.90227 5.97802 5.76775 6.02462 5.64134C6.07123 5.51492 6.14289 5.39923 6.23532 5.30121C6.32775 5.20319 6.43903 5.12485 6.56249 5.0709C6.68595 5.01696 6.81903 4.98852 6.95375 4.98729C7.08848 4.98605 7.22206 5.01206 7.34648 5.06374L26.3465 12.0637C26.5379 12.1348 26.7029 12.2627 26.8195 12.4303C26.936 12.5979 26.9985 12.7971 26.9985 13.0012C26.9985 13.2054 26.936 13.4046 26.8195 13.5722C26.7029 13.7398 26.5379 13.8677 26.3465 13.9387L7.34648 20.9387C7.2355 20.9791 7.11833 20.9998 7.00023 21C6.76533 21.0001 6.53789 20.9175 6.3578 20.7667C6.1777 20.6159 6.05645 20.4065 6.01529 20.1752C5.97414 19.9439 6.01571 19.7055 6.13272 19.5019C6.24974 19.2982 6.43472 19.1422 6.65523 19.0612ZM26.0002 24H7.00023C6.73501 24 6.48066 24.1053 6.29312 24.2929C6.10559 24.4804 6.00023 24.7348 6.00023 25C6.00023 25.2652 6.10559 25.5196 6.29312 25.7071C6.48066 25.8946 6.73501 26 7.00023 26H26.0002C26.2654 26 26.5198 25.8946 26.7073 25.7071C26.8949 25.5196 27.0002 25.2652 27.0002 25C27.0002 24.7348 26.8949 24.4804 26.7073 24.2929C26.5198 24.1053 26.2654 24 26.0002 24Z" fill="#343330"/>
</svg>
