<svg width="32" height="32" viewBox="0 0 32 32" fill="none" xmlns="http://www.w3.org/2000/svg">
<path d="M25.9039 25.4275C25.8478 25.5463 25.7688 25.6529 25.6714 25.7411C25.574 25.8294 25.4602 25.8976 25.3364 25.9418C25.2127 25.9861 25.0814 26.0055 24.9501 25.9989C24.8189 25.9924 24.6902 25.96 24.5715 25.9037L5.57145 16.9037C5.40034 16.8227 5.25576 16.6947 5.15451 16.5348C5.05326 16.3748 4.99951 16.1893 4.99951 16C4.99951 15.8107 5.05326 15.6252 5.15451 15.4652C5.25576 15.3052 5.40034 15.1773 5.57145 15.0962L24.5715 6.09625C24.6901 6.04003 24.8187 6.00773 24.9499 6.0012C25.0811 5.99468 25.2122 6.01405 25.3359 6.05822C25.4596 6.10239 25.5733 6.17048 25.6707 6.25861C25.7681 6.34674 25.8471 6.45319 25.9033 6.57187C25.9596 6.69055 25.9918 6.81915 25.9984 6.95031C26.0049 7.08147 25.9855 7.21264 25.9414 7.33631C25.8972 7.45999 25.8291 7.57376 25.741 7.67112C25.6528 7.76848 25.5464 7.84753 25.4277 7.90375L8.33645 16L25.4277 24.0962C25.6673 24.2097 25.8521 24.4136 25.9414 24.6633C26.0308 24.9129 26.0173 25.1878 25.9039 25.4275Z" fill="#343330"/>
</svg>
