<svg width="32" height="32" viewBox="0 0 32 32" fill="none" xmlns="http://www.w3.org/2000/svg">
<path d="M26.6723 4.26002C26.476 4.08168 26.2169 3.9886 25.952 4.00126C25.6871 4.01392 25.4381 4.13128 25.2598 4.32752L24.6485 5.00002H15.9998C13.866 5.00149 11.7787 5.62352 9.99221 6.79033C8.20572 7.95714 6.79715 9.61835 5.93812 11.5716C5.07909 13.5248 4.80669 15.6857 5.1541 17.791C5.50151 19.8963 6.45374 21.8551 7.89476 23.4288L5.25976 26.3275C5.1696 26.4244 5.09955 26.5382 5.05369 26.6623C5.00782 26.7864 4.98705 26.9184 4.99257 27.0506C4.99809 27.1829 5.02981 27.3127 5.08587 27.4325C5.14193 27.5524 5.22122 27.6599 5.31915 27.7489C5.41708 27.8379 5.53171 27.9066 5.65637 27.951C5.78104 27.9954 5.91328 28.0146 6.04542 28.0075C6.17756 28.0003 6.30697 27.9671 6.42616 27.9096C6.54535 27.8521 6.65194 27.7715 6.73976 27.6725L9.37476 24.775C11.2803 26.2212 13.6075 27.0028 15.9998 27H24.9998C25.265 27 25.5193 26.8947 25.7069 26.7071C25.8944 26.5196 25.9998 26.2652 25.9998 26C25.9998 25.7348 25.8944 25.4804 25.7069 25.2929C25.5193 25.1054 25.265 25 24.9998 25H15.9998C14.1054 25.0013 12.2593 24.4018 10.7273 23.2875L26.7398 5.67252C26.9181 5.47625 27.0112 5.21718 26.9985 4.95229C26.9859 4.6874 26.8685 4.43839 26.6723 4.26002ZM6.99976 16C7.00241 13.6139 7.95147 11.3262 9.63873 9.63898C11.326 7.95173 13.6136 7.00267 15.9998 7.00002H22.8298L9.24976 21.9413C7.79937 20.3021 6.99904 18.1888 6.99976 16Z" fill="#343330"/>
</svg>
