<svg width="32" height="32" viewBox="0 0 32 32" fill="none" xmlns="http://www.w3.org/2000/svg">
<path d="M25.9998 24H10.0785L12.806 21H18.9998C20.5455 20.9989 22.0579 20.5501 23.354 19.7077C24.6501 18.8653 25.6744 17.6655 26.303 16.2533C26.9316 14.8411 27.1376 13.277 26.8961 11.7502C26.6547 10.2234 25.976 8.79925 24.9423 7.64998L26.7398 5.67248C26.9144 5.47563 27.0044 5.21789 26.9903 4.95513C26.9761 4.69237 26.859 4.44577 26.6642 4.2688C26.4695 4.09182 26.2129 3.99874 25.95 4.00972C25.687 4.02071 25.4391 4.13488 25.2598 4.32748L23.4285 6.34123C22.1177 5.46531 20.5763 4.99848 18.9998 4.99998H6.99976C6.73455 4.99998 6.48019 5.10533 6.29266 5.29287C6.10512 5.48041 5.99976 5.73476 5.99976 5.99998C5.99976 6.26519 6.10512 6.51955 6.29266 6.70708C6.48019 6.89462 6.73455 6.99998 6.99976 6.99998H18.9998C20.0785 6.99902 21.1373 7.29062 22.0635 7.84373L11.921 19H6.99976C6.73455 19 6.48019 19.1053 6.29266 19.2929C6.10512 19.4804 5.99976 19.7348 5.99976 20C5.99976 20.2652 6.10512 20.5195 6.29266 20.7071C6.48019 20.8946 6.73455 21 6.99976 21H10.1023L5.25976 26.3275C5.1696 26.4243 5.09955 26.5381 5.05369 26.6623C5.00782 26.7864 4.98705 26.9184 4.99257 27.0506C4.99809 27.1828 5.02981 27.3126 5.08587 27.4325C5.14193 27.5524 5.22122 27.6599 5.31915 27.7489C5.41708 27.8379 5.53171 27.9066 5.65637 27.951C5.78104 27.9953 5.91328 28.0145 6.04542 28.0074C6.17756 28.0003 6.30697 27.967 6.42616 27.9095C6.54535 27.852 6.65194 27.7715 6.73976 27.6725L8.25976 26H25.9998C26.265 26 26.5193 25.8946 26.7069 25.7071C26.8944 25.5195 26.9998 25.2652 26.9998 25C26.9998 24.7348 26.8944 24.4804 26.7069 24.2929C26.5193 24.1053 26.265 24 25.9998 24ZM23.5885 9.13998C24.3233 10.0143 24.7932 11.0803 24.9431 12.2125C25.093 13.3447 24.9166 14.4961 24.4348 15.5316C23.9529 16.567 23.1855 17.4434 22.2227 18.0578C21.26 18.6722 20.1419 18.9991 18.9998 19H14.6248L23.5885 9.13998Z" fill="#343330"/>
</svg>
