<svg width="32" height="32" viewBox="0 0 32 32" fill="none" xmlns="http://www.w3.org/2000/svg">
<path d="M17.9998 6V26C17.9998 26.2652 17.8944 26.5196 17.7069 26.7071C17.5194 26.8946 17.265 27 16.9998 27C16.7346 27 16.4802 26.8946 16.2927 26.7071C16.1051 26.5196 15.9998 26.2652 15.9998 26V7.76625L12.5148 9.8575C12.2874 9.99409 12.015 10.0347 11.7576 9.97051C11.5002 9.90628 11.2789 9.74243 11.1423 9.51501C11.0057 9.28758 10.965 9.01521 11.0293 8.75782C11.0935 8.50043 11.2574 8.27909 11.4848 8.1425L16.4848 5.1425C16.6365 5.05133 16.8098 5.00208 16.9868 4.99978C17.1638 4.99748 17.3383 5.04222 17.4924 5.12943C17.6464 5.21663 17.7746 5.34318 17.8637 5.49613C17.9529 5.64909 17.9998 5.82297 17.9998 6Z" fill="#343330"/>
</svg>
