<svg width="32" height="32" viewBox="0 0 32 32" fill="none" xmlns="http://www.w3.org/2000/svg">
<path d="M23.0001 20H21.0001V5.99999C21.0003 5.79265 20.936 5.5904 20.8162 5.4212C20.6963 5.25201 20.5269 5.12425 20.3312 5.05561C20.1356 4.98696 19.9234 4.98082 19.7242 5.03804C19.5249 5.09526 19.3483 5.21301 19.2189 5.37499L7.21889 20.375C7.1011 20.5221 7.02729 20.6995 7.00595 20.8867C6.9846 21.074 7.0166 21.2634 7.09826 21.4333C7.17992 21.6031 7.3079 21.7464 7.46747 21.8467C7.62703 21.947 7.81168 22.0001 8.00014 22H19.0001V26C19.0001 26.2652 19.1055 26.5196 19.293 26.7071C19.4806 26.8946 19.7349 27 20.0001 27C20.2654 27 20.5197 26.8946 20.7072 26.7071C20.8948 26.5196 21.0001 26.2652 21.0001 26V22H23.0001C23.2654 22 23.5197 21.8946 23.7072 21.7071C23.8948 21.5196 24.0001 21.2652 24.0001 21C24.0001 20.7348 23.8948 20.4804 23.7072 20.2929C23.5197 20.1053 23.2654 20 23.0001 20ZM19.0001 20H10.0801L19.0001 8.85124V20Z" fill="#343330"/>
</svg>
