<svg width="32" height="32" viewBox="0 0 32 32" fill="none" xmlns="http://www.w3.org/2000/svg">
<path d="M27.7786 16.3238C25.9649 18.5738 24.1736 19.7738 22.3036 19.97C22.1168 19.9898 21.929 19.9999 21.7411 20C19.3286 20 17.3174 18.3625 15.3661 16.775C13.5024 15.2575 11.7411 13.8238 9.9036 14.025C8.58985 14.1625 7.23985 15.115 5.7786 16.935C5.6079 17.1256 5.37064 17.2435 5.11565 17.2645C4.86065 17.2855 4.60732 17.2079 4.40778 17.0477C4.20824 16.8876 4.07767 16.6571 4.04295 16.4036C4.00822 16.1501 4.07198 15.8929 4.2211 15.685C6.03485 13.435 7.8261 12.235 9.6961 12.0388C12.3611 11.7575 14.5324 13.525 16.6311 15.2338C18.4949 16.7513 20.2561 18.1863 22.0936 17.9838C23.4074 17.8463 24.7574 16.8938 26.2186 15.0738C26.2978 14.9634 26.3987 14.8702 26.515 14.8001C26.6314 14.73 26.7609 14.6843 26.8955 14.6659C27.0301 14.6474 27.1671 14.6566 27.298 14.6929C27.429 14.7291 27.5511 14.7917 27.6571 14.8767C27.7631 14.9618 27.8506 15.0675 27.9143 15.1875C27.9781 15.3075 28.0167 15.4392 28.0278 15.5747C28.039 15.7101 28.0224 15.8463 27.9791 15.9751C27.9358 16.1039 27.8668 16.2226 27.7761 16.3238H27.7786Z" fill="#343330"/>
</svg>
