<svg width="32" height="32" viewBox="0 0 32 32" fill="none" xmlns="http://www.w3.org/2000/svg">
<path d="M20.5004 9.00001C19.6448 8.9995 18.7929 9.11428 17.9679 9.34126C17.6422 8.80989 17.2466 8.32471 16.7917 7.89876L17.9804 6.20251C18.0558 6.09491 18.1092 5.97352 18.1376 5.84528C18.166 5.71703 18.1689 5.58444 18.1461 5.45508C18.1233 5.32572 18.0753 5.20211 18.0047 5.09132C17.9341 4.98054 17.8424 4.88473 17.7348 4.80939C17.6272 4.73404 17.5058 4.68063 17.3776 4.65219C17.2493 4.62376 17.1167 4.62087 16.9874 4.64368C16.858 4.66648 16.7344 4.71455 16.6236 4.78513C16.5128 4.8557 16.417 4.94741 16.3417 5.05501L15.1529 6.75001C14.1754 6.25644 13.0955 5.99953 12.0004 6.00001C11.9279 6.00001 11.8554 6.00001 11.7829 6.00001L11.4217 3.96376C11.4027 3.83108 11.3573 3.70357 11.2881 3.5888C11.2188 3.47402 11.1273 3.37434 11.0188 3.29566C10.9102 3.21698 10.787 3.16092 10.6564 3.1308C10.5258 3.10068 10.3905 3.09712 10.2585 3.12034C10.1265 3.14356 10.0005 3.19307 9.88803 3.26594C9.77554 3.33881 9.67885 3.43355 9.6037 3.54453C9.52855 3.65551 9.47648 3.78046 9.45058 3.91196C9.42467 4.04346 9.42547 4.17883 9.45292 4.31001L9.81292 6.35251C8.70386 6.71933 7.70401 7.3574 6.90417 8.20876L5.20167 7.01751C5.09415 6.94032 4.97238 6.88523 4.84341 6.85545C4.71444 6.82567 4.58085 6.82179 4.45037 6.84404C4.31989 6.86628 4.19513 6.91421 4.08331 6.98503C3.9715 7.05586 3.87485 7.14818 3.79899 7.25665C3.72313 7.36511 3.66955 7.48755 3.64136 7.61687C3.61318 7.7462 3.61095 7.87983 3.6348 8.01003C3.65865 8.14022 3.70811 8.26438 3.78032 8.37531C3.85252 8.48625 3.94603 8.58174 4.05542 8.65626L5.75042 9.84626C5.25509 10.8236 4.99809 11.9043 5.00042 13C5.00042 13.0713 5.00042 13.1438 5.00042 13.215L2.96417 13.575C2.7177 13.6182 2.49638 13.7522 2.34388 13.9506C2.19139 14.149 2.11881 14.3973 2.14048 14.6466C2.16214 14.8959 2.27647 15.128 2.4609 15.2971C2.64532 15.4662 2.88645 15.56 3.13667 15.56C3.1949 15.5599 3.25303 15.5549 3.31042 15.545L5.35042 15.185C5.52966 15.7307 5.77569 16.2522 6.08292 16.7375C5.1264 17.626 4.45958 18.7819 4.16929 20.0546C3.879 21.3274 3.97869 22.6581 4.45538 23.8735C4.93207 25.0888 5.76367 26.1324 6.84188 26.8685C7.92009 27.6045 9.19494 27.9988 10.5004 28H20.5004C23.02 28 25.4363 26.9991 27.2179 25.2175C28.9995 23.4359 30.0004 21.0196 30.0004 18.5C30.0004 15.9805 28.9995 13.5641 27.2179 11.7825C25.4363 10.0009 23.02 9.00001 20.5004 9.00001ZM7.00042 13C7.00101 11.9411 7.33779 10.9097 7.96222 10.0545C8.58665 9.19922 9.46648 8.56431 10.4749 8.24123C11.4834 7.91816 12.5683 7.92358 13.5735 8.25674C14.5786 8.5899 15.4521 9.23357 16.0679 10.095C14.028 11.1685 12.4462 12.9448 11.6154 15.095C10.3008 14.8681 8.9483 15.05 7.74042 15.6163C7.25682 14.8293 7.00069 13.9237 7.00042 13ZM20.5004 26H10.5004C9.88495 25.9989 9.27625 25.8715 8.71197 25.6258C8.14769 25.38 7.63981 25.0211 7.21975 24.5713C6.79968 24.1215 6.47636 23.5903 6.26977 23.0105C6.06318 22.4307 5.97772 21.8148 6.01867 21.2006C6.05961 20.5865 6.2261 19.9874 6.50783 19.4402C6.78956 18.893 7.18054 18.4094 7.65661 18.0193C8.13268 17.6292 8.6837 17.3409 9.27561 17.1723C9.86753 17.0036 10.4877 16.9582 11.0979 17.0388C11.0517 17.335 11.0192 17.6375 11.0017 17.9425C10.9864 18.2077 11.0771 18.4681 11.2539 18.6665C11.4307 18.8648 11.679 18.9848 11.9442 19C12.2094 19.0153 12.4698 18.9245 12.6681 18.7478C12.8664 18.571 12.9864 18.3227 13.0017 18.0575C13.0297 17.5587 13.1085 17.0641 13.2367 16.5813C13.2367 16.5613 13.2479 16.5413 13.2517 16.5213C13.6192 15.1706 14.3571 13.9495 15.3819 12.996C16.4068 12.0425 17.6778 11.3946 19.0514 11.1253C20.4251 10.856 21.8467 10.9761 23.1557 11.472C24.4647 11.968 25.609 12.82 26.4593 13.932C27.3096 15.0439 27.8322 16.3714 27.9679 17.7646C28.1036 19.1579 27.8471 20.5613 27.2273 21.8164C26.6076 23.0715 25.6493 24.1284 24.4606 24.8677C23.2719 25.6069 21.9002 25.9991 20.5004 26Z" fill="#343330"/>
</svg>
