<svg width="32" height="32" viewBox="0 0 32 32" fill="none" xmlns="http://www.w3.org/2000/svg">
<path d="M27.9308 5.00865C27.9165 4.76401 27.8129 4.53313 27.6396 4.35984C27.4664 4.18656 27.2355 4.08294 26.9908 4.06865C17.4746 3.5099 9.85208 6.3749 6.60208 11.7499C5.47554 13.5885 4.9204 15.7203 5.00708 17.8749C5.07833 19.8649 5.65833 21.8749 6.73083 23.8562L4.29208 26.2937C4.10444 26.4813 3.99902 26.7358 3.99902 27.0012C3.99902 27.2665 4.10444 27.521 4.29208 27.7087C4.47972 27.8963 4.73422 28.0017 4.99958 28.0017C5.26494 28.0017 5.51944 27.8963 5.70708 27.7087L8.14458 25.2699C10.1246 26.3412 12.1358 26.9212 14.1246 26.9924C14.2637 26.9974 14.4025 26.9999 14.5408 26.9999C16.5555 27.0053 18.532 26.4505 20.2496 25.3974C25.6246 22.1474 28.4908 14.5262 27.9308 5.00865ZM19.2183 23.6874C16.3746 25.4099 13.0083 25.4374 9.62958 23.7837L20.7083 12.7062C20.8012 12.6132 20.8749 12.5029 20.9252 12.3815C20.9755 12.2602 21.0014 12.13 21.0014 11.9987C21.0014 11.8673 20.9755 11.7371 20.9252 11.6158C20.8749 11.4944 20.8012 11.3841 20.7083 11.2912C20.6154 11.1982 20.5051 11.1245 20.3837 11.0743C20.2623 11.024 20.1322 10.9981 20.0008 10.9981C19.8694 10.9981 19.7393 11.024 19.6179 11.0743C19.4965 11.1245 19.3862 11.1982 19.2933 11.2912L8.21583 22.3749C6.56708 18.9999 6.59083 15.6249 8.31208 12.7862C11.0733 8.2274 17.6371 5.73115 25.9758 6.02865C26.2746 14.3612 23.7771 20.9262 19.2183 23.6874Z" fill="#343330"/>
</svg>
