<svg width="32" height="32" viewBox="0 0 32 32" fill="none" xmlns="http://www.w3.org/2000/svg">
<path d="M29.192 17.7788C29.0638 17.6503 28.9029 17.5591 28.7267 17.515C28.5506 17.471 28.3657 17.4757 28.192 17.5288C26.2852 18.1053 24.2578 18.1536 22.3257 17.6686C20.3936 17.1837 18.6293 16.1837 17.2207 14.7751C15.8122 13.3665 14.8121 11.6022 14.3272 9.67013C13.8423 7.73804 13.8906 5.71059 14.467 3.8038C14.5205 3.63006 14.5257 3.44501 14.4819 3.26857C14.438 3.09213 14.347 2.93097 14.2184 2.80241C14.0899 2.67386 13.9287 2.58279 13.7523 2.53898C13.5758 2.49518 13.3908 2.5003 13.217 2.5538C10.5808 3.36136 8.26646 4.97979 6.60329 7.1788C5.1488 9.10987 4.2616 11.4083 4.04137 13.8158C3.82113 16.2233 4.27658 18.6445 5.35655 20.8074C6.43651 22.9703 8.09821 24.7893 10.155 26.0598C12.2117 27.3304 14.582 28.0023 16.9995 28.0001C19.82 28.0087 22.5654 27.0919 24.8145 25.3901C27.0135 23.7269 28.632 21.4125 29.4395 18.7763C29.4924 18.6032 29.4973 18.419 29.4537 18.2433C29.4102 18.0677 29.3197 17.9071 29.192 17.7788ZM23.612 23.7926C21.494 25.3879 18.8709 26.1644 16.2257 25.9792C13.5805 25.794 11.0913 24.6595 9.21621 22.7845C7.34113 20.9096 6.20643 18.4205 6.021 15.7753C5.83557 13.1301 6.61188 10.507 8.20704 8.3888C9.24629 7.01638 10.5899 5.90386 12.132 5.1388C12.0442 5.75533 11.9999 6.37729 11.9995 7.00005C12.0032 10.4467 13.374 13.7512 15.8112 16.1884C18.2484 18.6256 21.5528 19.9964 24.9995 20.0001C25.6235 19.9999 26.2468 19.9556 26.8645 19.8676C26.0988 21.41 24.9854 22.7536 23.612 23.7926Z" fill="#343330"/>
</svg>
