<svg width="32" height="32" viewBox="0 0 32 32" fill="none" xmlns="http://www.w3.org/2000/svg">
<path d="M28.6878 14.1251L20.7578 11.2426L17.8753 3.31257C17.7332 2.92982 17.4774 2.59971 17.1423 2.3666C16.8071 2.13349 16.4086 2.00854 16.0003 2.00854C15.592 2.00854 15.1936 2.13349 14.8584 2.3666C14.5232 2.59971 14.2674 2.92982 14.1253 3.31257L11.2428 11.2426L3.31282 14.1251C2.93006 14.2671 2.59996 14.523 2.36685 14.8581C2.13374 15.1933 2.00879 15.5918 2.00879 16.0001C2.00879 16.4083 2.13374 16.8068 2.36685 17.142C2.59996 17.4772 2.93006 17.733 3.31282 17.8751L11.2428 20.7588L14.1253 28.6876C14.2674 29.0703 14.5232 29.4004 14.8584 29.6335C15.1936 29.8667 15.592 29.9916 16.0003 29.9916C16.4086 29.9916 16.8071 29.8667 17.1423 29.6335C17.4774 29.4004 17.7332 29.0703 17.8753 28.6876L20.7591 20.7576L28.6878 17.8751C29.0706 17.733 29.4007 17.4772 29.6338 17.142C29.8669 16.8068 29.9918 16.4083 29.9918 16.0001C29.9918 15.5918 29.8669 15.1933 29.6338 14.8581C29.4007 14.523 29.0706 14.2671 28.6878 14.1251ZM19.6353 19.0376C19.4981 19.0875 19.3736 19.1669 19.2704 19.2701C19.1671 19.3733 19.0878 19.4979 19.0378 19.6351L16.0003 27.9876L12.9628 19.6351C12.9129 19.4979 12.8335 19.3733 12.7303 19.2701C12.6271 19.1669 12.5025 19.0875 12.3653 19.0376L4.01282 16.0001L12.3653 12.9626C12.5025 12.9126 12.6271 12.8333 12.7303 12.73C12.8335 12.6268 12.9129 12.5022 12.9628 12.3651L16.0003 4.01257L19.0378 12.3651C19.0878 12.5022 19.1671 12.6268 19.2704 12.73C19.3736 12.8333 19.4981 12.9126 19.6353 12.9626L27.9878 16.0001L19.6353 19.0376Z" fill="#343330"/>
</svg>
