<svg width="32" height="32" viewBox="0 0 32 32" fill="none" xmlns="http://www.w3.org/2000/svg">
<path d="M16.0001 14C14.8134 14 13.6534 14.3519 12.6667 15.0112C11.68 15.6705 10.911 16.6075 10.4568 17.7039C10.0027 18.8003 9.88389 20.0067 10.1154 21.1705C10.3469 22.3344 10.9184 23.4035 11.7575 24.2426C12.5966 25.0818 13.6657 25.6532 14.8296 25.8847C15.9935 26.1162 17.1999 25.9974 18.2962 25.5433C19.3926 25.0892 20.3296 24.3201 20.9889 23.3334C21.6482 22.3467 22.0001 21.1867 22.0001 20C21.9985 18.4092 21.3658 16.8841 20.2409 15.7592C19.1161 14.6343 17.5909 14.0017 16.0001 14ZM16.0001 24C15.209 24 14.4356 23.7654 13.7778 23.3259C13.12 22.8864 12.6073 22.2616 12.3046 21.5307C12.0018 20.7998 11.9226 19.9956 12.077 19.2196C12.2313 18.4437 12.6123 17.731 13.1717 17.1716C13.7311 16.6122 14.4438 16.2312 15.2198 16.0769C15.9957 15.9225 16.7999 16.0017 17.5308 16.3045C18.2618 16.6072 18.8865 17.1199 19.326 17.7777C19.7655 18.4355 20.0001 19.2089 20.0001 20C20.0001 21.0609 19.5787 22.0783 18.8285 22.8284C18.0784 23.5786 17.061 24 16.0001 24ZM26.3751 16.3325L22.6501 5.80875C22.1935 4.421 21.3141 3.2109 20.1352 2.34802C18.9563 1.48515 17.537 1.01276 16.0761 0.997048C14.6152 0.981337 13.1861 1.42309 11.9889 2.26041C10.7917 3.09773 9.88648 4.28864 9.40011 5.66625L5.71136 16.1038C5.08602 17.7589 4.8692 19.5406 5.07928 21.2974C5.28936 23.0543 5.92015 24.7346 6.91812 26.1957C7.91609 27.6567 9.2518 28.8555 10.8119 29.6903C12.372 30.525 14.1104 30.9711 15.8797 30.9907C17.649 31.0103 19.3969 30.6028 20.9751 29.8028C22.5533 29.0028 23.9152 27.8338 24.9452 26.3952C25.9753 24.9566 26.6431 23.2907 26.8921 21.5389C27.141 19.7871 26.9637 18.0011 26.3751 16.3325ZM16.0001 29C14.5429 28.999 13.1077 28.6444 11.8176 27.9667C10.5276 27.289 9.42126 26.3084 8.59361 25.109C7.76596 23.9096 7.2417 22.5273 7.06582 21.0807C6.88995 19.6342 7.06771 18.1665 7.58386 16.8038C7.58623 16.7961 7.58916 16.7885 7.59261 16.7813L11.2851 6.3325C11.6326 5.34761 12.2799 4.49628 13.1359 3.89799C13.992 3.29971 15.0139 2.98451 16.0583 2.99664C17.1026 3.00878 18.1169 3.34763 18.9589 3.96565C19.8008 4.58366 20.4281 5.44981 20.7526 6.4425L20.7601 6.465L24.4876 17C24.9661 18.3577 25.1122 19.8102 24.9137 21.236C24.7151 22.6618 24.1777 24.0192 23.3464 25.1944C22.5152 26.3697 21.4143 27.3286 20.1361 27.9907C18.8579 28.6528 17.4396 28.9989 16.0001 29Z" fill="#343330"/>
</svg>
