<svg width="32" height="32" viewBox="0 0 32 32" fill="none" xmlns="http://www.w3.org/2000/svg">
<path d="M31.8939 12.215C31.7743 11.8586 31.5566 11.5432 31.2659 11.3048C30.9752 11.0665 30.6231 10.9149 30.2502 10.8675C27.9683 10.5609 25.7721 9.79555 23.7939 8.61751L25.0827 7.33001C25.6256 6.7362 25.9186 5.95584 25.9006 5.15142C25.8827 4.34701 25.5551 3.58053 24.9861 3.01158C24.4172 2.44262 23.6507 2.11505 22.8463 2.09706C22.0419 2.07908 21.2615 2.37206 20.6677 2.91501L19.0177 4.56626C18.7264 4.21626 18.5414 3.96126 18.4664 3.85501C18.2991 3.61587 18.0813 3.41628 17.8286 3.27023C17.5759 3.12419 17.2942 3.03524 17.0034 3.00963C16.7127 2.98402 16.4198 3.02236 16.1454 3.12198C15.8711 3.2216 15.6218 3.38007 15.4152 3.58626L10.5852 8.42001C10.3792 8.62653 10.2208 8.87563 10.1212 9.14983C10.0216 9.42403 9.98323 9.71669 10.0087 10.0073C10.0342 10.2979 10.123 10.5794 10.2687 10.8321C10.4145 11.0848 10.6139 11.3025 10.8527 11.47C10.9602 11.545 11.2152 11.73 11.5652 12.0213L0.913942 22.6713C0.370992 23.2651 0.078009 24.0454 0.0959967 24.8498C0.113984 25.6543 0.441556 26.4207 1.01051 26.9897C1.57946 27.5586 2.34594 27.8862 3.15035 27.9042C3.95477 27.9222 4.73513 27.6292 5.32894 27.0863L15.6164 16.7975C16.7939 18.7759 17.5593 20.972 17.8664 23.2538C17.9144 23.6259 18.0661 23.977 18.3042 24.267C18.5422 24.557 18.8571 24.7742 19.2127 24.8938C19.4201 24.9637 19.6375 24.9996 19.8564 25C20.1181 24.9999 20.3772 24.948 20.6187 24.8474C20.8603 24.7468 21.0796 24.5994 21.2639 24.4138L31.4114 14.265C31.6763 14.0031 31.8621 13.6719 31.9474 13.3094C32.0327 12.9468 32.0142 12.5675 31.8939 12.215ZM22.0864 4.32876C22.1867 4.20934 22.3108 4.11207 22.4507 4.04314C22.5906 3.97421 22.7433 3.93512 22.8991 3.92835C23.0549 3.92159 23.2104 3.94729 23.3558 4.00383C23.5011 4.06037 23.6331 4.14652 23.7434 4.2568C23.8537 4.36708 23.9398 4.49908 23.9964 4.64443C24.0529 4.78978 24.0786 4.9453 24.0718 5.10111C24.0651 5.25692 24.026 5.40962 23.9571 5.54952C23.8881 5.68942 23.7909 5.81346 23.6714 5.91376L22.1027 7.48251C21.5029 7.03128 20.9302 6.54502 20.3877 6.02626L22.0864 4.32876ZM3.91394 25.6713C3.81364 25.7907 3.6896 25.8879 3.5497 25.9569C3.4098 26.0258 3.2571 26.0649 3.10129 26.0717C2.94548 26.0784 2.78996 26.0527 2.64461 25.9962C2.49926 25.9396 2.36726 25.8535 2.25698 25.7432C2.1467 25.6329 2.06056 25.5009 2.00401 25.3556C1.94747 25.2102 1.92177 25.0547 1.92854 24.8989C1.9353 24.7431 1.97439 24.5904 2.04332 24.4505C2.11225 24.3106 2.20952 24.1866 2.32894 24.0863L13.0264 13.3888C13.5455 13.9305 14.0318 14.5028 14.4827 15.1025L3.91394 25.6713ZM19.8502 22.99C18.7502 14.7863 12.6902 10.315 12.0002 9.83376L16.8327 5.00001C17.3152 5.68751 21.7864 11.75 29.9889 12.8475L19.8502 22.99Z" fill="#343330"/>
</svg>
