<svg width="32" height="32" viewBox="0 0 32 32" fill="none" xmlns="http://www.w3.org/2000/svg">
<path d="M30.7077 5.29251L26.7077 1.29251C26.5201 1.10487 26.2656 0.999451 26.0002 0.999451C25.7348 0.999451 25.4803 1.10487 25.2927 1.29251C25.105 1.48015 24.9996 1.73464 24.9996 2.00001C24.9996 2.26537 25.105 2.51987 25.2927 2.70751L25.4777 2.89126L18.5814 8.06376L13.8039 9.02001C13.6105 9.05876 13.4327 9.15352 13.2927 9.29251L2.87519 19.7075C2.31263 20.2701 1.99658 21.0331 1.99658 21.8288C1.99658 22.6244 2.31263 23.3874 2.87519 23.95L8.05019 29.125C8.61279 29.6876 9.37583 30.0036 10.1714 30.0036C10.9671 30.0036 11.7301 29.6876 12.2927 29.125L22.7077 18.7113C22.847 18.5715 22.9418 18.3936 22.9802 18.2L23.9364 13.4225L29.1089 6.52626L29.2927 6.71126C29.3856 6.80417 29.4959 6.87787 29.6173 6.92815C29.7387 6.97843 29.8688 7.00431 30.0002 7.00431C30.1316 7.00431 30.2617 6.97843 30.3831 6.92815C30.5045 6.87787 30.6148 6.80417 30.7077 6.71126C30.8006 6.61835 30.8743 6.50805 30.9246 6.38665C30.9749 6.26526 31.0007 6.13515 31.0007 6.00376C31.0007 5.87236 30.9749 5.74225 30.9246 5.62086C30.8743 5.49947 30.8006 5.38917 30.7077 5.29626V5.29251ZM12.0002 13.4138L18.5864 20L13.0002 25.5863L6.41394 19L12.0002 13.4138ZM10.1714 28C10.0402 28.0004 9.91025 27.9747 9.78903 27.9245C9.6678 27.8743 9.55773 27.8005 9.46519 27.7075L4.29269 22.535C4.1053 22.3475 4.00003 22.0932 4.00003 21.8281C4.00003 21.563 4.1053 21.3088 4.29269 21.1213L5.00019 20.4138L11.5864 27L10.8752 27.7075C10.6884 27.8941 10.4354 27.9992 10.1714 28ZM22.2002 12.4C22.1105 12.5193 22.049 12.6573 22.0202 12.8038L21.0789 17.5075L20.0002 18.5863L13.4139 12L14.4927 10.9213L19.1964 9.98001C19.3429 9.9512 19.4809 9.88967 19.6002 9.80001L26.9064 4.32001L27.6802 5.09376L22.2002 12.4Z" fill="#343330"/>
</svg>
