<svg width="32" height="32" viewBox="0 0 32 32" fill="none" xmlns="http://www.w3.org/2000/svg">
<path d="M29.9998 14C29.9978 12.1441 29.2597 10.3648 27.9473 9.05244C26.635 7.74011 24.8557 7.00198 22.9998 6.99999C22.7785 6.99999 22.5573 7.01249 22.3385 7.03249C21.7741 5.82784 20.8781 4.80897 19.7555 4.09521C18.6329 3.38146 17.3301 3.00238 15.9998 3.00238C14.6695 3.00238 13.3667 3.38146 12.2441 4.09521C11.1214 4.80897 10.2254 5.82784 9.66103 7.03249C9.44228 7.01249 9.22103 6.99999 8.99978 6.99999C7.41075 7.00038 5.86914 7.54139 4.62837 8.5341C3.38759 9.52681 2.52149 10.9121 2.17244 12.4624C1.82339 14.0126 2.01217 15.6354 2.70773 17.0641C3.4033 18.4928 4.56426 19.6423 5.99978 20.3237V26C5.99978 26.5304 6.21049 27.0391 6.58556 27.4142C6.96063 27.7893 7.46934 28 7.99978 28H23.9998C24.5302 28 25.0389 27.7893 25.414 27.4142C25.7891 27.0391 25.9998 26.5304 25.9998 26V20.3237C27.1956 19.755 28.206 18.8592 28.9139 17.7401C29.6218 16.6209 29.9983 15.3242 29.9998 14ZM23.9998 26H7.99978V20.9275C8.33092 20.9757 8.66513 21 8.99978 21H22.9998C23.3344 21 23.6686 20.9757 23.9998 20.9275V26ZM22.9998 19H21.281L21.9698 16.2425C22.029 15.987 21.9855 15.7185 21.8487 15.4948C21.7118 15.2711 21.4926 15.1101 21.2382 15.0465C20.9837 14.9829 20.7145 15.0218 20.4885 15.1547C20.2625 15.2877 20.0977 15.5042 20.0298 15.7575L19.2185 19H16.9998V16C16.9998 15.7348 16.8944 15.4804 16.7069 15.2929C16.5193 15.1053 16.265 15 15.9998 15C15.7346 15 15.4802 15.1053 15.2927 15.2929C15.1051 15.4804 14.9998 15.7348 14.9998 16V19H12.781L11.9698 15.7575C11.9398 15.6282 11.8843 15.5061 11.8067 15.3984C11.729 15.2907 11.6307 15.1996 11.5174 15.1303C11.4042 15.061 11.2783 15.015 11.147 14.9949C11.0158 14.9748 10.8819 14.981 10.7531 15.0132C10.6243 15.0454 10.5032 15.1029 10.3969 15.1824C10.2905 15.2619 10.2011 15.3618 10.1337 15.4762C10.0664 15.5907 10.0226 15.7173 10.0047 15.8489C9.98685 15.9805 9.99537 16.1143 10.0298 16.2425L10.7185 19H8.99978C7.67369 19 6.40192 18.4732 5.46424 17.5355C4.52656 16.5978 3.99978 15.3261 3.99978 14C3.99978 12.6739 4.52656 11.4021 5.46424 10.4645C6.40192 9.52677 7.67369 8.99999 8.99978 8.99999H9.07228C9.0239 9.33112 8.99966 9.66534 8.99978 9.99999C8.99978 10.2652 9.10513 10.5196 9.29267 10.7071C9.48021 10.8946 9.73456 11 9.99978 11C10.265 11 10.5193 10.8946 10.7069 10.7071C10.8944 10.5196 10.9998 10.2652 10.9998 9.99999C10.9998 8.67391 11.5266 7.40214 12.4642 6.46446C13.4019 5.52677 14.6737 4.99999 15.9998 4.99999C17.3259 4.99999 18.5976 5.52677 19.5353 6.46446C20.473 7.40214 20.9998 8.67391 20.9998 9.99999C20.9998 10.2652 21.1051 10.5196 21.2927 10.7071C21.4802 10.8946 21.7346 11 21.9998 11C22.265 11 22.5193 10.8946 22.7069 10.7071C22.8944 10.5196 22.9998 10.2652 22.9998 9.99999C22.9999 9.66534 22.9757 9.33112 22.9273 8.99999H22.9998C24.3259 8.99999 25.5976 9.52677 26.5353 10.4645C27.473 11.4021 27.9998 12.6739 27.9998 14C27.9998 15.3261 27.473 16.5978 26.5353 17.5355C25.5976 18.4732 24.3259 19 22.9998 19Z" fill="#343330"/>
</svg>
