<svg width="32" height="32" viewBox="0 0 32 32" fill="none" xmlns="http://www.w3.org/2000/svg">
<path d="M26.4689 5.53127C24.3752 3.43377 21.2964 2.59877 17.8077 3.18002C14.4439 3.74127 11.0739 5.56627 8.32016 8.32002C5.56641 11.0738 3.74141 14.445 3.18016 17.8075C2.59891 21.2963 3.43016 24.3713 5.53141 26.4688C7.19266 28.1313 9.46891 29 12.0777 29C12.7864 28.998 13.4938 28.9378 14.1927 28.82C17.5564 28.2588 20.9264 26.4338 23.6802 23.68C26.4339 20.9263 28.2589 17.555 28.8202 14.1925C29.4014 10.7038 28.5664 7.62502 26.4689 5.53127ZM9.73391 9.73377C12.8202 6.64877 16.6252 4.99127 19.8939 4.99127C21.1519 4.9721 22.3957 5.25818 23.5189 5.82502C22.118 6.31377 20.8069 7.02911 19.6377 7.94252C17.2377 9.83752 15.6839 12.4825 15.0202 15.8038C13.8052 21.8763 9.43266 23.9513 6.58516 24.6588C3.58891 21.095 4.92516 14.5438 9.73391 9.73377ZM22.2664 22.2663C17.9302 26.6013 12.1777 28.1138 8.47641 26.175C9.87883 25.6863 11.1917 24.971 12.3627 24.0575C14.7627 22.1625 16.3164 19.5175 16.9802 16.1963C18.1952 10.1238 22.5677 8.04877 25.4152 7.34127C28.4114 10.905 27.0752 17.4563 22.2664 22.2663Z" fill="#343330"/>
</svg>
