<svg width="32" height="32" viewBox="0 0 32 32" fill="none" xmlns="http://www.w3.org/2000/svg">
<path d="M27.7864 15.3825L16.7864 1.38252C16.6928 1.26346 16.5735 1.1672 16.4373 1.10101C16.3011 1.03482 16.1516 1.00043 16.0002 1.00043C15.8487 1.00043 15.6993 1.03482 15.5631 1.10101C15.4269 1.1672 15.3075 1.26346 15.2139 1.38252L4.21392 15.3825C4.07564 15.5587 4.00049 15.7761 4.00049 16C4.00049 16.2239 4.07564 16.4414 4.21392 16.6175L15.2139 30.6175C15.3075 30.7366 15.4269 30.8328 15.5631 30.899C15.6993 30.9652 15.8487 30.9996 16.0002 30.9996C16.1516 30.9996 16.3011 30.9652 16.4373 30.899C16.5735 30.8328 16.6928 30.7366 16.7864 30.6175L27.7864 16.6175C27.9247 16.4414 27.9998 16.2239 27.9998 16C27.9998 15.7761 27.9247 15.5587 27.7864 15.3825ZM17.0002 4.89127L25.4277 15.6163L17.0002 19.4475V4.89127ZM15.0002 19.4475L6.57267 15.6163L15.0002 4.89127V19.4475ZM15.0002 21.6438V27.1088L8.32142 18.6088L15.0002 21.6438ZM17.0002 21.6438L23.6789 18.6075L17.0002 27.1075V21.6438Z" fill="#343330"/>
</svg>
