<svg width="32" height="32" viewBox="0 0 32 32" fill="none" xmlns="http://www.w3.org/2000/svg">
<path d="M6.73976 4.32745C6.65194 4.22846 6.54535 4.14788 6.42616 4.09039C6.30697 4.03289 6.17756 3.99963 6.04542 3.99252C5.91328 3.98541 5.78104 4.0046 5.65637 4.04897C5.53171 4.09335 5.41708 4.16202 5.31915 4.25102C5.22122 4.34002 5.14193 4.44757 5.08587 4.56744C5.02981 4.68731 4.99809 4.81712 4.99257 4.94933C4.98705 5.08155 5.00782 5.21355 5.05369 5.33767C5.09955 5.4618 5.1696 5.57559 5.25976 5.67245L6.47601 7.0112C6.31768 7.0037 6.15893 6.99995 5.99976 6.99995C5.73455 6.99995 5.48019 7.10531 5.29266 7.29284C5.10512 7.48038 4.99976 7.73473 4.99976 7.99995V18C5.00307 20.9163 6.16306 23.7123 8.22524 25.7745C10.2874 27.8367 13.0834 28.9966 15.9998 29C18.856 29.0022 21.6007 27.891 23.651 25.9025L25.2598 27.6725C25.3476 27.7714 25.4542 27.852 25.5734 27.9095C25.6926 27.967 25.822 28.0003 25.9541 28.0074C26.0862 28.0145 26.2185 27.9953 26.3432 27.9509C26.4678 27.9065 26.5824 27.8379 26.6804 27.7489C26.7783 27.6599 26.8576 27.5523 26.9137 27.4325C26.9697 27.3126 27.0014 27.1828 27.007 27.0506C27.0125 26.9184 26.9917 26.7864 26.9458 26.6622C26.9 26.5381 26.8299 26.4243 26.7398 26.3274L6.73976 4.32745ZM17.036 18.625C16.6349 19.1898 16.288 19.7912 15.9998 20.4212C15.1919 18.6616 13.9346 17.1459 12.3547 16.0268C10.7747 14.9076 8.92773 14.2245 6.99976 14.0462V9.05495C7.55854 9.11732 8.11017 9.23241 8.64726 9.3987L17.036 18.625ZM14.9998 26.945C12.8006 26.6963 10.7699 25.6472 9.29449 23.9976C7.81913 22.3479 7.00233 20.2131 6.99976 18V16.0549C9.1989 16.3036 11.2297 17.3527 12.705 19.0023C14.1804 20.652 14.9972 22.7868 14.9998 25V26.945ZM16.9998 26.945V25C17.0006 23.2805 17.4933 21.5972 18.4198 20.1487L22.3048 24.4225C20.8692 25.8342 19.0009 26.7225 16.9998 26.945ZM26.9998 18C27.0003 18.9882 26.8679 19.972 26.606 20.9249C26.548 21.1361 26.4223 21.3223 26.2482 21.4551C26.0741 21.5879 25.8612 21.6598 25.6423 21.66C25.5519 21.6608 25.4619 21.649 25.3748 21.625C25.1192 21.5546 24.9021 21.3856 24.7711 21.1552C24.6401 20.9248 24.6059 20.6518 24.676 20.3962C24.8904 19.6155 24.9993 18.8096 24.9998 18V16.0537C23.9294 16.1705 22.8891 16.481 21.9298 16.9699C21.8123 17.0341 21.6831 17.0741 21.5499 17.0874C21.4167 17.1008 21.2822 17.0872 21.1543 17.0476C21.0264 17.008 20.9078 16.9431 20.8055 16.8568C20.7032 16.7705 20.6192 16.6645 20.5586 16.5451C20.498 16.4257 20.462 16.2954 20.4527 16.1619C20.4434 16.0283 20.461 15.8943 20.5045 15.7677C20.5479 15.641 20.6164 15.5245 20.7058 15.4248C20.7951 15.3251 20.9036 15.2444 21.0248 15.1874C22.2641 14.5548 23.6137 14.1669 24.9998 14.0449V9.0562C23.7535 9.19791 22.5504 9.59737 21.4669 10.2292C20.3833 10.861 19.4431 11.7114 18.706 12.7262C18.6289 12.8329 18.5316 12.9234 18.4196 12.9925C18.3075 13.0615 18.183 13.1079 18.0531 13.1288C17.9231 13.1498 17.7903 13.1449 17.6622 13.1146C17.5342 13.0842 17.4133 13.0289 17.3066 12.9518C17.1999 12.8748 17.1095 12.7774 17.0404 12.6654C16.9713 12.5534 16.925 12.4288 16.904 12.2989C16.8831 12.1689 16.8879 12.0361 16.9183 11.9081C16.9486 11.78 17.0039 11.6591 17.081 11.5524C17.9286 10.3851 18.9971 9.39555 20.226 8.63995C19.0773 6.22495 16.931 4.71745 15.9998 4.14995C14.9024 4.82537 13.9157 5.6661 13.0748 6.64245C12.9913 6.74695 12.8878 6.83365 12.7703 6.89743C12.6528 6.96122 12.5236 7.00078 12.3906 7.01379C12.2575 7.0268 12.1231 7.01298 11.9955 6.97317C11.8678 6.93335 11.7495 6.86833 11.6474 6.78197C11.5453 6.6956 11.4616 6.58964 11.4012 6.47035C11.3407 6.35106 11.3049 6.22087 11.2957 6.08747C11.2864 5.95408 11.3041 5.82019 11.3475 5.69372C11.3909 5.56726 11.4593 5.45079 11.5485 5.3512C12.6699 4.03033 14.0261 2.92843 15.5485 2.1012C15.6874 2.03168 15.8407 1.99548 15.996 1.99548C16.1514 1.99548 16.3046 2.03168 16.4435 2.1012C16.6085 2.1837 20.2273 4.02995 22.0173 7.74495C23.2871 7.25192 24.6376 6.99929 25.9998 6.99995C26.265 6.99995 26.5193 7.10531 26.7069 7.29284C26.8944 7.48038 26.9998 7.73473 26.9998 7.99995V18Z" fill="#343330"/>
</svg>
