<svg width="32" height="32" viewBox="0 0 32 32" fill="none" xmlns="http://www.w3.org/2000/svg">
<path d="M29.6636 15.0662L22.8749 4.89C22.6927 4.61691 22.446 4.39286 22.1567 4.23765C21.8675 4.08243 21.5444 4.00081 21.2161 4H10.7836C10.4553 4.00081 10.1323 4.08243 9.84298 4.23765C9.5537 4.39286 9.30707 4.61691 9.12486 4.89L2.33611 15.0662C2.17733 15.3041 2.0714 15.5732 2.02548 15.8555C1.97955 16.1378 1.99468 16.4266 2.06986 16.7025L4.74986 26.5263C4.86527 26.9494 5.11658 27.3229 5.4651 27.5892C5.81361 27.8555 6.24001 27.9998 6.67861 28H9.99986C10.5303 28 11.039 27.7893 11.4141 27.4142C11.7892 27.0391 11.9999 26.5304 11.9999 26V24H19.9999V26C19.9999 26.5304 20.2106 27.0391 20.5857 27.4142C20.9607 27.7893 21.4694 28 21.9999 28H25.3211C25.7597 27.9998 26.1861 27.8555 26.5346 27.5892C26.8831 27.3229 27.1345 26.9494 27.2499 26.5263L29.9299 16.7025C30.005 16.4266 30.0202 16.1378 29.9743 15.8555C29.9283 15.5732 29.8224 15.3041 29.6636 15.0662ZM9.99986 22V8.625L12.9999 10.3938V17C12.9999 17.2652 13.1052 17.5196 13.2928 17.7071C13.4803 17.8946 13.7346 18 13.9999 18C14.2651 18 14.5194 17.8946 14.707 17.7071C14.8945 17.5196 14.9999 17.2652 14.9999 17V11.5712L15.4924 11.8612C15.6462 11.9518 15.8214 11.9996 15.9999 11.9996C16.1783 11.9996 16.3536 11.9518 16.5074 11.8612L16.9999 11.5712V16C16.9999 16.2652 17.1052 16.5196 17.2928 16.7071C17.4803 16.8946 17.7346 17 17.9999 17C18.2651 17 18.5194 16.8946 18.707 16.7071C18.8945 16.5196 18.9999 16.2652 18.9999 16V10.3925L21.9999 8.625V22H9.99986ZM21.2161 6L21.5811 6.54875L15.9999 9.83875L10.4186 6.54875L10.7836 6H21.2161ZM9.99986 26H6.67861L3.99986 16.1763L7.99986 10.1763V22C7.99986 22.5304 8.21058 23.0391 8.58565 23.4142C8.96072 23.7893 9.46943 24 9.99986 24V26ZM25.3211 26H21.9999V24C22.5303 24 23.039 23.7893 23.4141 23.4142C23.7892 23.0391 23.9999 22.5304 23.9999 22V10.1763L27.9999 16.1763L25.3211 26Z" fill="#343330"/>
</svg>
