<svg width="32" height="32" viewBox="0 0 32 32" fill="none" xmlns="http://www.w3.org/2000/svg">
<path d="M28.9839 4.01629C28.3315 3.36563 27.4478 3.00024 26.5264 3.00024C25.605 3.00024 24.7213 3.36563 24.0689 4.01629L2.29264 25.8C2.16649 25.9263 2.07642 26.084 2.03178 26.2568C1.98714 26.4296 1.98957 26.6112 2.0388 26.7827C2.08803 26.9543 2.18228 27.1095 2.31176 27.2324C2.44124 27.3552 2.60124 27.4412 2.77514 27.4813C4.25893 27.8252 5.77702 27.9993 7.30014 28C11.4189 28 15.5401 26.725 19.4189 24.2213C23.3889 21.6588 25.6926 18.7438 25.7939 18.62C25.9446 18.4277 26.0196 18.1869 26.0049 17.943C25.9902 17.6991 25.8866 17.4691 25.7139 17.2963L23.1651 14.75L28.9839 8.93004C29.6339 8.27756 29.9988 7.39412 29.9988 6.47316C29.9988 5.5522 29.6339 4.66876 28.9839 4.01629ZM23.6376 18.055C22.0515 19.7837 20.2511 21.3026 18.2801 22.575C13.9764 25.3375 9.53764 26.44 5.05889 25.8625L18.2501 12.6663L23.6376 18.055ZM27.5701 7.51754L21.7501 13.3375L19.6651 11.25L25.4839 5.43004C25.7605 5.15338 26.1358 4.99796 26.527 4.99796C26.9183 4.99796 27.2935 5.15338 27.5701 5.43004C27.8468 5.70669 28.0022 6.08191 28.0022 6.47316C28.0022 6.86441 27.8468 7.23963 27.5701 7.51629V7.51754Z" fill="#343330"/>
</svg>
