<svg width="32" height="32" viewBox="0 0 32 32" fill="none" xmlns="http://www.w3.org/2000/svg">
<path d="M27.9852 26.75L25.2352 4.75C25.1743 4.26657 24.939 3.822 24.5735 3.49977C24.208 3.17755 23.7375 2.99983 23.2502 3H8.7502C8.26294 2.99983 7.79239 3.17755 7.42689 3.49977C7.0614 3.822 6.82611 4.26657 6.7652 4.75L4.0152 26.75C3.97972 27.0316 4.00458 27.3175 4.08812 27.5887C4.17167 27.86 4.31198 28.1103 4.49974 28.3231C4.6875 28.536 4.9184 28.7064 5.17711 28.8231C5.43581 28.9398 5.71639 29.0001 6.0002 29H11.0864C11.5312 29.0001 11.9633 28.8519 12.3145 28.5789C12.6656 28.3059 12.9157 27.9236 13.0252 27.4925L16.0002 15.9925L18.9739 27.485C19.0821 27.9177 19.3318 28.3018 19.6833 28.5763C20.0348 28.8508 20.468 28.9999 20.9139 29H26.0002C26.284 29.0001 26.5646 28.9398 26.8233 28.8231C27.082 28.7064 27.3129 28.536 27.5007 28.3231C27.6884 28.1103 27.8287 27.86 27.9123 27.5887C27.9958 27.3175 28.0207 27.0316 27.9852 26.75ZM24.1127 11.9C23.3973 11.7358 22.7405 11.3786 22.2138 10.8674C21.6871 10.3561 21.3106 9.71024 21.1252 9H23.7502L24.1127 11.9ZM23.2502 5L23.5002 7H8.5002L8.7502 5H23.2502ZM8.2502 9H10.8752C10.6898 9.71024 10.3133 10.3561 9.78658 10.8674C9.25988 11.3786 8.60313 11.7358 7.8877 11.9L8.2502 9ZM11.0864 27H6.0002L7.6252 13.9663C8.92766 13.828 10.1493 13.268 11.1042 12.3715C12.0591 11.475 12.695 10.2912 12.9152 9H15.0002V11.875L11.0864 27ZM20.9114 26.9925L17.0002 11.875V9H19.0852C19.3053 10.2912 19.9413 11.475 20.8962 12.3715C21.8511 13.268 23.0727 13.828 24.3752 13.9663L26.0002 27L20.9114 26.9925Z" fill="#343330"/>
</svg>
