<svg width="32" height="32" viewBox="0 0 32 32" fill="none" xmlns="http://www.w3.org/2000/svg">
<path d="M30.8327 15.445L25.1252 6.89C24.9428 6.61673 24.696 6.39258 24.4065 6.23735C24.117 6.08213 23.7937 6.00061 23.4652 6H4.00016C3.81908 5.99988 3.64136 6.04894 3.48597 6.14193C3.33059 6.23493 3.20337 6.36837 3.11791 6.52801C3.03244 6.68766 2.99192 6.86752 3.00068 7.04839C3.00945 7.22927 3.06716 7.40436 3.16766 7.555L8.79891 16L3.17391 24.445C3.0737 24.5952 3.01602 24.7697 3.007 24.9501C2.99798 25.1304 3.03795 25.3098 3.12267 25.4692C3.20739 25.6287 3.33371 25.7622 3.4882 25.8557C3.64269 25.9491 3.81961 25.999 4.00016 26H23.4652C23.7937 25.9994 24.117 25.9179 24.4065 25.7626C24.696 25.6074 24.9428 25.3833 25.1252 25.11L30.8289 16.555C30.9391 16.391 30.9983 16.1981 30.9989 16.0006C30.9996 15.803 30.9417 15.6097 30.8327 15.445ZM23.4652 24H5.87516L10.8389 16.555C10.9486 16.3907 11.0071 16.1975 11.0071 16C11.0071 15.8025 10.9486 15.6093 10.8389 15.445L5.87516 8H23.4652L28.7989 16L23.4652 24Z" fill="#343330"/>
</svg>
