<svg width="32" height="32" viewBox="0 0 32 32" fill="none" xmlns="http://www.w3.org/2000/svg">
<path d="M28.3452 8.62495C28.2846 8.47502 28.1885 8.34204 28.0651 8.23742C27.9418 8.1328 27.7949 8.05965 27.6371 8.02425C27.4793 7.98886 27.3152 7.99227 27.159 8.03419C27.0028 8.07611 26.8591 8.15529 26.7402 8.26495L21.7027 12.9137L19.549 12.4512L19.0865 10.2974L23.7352 5.25995C23.8449 5.14106 23.9241 4.99736 23.966 4.84115C24.0079 4.68494 24.0113 4.5209 23.9759 4.36309C23.9405 4.20527 23.8674 4.0584 23.7628 3.93506C23.6581 3.81173 23.5252 3.71561 23.3752 3.65495C22.0089 3.10224 20.5277 2.89355 19.0619 3.04722C17.596 3.20089 16.1904 3.71221 14.9684 4.53626C13.7463 5.36031 12.7454 6.47187 12.0535 7.77326C11.3616 9.07466 11 10.5261 11.0002 11.9999C10.9986 13.2445 11.254 14.4761 11.7502 15.6174L4.22399 22.1249C4.20524 22.1399 4.18774 22.1574 4.17024 22.1737C3.42001 22.9239 2.99854 23.9415 2.99854 25.0024C2.99854 25.5278 3.10201 26.048 3.30305 26.5334C3.50409 27.0187 3.79877 27.4597 4.17024 27.8312C4.54172 28.2027 4.98273 28.4973 5.46808 28.6984C5.95344 28.8994 6.47364 29.0029 6.99899 29.0029C8.05998 29.0029 9.07751 28.5814 9.82774 27.8312C9.84399 27.8149 9.86149 27.7962 9.87649 27.7787L16.3827 20.2499C17.7533 20.8516 19.2522 21.1019 20.7439 20.9782C22.2355 20.8545 23.6728 20.3608 24.9255 19.5417C26.1783 18.7226 27.207 17.6039 27.9184 16.2871C28.6299 14.9702 29.0017 13.4967 29.0002 11.9999C29.0022 10.8432 28.7797 9.69701 28.3452 8.62495ZM20.0002 18.9999C18.8166 18.9983 17.6526 18.6973 16.6165 18.1249C16.4158 18.0141 16.183 17.9755 15.9573 18.0158C15.7315 18.0561 15.5265 18.1727 15.3765 18.3462L8.38899 26.4387C8.01087 26.7979 7.50737 26.9953 6.98584 26.9886C6.46432 26.9819 5.96604 26.7718 5.59724 26.403C5.22843 26.0342 5.01829 25.5359 5.01161 25.0143C5.00494 24.4928 5.20225 23.9893 5.56149 23.6112L13.6477 16.6249C13.8215 16.4749 13.9383 16.2696 13.9786 16.0436C14.0189 15.8176 13.9802 15.5846 13.869 15.3837C13.2315 14.2307 12.9324 12.9213 13.0059 11.6059C13.0794 10.2905 13.5227 9.0226 14.2847 7.94789C15.0467 6.87318 16.0965 6.03532 17.3134 5.53063C18.5304 5.02595 19.8651 4.87494 21.164 5.09495L17.264 9.3212C17.1555 9.43891 17.0768 9.58096 17.0346 9.7354C16.9924 9.88984 16.9879 10.0522 17.0215 10.2087L17.729 13.4999C17.7695 13.6882 17.8634 13.8607 17.9996 13.9969C18.1357 14.133 18.3083 14.227 18.4965 14.2674L21.7902 14.9749C21.9468 15.0085 22.1091 15.004 22.2635 14.9618C22.418 14.9196 22.56 14.841 22.6777 14.7324L26.904 10.8324C27.0725 11.8362 27.0203 12.8646 26.751 13.8462C26.4818 14.8277 26.002 15.7388 25.3449 16.5161C24.6879 17.2935 23.8694 17.9183 22.9464 18.3472C22.0234 18.7762 21.018 18.9989 20.0002 18.9999Z" fill="#343330"/>
</svg>
