<svg width="32" height="32" viewBox="0 0 32 32" fill="none" xmlns="http://www.w3.org/2000/svg">
<path d="M28.9998 27H22.9236C25.5726 25.331 27.5299 22.7617 28.4355 19.7646C29.3411 16.7675 29.1341 13.5442 27.8526 10.6876C26.571 7.831 24.3011 5.53317 21.4604 4.21678C18.6197 2.90038 15.3992 2.65396 12.3912 3.52284C9.38331 4.39171 6.79024 6.31745 5.08901 8.94584C3.38777 11.5742 2.69278 14.7285 3.13186 17.8285C3.57094 20.9284 5.11458 23.7656 7.47882 25.8182C9.84307 27.8707 12.8689 29.0006 15.9998 29H28.9998C29.2651 29 29.5194 28.8946 29.707 28.7071C29.8945 28.5195 29.9998 28.2652 29.9998 28C29.9998 27.7347 29.8945 27.4804 29.707 27.2929C29.5194 27.1053 29.2651 27 28.9998 27ZM15.9998 4.99996C17.9279 4.99785 19.8223 5.50541 21.4911 6.47121C20.286 7.01613 19.1213 7.64649 18.0061 8.35746C16.2407 7.23174 14.3537 6.30921 12.3811 5.60746C13.5445 5.20267 14.768 4.99728 15.9998 4.99996ZM9.81985 6.90496C12.0613 7.51154 14.2103 8.41851 16.2086 9.60121C15.3547 10.2439 14.5379 10.9346 13.7623 11.67C11.7101 10.5779 9.50228 9.80765 7.2161 9.38621C7.94314 8.42288 8.82263 7.58477 9.81985 6.90496ZM6.08985 11.2275C8.24857 11.5429 10.3439 12.1972 12.2986 13.1662C11.6045 13.929 10.9523 14.7289 10.3448 15.5625C8.69917 14.8238 6.95094 14.3391 5.15985 14.125C5.33332 13.1205 5.64635 12.1452 6.08985 11.2275ZM4.99985 16.125C6.44638 16.3038 7.86112 16.6824 9.2036 17.25C8.2559 18.7714 7.4576 20.381 6.81985 22.0562C5.65347 20.2962 5.02137 18.2363 4.99985 16.125ZM8.30235 23.8512C9.50297 20.2492 11.473 16.9515 14.0758 14.1871C16.6785 11.4227 19.8516 9.25772 23.3748 7.84246C24.1642 8.55667 24.847 9.38049 25.4023 10.2887C21.9195 11.5072 18.7811 13.5461 16.2525 16.2334C13.7239 18.9206 11.8794 22.177 10.8748 25.7275C9.93186 25.2292 9.06582 24.5972 8.3036 23.8512H8.30235ZM15.7073 27C14.6961 26.9716 13.6937 26.8033 12.7286 26.5C13.63 23.17 15.3387 20.1137 17.7033 17.6017C20.0678 15.0897 23.0154 13.1996 26.2848 12.0987C26.6443 13.0441 26.8706 14.0348 26.9573 15.0425C24.2713 16.006 21.8516 17.5918 19.8963 19.6701C17.9409 21.7484 16.5054 24.2602 15.7073 27ZM26.9348 17.195C26.6722 19.5713 25.6442 21.7978 24.0057 23.5389C22.3672 25.28 20.2071 26.4412 17.8511 26.8475C18.5918 24.6847 19.7851 22.7047 21.3515 21.0396C22.9179 19.3745 24.8213 18.0625 26.9348 17.1912V17.195Z" fill="#343330"/>
</svg>
