<svg width="32" height="32" viewBox="0 0 32 32" fill="none" xmlns="http://www.w3.org/2000/svg">
<path d="M15.2923 13.7075C15.3852 13.8005 15.4955 13.8742 15.6169 13.9246C15.7383 13.9749 15.8684 14.0008 15.9998 14.0008C16.1312 14.0008 16.2614 13.9749 16.3828 13.9246C16.5041 13.8742 16.6144 13.8005 16.7073 13.7075L21.7073 8.70749C21.8003 8.61462 21.874 8.50433 21.9244 8.38293C21.9747 8.26154 22.0006 8.13141 22.0006 7.99999C22.0006 7.86858 21.9747 7.73845 21.9244 7.61705C21.874 7.49566 21.8003 7.38537 21.7073 7.29249L16.7073 2.29249C16.6144 2.19952 16.5041 2.12576 16.3828 2.07543C16.2614 2.02511 16.1312 1.99921 15.9998 1.99921C15.8684 1.99921 15.7383 2.02511 15.6169 2.07543C15.4955 2.12576 15.3852 2.19952 15.2923 2.29249L10.2923 7.29249C10.1993 7.38537 10.1256 7.49566 10.0753 7.61705C10.0249 7.73845 9.99902 7.86858 9.99902 7.99999C9.99902 8.13141 10.0249 8.26154 10.0753 8.38293C10.1256 8.50433 10.1993 8.61462 10.2923 8.70749L15.2923 13.7075ZM15.9998 4.41374L19.5861 7.99999L15.9998 11.5862L12.4136 7.99999L15.9998 4.41374ZM16.7073 18.2887C16.6144 18.1958 16.5041 18.122 16.3828 18.0717C16.2614 18.0214 16.1312 17.9955 15.9998 17.9955C15.8684 17.9955 15.7383 18.0214 15.6169 18.0717C15.4955 18.122 15.3852 18.1958 15.2923 18.2887L10.2923 23.2887C10.1993 23.3816 10.1256 23.4919 10.0753 23.6133C10.0249 23.7347 9.99902 23.8648 9.99902 23.9962C9.99902 24.1277 10.0249 24.2578 10.0753 24.3792C10.1256 24.5006 10.1993 24.6109 10.2923 24.7037L15.2923 29.7037C15.3852 29.7967 15.4955 29.8705 15.6169 29.9208C15.7383 29.9711 15.8684 29.997 15.9998 29.997C16.1312 29.997 16.2614 29.9711 16.3828 29.9208C16.5041 29.8705 16.6144 29.7967 16.7073 29.7037L21.7073 24.7037C21.8003 24.6109 21.874 24.5006 21.9244 24.3792C21.9747 24.2578 22.0006 24.1277 22.0006 23.9962C22.0006 23.8648 21.9747 23.7347 21.9244 23.6133C21.874 23.4919 21.8003 23.3816 21.7073 23.2887L16.7073 18.2887ZM15.9998 27.5862L12.4136 24L15.9998 20.4137L19.5861 24L15.9998 27.5862ZM29.7073 15.2925L24.7073 10.2925C24.6144 10.1995 24.5041 10.1258 24.3827 10.0754C24.2614 10.0251 24.1312 9.99921 23.9998 9.99921C23.8684 9.99921 23.7383 10.0251 23.6169 10.0754C23.4955 10.1258 23.3852 10.1995 23.2923 10.2925L18.2923 15.2925C18.1993 15.3854 18.1256 15.4957 18.0752 15.6171C18.0249 15.7385 17.999 15.8686 17.999 16C17.999 16.1314 18.0249 16.2615 18.0752 16.3829C18.1256 16.5043 18.1993 16.6146 18.2923 16.7075L23.2923 21.7075C23.3852 21.8005 23.4955 21.8742 23.6169 21.9246C23.7383 21.9749 23.8684 22.0008 23.9998 22.0008C24.1312 22.0008 24.2614 21.9749 24.3827 21.9246C24.5041 21.8742 24.6144 21.8005 24.7073 21.7075L29.7073 16.7075C29.8003 16.6146 29.874 16.5043 29.9244 16.3829C29.9747 16.2615 30.0006 16.1314 30.0006 16C30.0006 15.8686 29.9747 15.7385 29.9244 15.6171C29.874 15.4957 29.8003 15.3854 29.7073 15.2925ZM23.9998 19.5862L20.4136 16L23.9998 12.4137L27.5861 16L23.9998 19.5862ZM13.7073 15.2925L8.70731 10.2925C8.61444 10.1995 8.50415 10.1258 8.38275 10.0754C8.26135 10.0251 8.13123 9.99921 7.99981 9.99921C7.86839 9.99921 7.73827 10.0251 7.61687 10.0754C7.49547 10.1258 7.38518 10.1995 7.29231 10.2925L2.29231 15.2925C2.19933 15.3854 2.12557 15.4957 2.07525 15.6171C2.02493 15.7385 1.99902 15.8686 1.99902 16C1.99902 16.1314 2.02493 16.2615 2.07525 16.3829C2.12557 16.5043 2.19933 16.6146 2.29231 16.7075L7.29231 21.7075C7.38518 21.8005 7.49547 21.8742 7.61687 21.9246C7.73827 21.9749 7.86839 22.0008 7.99981 22.0008C8.13123 22.0008 8.26135 21.9749 8.38275 21.9246C8.50415 21.8742 8.61444 21.8005 8.70731 21.7075L13.7073 16.7075C13.8003 16.6146 13.874 16.5043 13.9244 16.3829C13.9747 16.2615 14.0006 16.1314 14.0006 16C14.0006 15.8686 13.9747 15.7385 13.9244 15.6171C13.874 15.4957 13.8003 15.3854 13.7073 15.2925ZM7.99981 19.5862L4.41356 16L7.99981 12.4137L11.5861 16L7.99981 19.5862Z" fill="#343330"/>
</svg>
