<svg width="32" height="32" viewBox="0 0 32 32" fill="none" xmlns="http://www.w3.org/2000/svg">
<path d="M6.73976 4.32752C6.65194 4.22853 6.54535 4.14796 6.42616 4.09046C6.30697 4.03297 6.17756 3.9997 6.04542 3.9926C5.91328 3.98549 5.78104 4.00468 5.65637 4.04905C5.53171 4.09342 5.41708 4.1621 5.31915 4.2511C5.22122 4.3401 5.14193 4.44765 5.08587 4.56752C5.02981 4.68739 4.99809 4.81719 4.99257 4.94941C4.98705 5.08162 5.00782 5.21362 5.05369 5.33775C5.09955 5.46188 5.1696 5.57567 5.25976 5.67252L8.08976 8.78627C6.03976 11.875 4.99976 14.9725 4.99976 18C4.99987 20.1604 5.63614 22.2729 6.82917 24.074C8.02221 25.8751 9.71919 27.285 11.7084 28.1278C13.6976 28.9707 15.8909 29.2091 18.0148 28.8133C20.1386 28.4176 22.0989 27.4052 23.651 25.9025L25.2598 27.6725C25.3476 27.7715 25.4542 27.8521 25.5734 27.9096C25.6926 27.9671 25.822 28.0003 25.9541 28.0075C26.0862 28.0146 26.2185 27.9954 26.3432 27.951C26.4678 27.9066 26.5824 27.8379 26.6804 27.749C26.7783 27.66 26.8576 27.5524 26.9137 27.4325C26.9697 27.3127 27.0014 27.1829 27.007 27.0506C27.0125 26.9184 26.9917 26.7864 26.9458 26.6623C26.9 26.5382 26.8299 26.4244 26.7398 26.3275L6.73976 4.32752ZM15.9998 27C13.6136 26.9974 11.326 26.0483 9.63873 24.3611C7.95147 22.6738 7.00241 20.3862 6.99976 18C6.99976 15.5088 7.83476 12.9288 9.48226 10.3175L22.3035 24.42C20.6226 26.0745 18.3583 27.0012 15.9998 27ZM11.2498 6.31377C11.0578 6.13077 10.9464 5.87902 10.9401 5.61389C10.9338 5.34876 11.033 5.09198 11.216 4.90002C12.5038 3.53549 13.9129 2.29079 15.426 1.18127C15.5942 1.06349 15.7945 1.00031 15.9998 1.00031C16.2051 1.00031 16.4054 1.06349 16.5735 1.18127C16.9998 1.47877 26.9998 8.58752 26.9998 18C27.0004 18.9883 26.8679 19.9721 26.606 20.925C26.548 21.1361 26.4223 21.3224 26.2482 21.4552C26.0741 21.5879 25.8612 21.6599 25.6423 21.66C25.5519 21.6608 25.4619 21.649 25.3748 21.625C25.1192 21.5546 24.9021 21.3857 24.7711 21.1553C24.6401 20.9249 24.6059 20.6519 24.676 20.3963C24.8904 19.6156 24.9993 18.8096 24.9998 18C24.9998 10.845 18.0648 4.87502 15.9998 3.25002C14.8182 4.17889 13.7045 5.19105 12.6673 6.27877C12.5767 6.37446 12.4681 6.45129 12.3477 6.50486C12.2273 6.55844 12.0975 6.58769 11.9658 6.59094C11.8341 6.59419 11.703 6.57138 11.5801 6.52382C11.4572 6.47625 11.345 6.40487 11.2498 6.31377Z" fill="#343330"/>
</svg>
