<svg width="32" height="32" viewBox="0 0 32 32" fill="none" xmlns="http://www.w3.org/2000/svg">
<path d="M28.1252 10.05L22.9502 4.87501C22.3876 4.31244 21.6246 3.9964 20.8289 3.9964C20.0333 3.9964 19.2703 4.31244 18.7077 4.87501L3.87519 19.7075C3.31263 20.2701 2.99658 21.0331 2.99658 21.8288C2.99658 22.6244 3.31263 23.3874 3.87519 23.95L7.63269 27.7075C7.72593 27.8006 7.83665 27.8744 7.9585 27.9246C8.08034 27.9748 8.21091 28.0004 8.34269 28H27.0002C27.2654 28 27.5198 27.8947 27.7073 27.7071C27.8948 27.5196 28.0002 27.2652 28.0002 27C28.0002 26.7348 27.8948 26.4804 27.7073 26.2929C27.5198 26.1054 27.2654 26 27.0002 26H16.4127L28.1252 14.2925C28.6878 13.7299 29.0038 12.9669 29.0038 12.1713C29.0038 11.3756 28.6878 10.6126 28.1252 10.05ZM13.5852 26H8.75644L5.29144 22.535C5.10405 22.3475 4.99878 22.0932 4.99878 21.8281C4.99878 21.563 5.10405 21.3088 5.29144 21.1213L12.0002 14.4138L18.5864 21L13.5852 26ZM26.7102 12.875L20.0002 19.5863L13.4139 13L20.1252 6.29251C20.2181 6.19953 20.3284 6.12577 20.4498 6.07545C20.5711 6.02512 20.7013 5.99922 20.8327 5.99922C20.9641 5.99922 21.0942 6.02512 21.2156 6.07545C21.337 6.12577 21.4473 6.19953 21.5402 6.29251L26.7127 11.465C26.9001 11.6525 27.0054 11.9068 27.0054 12.1719C27.0054 12.437 26.9001 12.6912 26.7127 12.8788L26.7102 12.875Z" fill="#343330"/>
</svg>
