<svg width="32" height="32" viewBox="0 0 32 32" fill="none" xmlns="http://www.w3.org/2000/svg">
<path d="M21.8285 10.1712C21.496 8.38012 20.6805 6.71388 19.4701 5.35242C18.2596 3.99097 16.7003 2.98602 14.9605 2.44609C13.2206 1.90615 11.3663 1.85175 9.59775 2.28875C7.82922 2.72575 6.21367 3.63755 4.92551 4.9257C3.63736 6.21385 2.72556 7.82941 2.28856 9.59793C1.85156 11.3665 1.90597 13.2208 2.4459 14.9606C2.98584 16.7005 3.99079 18.2598 5.35224 19.4702C6.7137 20.6806 8.37993 21.4962 10.171 21.8287C10.5036 23.6198 11.3191 25.2861 12.5295 26.6475C13.7399 28.009 15.2993 29.0139 17.0391 29.5539C18.779 30.0938 20.6333 30.1482 22.4018 29.7112C24.1704 29.2742 25.7859 28.3624 27.0741 27.0742C28.3622 25.7861 29.274 24.1705 29.711 22.402C30.148 20.6335 30.0936 18.7792 29.5537 17.0393C29.0137 15.2994 28.0088 13.7401 26.6473 12.5297C25.2859 11.3193 23.6196 10.5038 21.8285 10.1712ZM27.9998 20C27.9998 20.19 27.991 20.375 27.9773 20.5637L21.7273 14.3137C21.8897 13.6372 21.981 12.9455 21.9998 12.25C23.7165 12.6957 25.2369 13.6983 26.3227 15.1008C27.4085 16.5033 27.9983 18.2263 27.9998 20ZM26.316 24.9012L19.7385 18.325C20.2245 17.7311 20.641 17.0835 20.9798 16.395L27.4623 22.875C27.181 23.6027 26.7949 24.2853 26.316 24.9012ZM22.8748 27.4625L16.3923 20.98C17.0808 20.6412 17.7284 20.2247 18.3223 19.7387L24.8985 26.3162C24.2834 26.7948 23.6016 27.181 22.8748 27.4625ZM5.68354 7.09872L12.261 13.675C11.775 14.2689 11.3586 14.9164 11.0198 15.605L4.53729 9.12497C4.81853 8.39728 5.2047 7.71464 5.68354 7.09872ZM9.12479 4.53747L15.6073 11.02C14.9187 11.3588 14.2712 11.7752 13.6773 12.2612L7.09854 5.68372C7.71445 5.20489 8.3971 4.81871 9.12479 4.53747ZM19.9998 12C19.9975 14.121 19.1539 16.1545 17.6541 17.6543C16.1543 19.1541 14.1208 19.9977 11.9998 20C12.0021 17.879 12.8457 15.8455 14.3455 14.3457C15.8453 12.8459 17.8788 12.0023 19.9998 12ZM19.7498 9.99997C19.0553 10.0169 18.3645 10.1061 17.6885 10.2662L11.4385 4.01622C11.6248 4.00872 11.8098 3.99997 11.9998 3.99997C13.7743 4.0018 15.498 4.59253 16.9006 5.67953C18.3031 6.76653 19.3053 8.28832 19.7498 10.0062V9.99997ZM3.99979 12C3.99979 11.81 4.00854 11.625 4.02229 11.4362L10.2723 17.6862C10.112 18.363 10.0228 19.0547 10.006 19.75C8.28813 19.3055 6.76635 18.3033 5.67935 16.9007C4.59235 15.4982 4.00161 13.7745 3.99979 12ZM12.2498 22C12.9443 21.9831 13.6351 21.8938 14.311 21.7337L20.561 27.9837C20.3748 27.9975 20.186 28.0062 19.9973 28.0062C18.2232 28.0038 16.5001 27.4129 15.098 26.3259C13.696 25.2389 12.6942 23.7175 12.2498 22Z" fill="#343330"/>
</svg>
