<svg width="32" height="32" viewBox="0 0 32 32" fill="none" xmlns="http://www.w3.org/2000/svg">
<path d="M28.0001 8.41249C27.9933 7.81067 27.8652 7.2164 27.6233 6.66526C27.3815 6.11413 27.0309 5.61746 26.5926 5.20499C24.8426 3.54499 22.0026 3.60749 20.2651 5.34624L17.8501 7.77499C17.2798 7.25517 16.531 6.97512 15.7596 6.99304C14.9881 7.01097 14.2532 7.32549 13.7076 7.87124L12.5826 8.99624C12.3967 9.18199 12.2491 9.40256 12.1485 9.64536C12.0478 9.88816 11.996 10.1484 11.996 10.4112C11.996 10.6741 12.0478 10.9343 12.1485 11.1771C12.2491 11.4199 12.3967 11.6405 12.5826 11.8262L12.8326 12.0837L6.45761 18.4587C5.84398 19.0676 5.39981 19.826 5.16897 20.659C4.93813 21.4921 4.92861 22.3709 5.14136 23.2087L4.14136 25.51C4.00164 25.826 3.96114 26.1769 4.02519 26.5164C4.08925 26.8559 4.25486 27.1679 4.50011 27.4112C4.78323 27.6971 5.14644 27.8903 5.54171 27.9653C5.93699 28.0403 6.34571 27.9935 6.71386 27.8312L8.9051 26.875C9.72771 27.0608 10.584 27.035 11.3939 26.8C12.2039 26.565 12.941 26.1285 13.5364 25.5312L19.9114 19.1562L20.1689 19.4137C20.5439 19.7885 21.0524 19.9991 21.5826 19.9991C22.1128 19.9991 22.6213 19.7885 22.9964 19.4137L24.1214 18.2887C24.668 17.7424 24.9828 17.0062 25 16.2336C25.0173 15.4609 24.7356 14.7114 24.2139 14.1412L26.6826 11.6575C27.1094 11.2332 27.4461 10.727 27.6725 10.1694C27.8989 9.61182 28.0103 9.01422 28.0001 8.41249ZM12.1251 24.125C11.7403 24.5106 11.2577 24.7842 10.7292 24.9163C10.2007 25.0484 9.64613 25.0342 9.1251 24.875C8.89666 24.8046 8.65054 24.8183 8.43135 24.9137L6.16885 25.9012L7.12511 23.6762C7.22433 23.4488 7.23547 23.1927 7.15636 22.9575C6.94067 22.3208 6.94507 21.6301 7.16885 20.9962H15.2501L12.1251 24.125ZM17.2501 19H8.75885L14.2589 13.5L18.5014 17.75L17.2501 19ZM25.2726 10.25L22.1014 13.44C21.914 13.6275 21.8087 13.8818 21.8087 14.1469C21.8087 14.412 21.914 14.6662 22.1014 14.8537L22.7126 15.4637C22.8056 15.5566 22.8793 15.6669 22.9297 15.7883C22.98 15.9097 23.0059 16.0398 23.0059 16.1712C23.0059 16.3027 22.98 16.4328 22.9297 16.5542C22.8793 16.6756 22.8056 16.7859 22.7126 16.8787L21.5876 18.0037L14.0001 10.4075L15.1251 9.28249C15.3126 9.0951 15.5669 8.98983 15.832 8.98983C16.0971 8.98983 16.3513 9.0951 16.5389 9.28249L17.1501 9.89374C17.3375 10.0809 17.5915 10.1861 17.8564 10.1862C17.9879 10.186 18.1181 10.1598 18.2395 10.1092C18.3609 10.0586 18.4711 9.98453 18.5639 9.89124L21.6814 6.75499C22.6576 5.77749 24.2439 5.73249 25.2176 6.65374C25.4608 6.88349 25.6555 7.15971 25.79 7.46606C25.9245 7.77241 25.9961 8.10263 26.0007 8.43718C26.0052 8.77173 25.9426 9.10378 25.8164 9.41367C25.6903 9.72355 25.5032 10.005 25.2664 10.2412L25.2726 10.25Z" fill="#343330"/>
</svg>
