<svg width="32" height="32" viewBox="0 0 32 32" fill="none" xmlns="http://www.w3.org/2000/svg">
<path d="M27.9998 8.41249C27.993 7.81067 27.8648 7.2164 27.623 6.66526C27.3811 6.11413 27.0306 5.61746 26.5923 5.20499C24.8423 3.54499 22.0023 3.60749 20.2648 5.34624L17.8498 7.77499C17.2794 7.25517 16.5307 6.97512 15.7592 6.99304C14.9878 7.01097 14.2528 7.32549 13.7073 7.87124L12.5823 8.99624C12.3963 9.18199 12.2488 9.40256 12.1481 9.64536C12.0475 9.88816 11.9957 10.1484 11.9957 10.4112C11.9957 10.6741 12.0475 10.9343 12.1481 11.1771C12.2488 11.4199 12.3963 11.6405 12.5823 11.8262L12.8323 12.0837L6.45727 18.4587C5.84364 19.0676 5.39947 19.826 5.16863 20.659C4.93779 21.4921 4.92827 22.3709 5.14102 23.2087L4.14102 25.51C4.00155 25.8262 3.96118 26.1773 4.02522 26.5169C4.08926 26.8565 4.25471 27.1688 4.49977 27.4125C4.78322 27.6978 5.14649 27.8906 5.54167 27.9653C5.93686 28.0401 6.34543 27.9933 6.71352 27.8312L8.90352 26.875C9.7263 27.0612 10.5829 27.0355 11.3931 26.8005C12.2033 26.5655 12.9406 26.1288 13.536 25.5312L19.911 19.1562L20.1685 19.4137C20.5436 19.7885 21.0521 19.9991 21.5823 19.9991C22.1125 19.9991 22.621 19.7885 22.996 19.4137L24.121 18.2887C24.6677 17.7424 24.9825 17.0062 24.9997 16.2336C25.0169 15.4609 24.7353 14.7114 24.2135 14.1412L26.6823 11.6575C27.1091 11.2332 27.4458 10.727 27.6722 10.1694C27.8986 9.61182 28.01 9.01422 27.9998 8.41249ZM12.1248 24.125C11.7399 24.5106 11.2574 24.7842 10.7288 24.9163C10.2003 25.0484 9.64579 25.0342 9.12477 24.875C8.89632 24.8046 8.6502 24.8183 8.43102 24.9137L6.16852 25.9025L7.12477 23.6762C7.22399 23.4488 7.23513 23.1927 7.15602 22.9575C6.9748 22.428 6.9461 21.8582 7.07319 21.3131C7.20028 20.7681 7.47804 20.2697 7.87477 19.875L14.2498 13.5L18.4923 17.75L12.1248 24.125ZM25.266 10.25L22.0948 13.44C21.9078 13.6275 21.8027 13.8814 21.8027 14.1462C21.8027 14.411 21.9078 14.665 22.0948 14.8525L22.706 15.4637C22.799 15.5566 22.8728 15.6669 22.9231 15.7883C22.9734 15.9097 22.9993 16.0398 22.9993 16.1712C22.9993 16.3027 22.9734 16.4328 22.9231 16.5542C22.8728 16.6756 22.799 16.7859 22.706 16.8787L21.581 18.0037L13.9998 10.4075L15.1248 9.28249C15.3123 9.0951 15.5665 8.98983 15.8316 8.98983C16.0967 8.98983 16.351 9.0951 16.5385 9.28249L17.1498 9.89374C17.2427 9.9869 17.353 10.0608 17.4745 10.1113C17.5961 10.1617 17.7263 10.1877 17.8579 10.1877C17.9895 10.1877 18.1197 10.1617 18.2412 10.1113C18.3628 10.0608 18.4731 9.9869 18.566 9.89374L21.6835 6.75749C22.6598 5.77999 24.246 5.73499 25.2198 6.65624C25.463 6.88599 25.6576 7.16221 25.7921 7.46856C25.9266 7.77491 25.9983 8.10513 26.0028 8.43968C26.0074 8.77422 25.9447 9.10628 25.8186 9.41617C25.6925 9.72605 25.5054 10.0075 25.2685 10.2437L25.266 10.25Z" fill="#343330"/>
</svg>
