<svg width="32" height="32" viewBox="0 0 32 32" fill="none" xmlns="http://www.w3.org/2000/svg">
<path d="M13.3977 3.04125C12.9452 2.94598 12.4736 3.0119 12.0645 3.22761C11.6555 3.44333 11.3347 3.79526 11.1577 4.2225L11.1502 4.24L3.15023 24.2313C3.02357 24.5355 2.97404 24.8662 3.00603 25.1942C3.03803 25.5222 3.15057 25.8371 3.33364 26.1111C3.51671 26.3851 3.76464 26.6096 4.05539 26.7647C4.34615 26.9198 4.67071 27.0006 5.00023 27H13.0002C13.5307 27 14.0394 26.7893 14.4144 26.4142C14.7895 26.0391 15.0002 25.5304 15.0002 25V5C15.0035 4.53786 14.8451 4.08912 14.5525 3.73142C14.2598 3.37373 13.8514 3.12959 13.3977 3.04125ZM13.0002 25H5.00023L5.00773 24.9813L13.0002 5V25ZM28.8465 24.2313L20.8465 4.24L20.839 4.2225C20.6581 3.79964 20.3369 3.45207 19.9297 3.23832C19.5224 3.02457 19.054 2.95772 18.6032 3.04902C18.1524 3.14032 17.7469 3.38419 17.4549 3.73956C17.1629 4.09493 17.0023 4.54007 17.0002 5V25C17.0002 25.5304 17.2109 26.0391 17.586 26.4142C17.9611 26.7893 18.4698 27 19.0002 27H27.0002C27.3295 27.0002 27.6538 26.9191 27.9442 26.7638C28.2346 26.6086 28.4822 26.384 28.665 26.1101C28.8478 25.8362 28.9601 25.5213 28.992 25.1936C29.0239 24.8658 28.9743 24.5353 28.8477 24.2313H28.8465ZM19.0002 25V5L26.9915 24.98L26.999 24.9988L19.0002 25Z" fill="#343330"/>
</svg>
