<svg width="32" height="32" viewBox="0 0 32 32" fill="none" xmlns="http://www.w3.org/2000/svg">
<path d="M30.7076 9.29251L26.7076 5.29251C26.52 5.10487 26.2655 4.99945 26.0001 4.99945C25.7348 4.99945 25.4803 5.10487 25.2926 5.29251C25.105 5.48015 24.9996 5.73464 24.9996 6.00001C24.9996 6.26537 25.105 6.51987 25.2926 6.70751L27.5864 9.00001H26.0001C19.8339 9.00001 18.3689 12.515 17.0776 15.615C15.9051 18.4288 14.9626 20.6888 10.8926 20.97C10.6372 19.7575 9.94072 18.6831 8.93815 17.955C7.93558 17.2269 6.69836 16.8969 5.46636 17.0292C4.23437 17.1614 3.09536 17.7464 2.27016 18.6707C1.44496 19.595 0.992354 20.7928 1.0001 22.0319C1.00784 23.2709 1.47538 24.463 2.31207 25.3769C3.14876 26.2908 4.29499 26.8615 5.52855 26.9783C6.7621 27.0952 7.9951 26.7498 8.98849 26.0092C9.98188 25.2686 10.6649 24.1856 10.9051 22.97C16.3126 22.6388 17.6976 19.3263 18.9226 16.3838C20.1764 13.375 21.1664 11 26.0001 11H27.5864L25.2926 13.2925C25.105 13.4801 24.9996 13.7346 24.9996 14C24.9996 14.2654 25.105 14.5199 25.2926 14.7075C25.4803 14.8951 25.7348 15.0006 26.0001 15.0006C26.2655 15.0006 26.52 14.8951 26.7076 14.7075L30.7076 10.7075C30.8006 10.6146 30.8744 10.5043 30.9247 10.3829C30.975 10.2615 31.0009 10.1314 31.0009 10C31.0009 9.86859 30.975 9.73846 30.9247 9.61707C30.8744 9.49567 30.8006 9.38538 30.7076 9.29251ZM6.00013 25C5.40679 25 4.82677 24.8241 4.33342 24.4944C3.84007 24.1648 3.45555 23.6962 3.22849 23.1481C3.00143 22.5999 2.94202 21.9967 3.05777 21.4147C3.17353 20.8328 3.45925 20.2982 3.87881 19.8787C4.29837 19.4591 4.83292 19.1734 5.41486 19.0577C5.9968 18.9419 6.6 19.0013 7.14818 19.2284C7.69636 19.4554 8.16489 19.8399 8.49454 20.3333C8.82418 20.8266 9.00013 21.4067 9.00013 22C9.00013 22.7957 8.68406 23.5587 8.12145 24.1213C7.55884 24.6839 6.79578 25 6.00013 25Z" fill="#343330"/>
</svg>
