<svg width="32" height="32" viewBox="0 0 32 32" fill="none" xmlns="http://www.w3.org/2000/svg">
<path d="M25.1927 6.80747C22.7547 4.36947 19.448 2.99982 16.0002 2.99982C12.5523 2.99982 9.24566 4.36947 6.80766 6.80748C4.36966 9.24548 3 12.5521 3 16C3 19.4478 4.36966 22.7545 6.80766 25.1925C9.24566 27.6305 12.5523 29.0001 16.0002 29.0001C19.448 29.0001 22.7547 27.6305 25.1927 25.1925C27.6307 22.7545 29.0003 19.4478 29.0003 16C29.0003 12.5521 27.6307 9.24548 25.1927 6.80747ZM12.0002 26.25V19H20.0002V26.25C17.4272 27.25 14.5731 27.25 12.0002 26.25ZM18.0002 17H14.0002V12.6175L18.0002 10.6175V17ZM23.7777 23.7775C23.2369 24.3192 22.6412 24.8031 22.0002 25.2212V19C22.0002 18.4695 21.7894 17.9608 21.4144 17.5858C21.0393 17.2107 20.5306 17 20.0002 17V8.99998C20.0003 8.82943 19.9568 8.66169 19.8738 8.51269C19.7908 8.3637 19.6711 8.2384 19.5261 8.14871C19.381 8.05902 19.2154 8.00792 19.045 8.00027C18.8747 7.99261 18.7052 8.02866 18.5527 8.10497L12.5527 11.105C12.3865 11.1881 12.2468 11.3159 12.1492 11.474C12.0516 11.6321 12 11.8142 12.0002 12V17C11.4697 17 10.961 17.2107 10.5859 17.5858C10.2109 17.9608 10.0002 18.4695 10.0002 19V25.2212C8.09451 23.9816 6.61975 22.182 5.77873 20.0699C4.9377 17.9578 4.77173 15.6371 5.30363 13.4268C5.83553 11.2165 7.03918 9.22536 8.74903 7.72715C10.4589 6.22895 12.5909 5.29731 14.8519 5.06038C17.1129 4.82345 19.3917 5.29287 21.375 6.40407C23.3583 7.51527 24.9486 9.21366 25.9271 11.2656C26.9057 13.3176 27.2244 15.6224 26.8395 17.8629C26.4546 20.1035 25.3849 22.1697 23.7777 23.7775Z" fill="#343330"/>
</svg>
