<svg width="32" height="32" viewBox="0 0 32 32" fill="none" xmlns="http://www.w3.org/2000/svg">
<path d="M31.7077 13.2925C31.6148 13.1995 31.5045 13.1258 31.3831 13.0754C31.2617 13.0251 31.1316 12.9992 31.0002 12.9992C30.8687 12.9992 30.7386 13.0251 30.6172 13.0754C30.4958 13.1258 30.3855 13.1995 30.2927 13.2925L24.0002 19.5863L13.4139 9.00001L19.7077 2.70751C19.8006 2.6146 19.8743 2.5043 19.9246 2.3829C19.9748 2.26151 20.0007 2.1314 20.0007 2.00001C20.0007 1.86861 19.9748 1.7385 19.9246 1.61711C19.8743 1.49572 19.8006 1.38542 19.7077 1.29251C19.6147 1.1996 19.5044 1.1259 19.3831 1.07561C19.2617 1.02533 19.1316 0.999451 19.0002 0.999451C18.8688 0.999451 18.7387 1.02533 18.6173 1.07561C18.4959 1.1259 18.3856 1.1996 18.2927 1.29251L12.0002 7.58626C11.6976 7.88889 11.5001 8.2806 11.4366 8.70382C11.3732 9.12704 11.4471 9.55945 11.6477 9.93751L9.00016 12.5863C8.62537 12.9613 8.41483 13.4698 8.41483 14C8.41483 14.5302 8.62537 15.0387 9.00016 15.4138L9.58641 16L2.29266 23.2925C2.17202 23.4131 2.08422 23.5625 2.0376 23.7265C1.99098 23.8905 1.98709 24.0638 2.0263 24.2298C2.0655 24.3957 2.14651 24.5489 2.26161 24.6748C2.37671 24.8006 2.52208 24.8949 2.68391 24.9488L11.6839 27.9488C11.7858 27.983 11.8927 28.0003 12.0002 28C12.1315 28.0001 12.2616 27.9743 12.383 27.9241C12.5044 27.874 12.6147 27.8003 12.7077 27.7075L17.0002 23.4138L17.5864 24C17.9614 24.3748 18.47 24.5853 19.0002 24.5853C19.5304 24.5853 20.0389 24.3748 20.4139 24L23.0627 21.3525C23.4407 21.553 23.8731 21.627 24.2963 21.5636C24.7196 21.5001 25.1113 21.3026 25.4139 21L31.7077 14.7075C31.8006 14.6146 31.8744 14.5043 31.9247 14.3829C31.975 14.2615 32.0009 14.1314 32.0009 14C32.0009 13.8686 31.975 13.7385 31.9247 13.6171C31.8744 13.4957 31.8006 13.3854 31.7077 13.2925ZM11.7302 25.8563L4.85516 23.5625L11.0002 17.4138L15.5864 22L11.7302 25.8563ZM19.0002 22.5863L10.4139 14L13.0002 11.4138L21.5864 20L19.0002 22.5863Z" fill="#343330"/>
</svg>
