<svg width="32" height="32" viewBox="0 0 32 32" fill="none" xmlns="http://www.w3.org/2000/svg">
<path d="M21.8285 10.1712C21.496 8.38012 20.6805 6.71388 19.4701 5.35242C18.2596 3.99097 16.7003 2.98602 14.9605 2.44609C13.2206 1.90615 11.3663 1.85175 9.59775 2.28875C7.82922 2.72575 6.21367 3.63755 4.92551 4.9257C3.63736 6.21385 2.72556 7.82941 2.28856 9.59793C1.85156 11.3665 1.90597 13.2208 2.4459 14.9606C2.98584 16.7005 3.99079 18.2598 5.35224 19.4702C6.7137 20.6806 8.37993 21.4962 10.171 21.8287C10.5036 23.6198 11.3191 25.2861 12.5295 26.6475C13.7399 28.009 15.2993 29.0139 17.0391 29.5539C18.779 30.0938 20.6333 30.1482 22.4018 29.7112C24.1704 29.2742 25.7859 28.3624 27.0741 27.0742C28.3622 25.7861 29.274 24.1705 29.711 22.402C30.148 20.6335 30.0936 18.7792 29.5537 17.0393C29.0137 15.2994 28.0088 13.7401 26.6473 12.5297C25.2859 11.3193 23.6196 10.5038 21.8285 10.1712ZM12.586 17L14.9998 19.4137C14.0472 19.8017 13.0283 20.0008 11.9998 20C11.9989 18.9714 12.198 17.9525 12.586 17ZM16.8048 18.3912L13.6085 15.195C14.061 14.595 14.5949 14.0612 15.1948 13.6087L18.391 16.805C17.9386 17.4049 17.4047 17.9388 16.8048 18.3912ZM19.4135 15L16.9998 12.5862C17.9523 12.1982 18.9712 11.9991 19.9998 12C20.0007 13.0285 19.8015 14.0474 19.4135 15ZM3.99979 12C3.99595 10.0501 4.7044 8.1659 5.99198 6.70158C7.27956 5.23725 9.05762 4.29359 10.992 4.04796C12.9264 3.80232 14.8838 4.27162 16.4966 5.36766C18.1093 6.4637 19.2662 8.111 19.7498 9.99997C17.1858 10.0674 14.7454 11.1164 12.9323 12.9306C11.1193 14.7449 10.0718 17.1859 10.006 19.75C8.28813 19.3055 6.76635 18.3033 5.67935 16.9007C4.59235 15.4982 4.00161 13.7745 3.99979 12ZM19.9998 28C18.2261 27.9985 16.5031 27.4087 15.1006 26.3229C13.6981 25.2371 12.6955 23.7167 12.2498 22C14.8149 21.9342 17.2568 20.8858 19.0712 19.0714C20.8856 17.257 21.934 14.8151 21.9998 12.25C23.8888 12.7336 25.5361 13.8905 26.6321 15.5032C27.7281 17.1159 28.1974 19.0734 27.9518 21.0078C27.7062 22.9421 26.7625 24.7202 25.2982 26.0078C23.8339 27.2954 21.9497 28.0038 19.9998 28Z" fill="#343330"/>
</svg>
