<svg width="32" height="32" viewBox="0 0 32 32" fill="none" xmlns="http://www.w3.org/2000/svg">
<path d="M26.8298 5.17002C26.1416 4.47991 25.2252 4.06478 24.2526 4.0026C23.28 3.94042 22.3181 4.23547 21.5477 4.83233C20.7773 5.4292 20.2512 6.28681 20.0684 7.2441C19.8856 8.20139 20.0585 9.19249 20.5548 10.0313L10.0311 20.555C9.26663 20.1056 8.37473 19.9224 7.49506 20.0342C6.61538 20.1459 5.79761 20.5463 5.16981 21.1725C4.64098 21.7016 4.27113 22.3685 4.10227 23.0972C3.9334 23.826 3.97228 24.5875 4.2145 25.2953C4.45672 26.0031 4.89257 26.6288 5.47254 27.1013C6.05251 27.5738 6.75336 27.8742 7.49549 27.9683C8.23762 28.0625 8.99129 27.9467 9.67089 27.634C10.3505 27.3213 10.9288 26.8243 11.3401 26.1995C11.7514 25.5746 11.9793 24.847 11.9978 24.0991C12.0163 23.3513 11.8247 22.6132 11.4448 21.9688L21.9686 11.445C22.8073 11.9413 23.7984 12.1143 24.7557 11.9314C25.713 11.7486 26.5706 11.2226 27.1675 10.4521C27.7644 9.68169 28.0594 8.71985 27.9972 7.74724C27.9351 6.77463 27.5199 5.85819 26.8298 5.17002ZM9.41356 25.42C9.03828 25.7953 8.52929 26.0061 7.99856 26.0061C7.46783 26.0061 6.95884 25.7953 6.58356 25.42C6.20828 25.0447 5.99745 24.5357 5.99745 24.005C5.99745 23.4743 6.20828 22.9653 6.58356 22.59C6.76928 22.4043 6.98978 22.2569 7.23246 22.1564C7.47514 22.0558 7.73525 22.0041 7.99794 22.0041C8.26062 22.0041 8.52073 22.0558 8.76341 22.1564C9.00609 22.2569 9.22659 22.4043 9.41231 22.59C9.78688 22.9648 9.9974 23.473 9.99763 24.0029C9.99787 24.5328 9.7878 25.0411 9.41356 25.4163V25.42ZM25.4136 9.42002C25.1338 9.69968 24.7775 9.89012 24.3895 9.96725C24.0016 10.0444 23.5995 10.0048 23.234 9.85336C22.8686 9.70197 22.5563 9.44563 22.3365 9.11674C22.1168 8.78785 21.9995 8.40119 21.9995 8.00565C21.9995 7.6101 22.1168 7.22344 22.3365 6.89455C22.5563 6.56567 22.8686 6.30932 23.234 6.15793C23.5995 6.00654 24.0016 5.96691 24.3895 6.04404C24.7775 6.12118 25.1338 6.31161 25.4136 6.59127C25.7868 6.96572 25.9965 7.4727 25.997 8.00138C25.9975 8.53006 25.7886 9.03741 25.4161 9.41252L25.4136 9.42002Z" fill="#343330"/>
</svg>
