<svg width="32" height="32" viewBox="0 0 32 32" fill="none" xmlns="http://www.w3.org/2000/svg">
<path d="M29.8298 4.17C29.4583 3.79847 29.0173 3.50375 28.532 3.30268C28.0466 3.1016 27.5264 2.99811 27.001 2.99811C26.4757 2.99811 25.9555 3.1016 25.4701 3.30268C24.9847 3.50375 24.5437 3.79847 24.1723 4.17C23.8008 4.54145 23.506 4.98245 23.305 5.46781C23.1039 5.95317 23.0004 6.47339 23.0004 6.99875C23.0004 7.52412 23.1039 8.04434 23.305 8.5297C23.506 9.01506 23.8008 9.45606 24.1723 9.8275C24.2085 9.86375 24.2473 9.89875 24.2848 9.93375L20.956 16.1163C19.9412 15.8688 18.8698 16.0257 17.9685 16.5538L15.446 14.0313C15.9423 13.1925 16.1153 12.2014 15.9324 11.2441C15.7496 10.2868 15.2236 9.42918 14.4532 8.83232C13.6827 8.23545 12.7209 7.9404 11.7483 8.00258C10.7757 8.06476 9.8592 8.47989 9.17104 9.17C8.79951 9.54145 8.50479 9.98245 8.30371 10.4678C8.10263 10.9532 7.99914 11.4734 7.99914 11.9988C7.99914 12.5241 8.10263 13.0443 8.30371 13.5297C8.50479 14.0151 8.79951 14.4561 9.17104 14.8275C9.20729 14.8638 9.24479 14.8988 9.28229 14.9338L5.95354 21.1175C5.28537 20.953 4.58607 20.9637 3.92324 21.1486C3.26041 21.3334 2.65647 21.686 2.16979 22.1725C1.61047 22.732 1.2296 23.4447 1.07533 24.2206C0.921062 24.9965 1.00033 25.8007 1.30311 26.5316C1.60588 27.2624 2.11857 27.8871 2.77635 28.3265C3.43413 28.766 4.20745 29.0006 4.99854 29.0006C5.78962 29.0006 6.56295 28.766 7.22072 28.3265C7.8785 27.8871 8.39119 27.2624 8.69397 26.5316C8.99674 25.8007 9.07601 24.9965 8.92174 24.2206C8.76748 23.4447 8.38661 22.732 7.82729 22.1725C7.79104 22.1363 7.75229 22.1013 7.71479 22.0663L11.0435 15.8838C11.3565 15.9604 11.6775 15.9994 11.9998 16C12.7139 16.0009 13.4153 15.8105 14.031 15.4488L16.5535 17.9713C16.1738 18.6158 15.9824 19.3539 16.001 20.1017C16.0197 20.8495 16.2477 21.5771 16.6592 22.2019C17.0706 22.8267 17.649 23.3235 18.3287 23.636C19.0083 23.9486 19.762 24.0643 20.5041 23.9699C21.2462 23.8756 21.947 23.5751 22.5269 23.1025C23.1067 22.6299 23.5425 22.0041 23.7845 21.2963C24.0266 20.5885 24.0654 19.827 23.8964 19.0983C23.7274 18.3695 23.3574 17.7028 22.8285 17.1738C22.7923 17.1375 22.7548 17.1025 22.7173 17.0675L26.046 10.885C26.3582 10.9611 26.6784 10.9997 26.9998 11C27.7907 10.9999 28.5639 10.7653 29.2216 10.3258C29.8792 9.88636 30.3918 9.26179 30.6946 8.53106C30.9973 7.80034 31.0766 6.99626 30.9225 6.22046C30.7683 5.44466 30.3876 4.73198 29.8285 4.1725L29.8298 4.17ZM6.41229 26.4163C6.03701 26.7914 5.52808 27.002 4.99747 27.0019C4.46686 27.0018 3.95803 26.7909 3.58291 26.4156C3.2078 26.0403 2.99712 25.5314 2.99724 25.0008C2.99736 24.4702 3.20826 23.9614 3.58354 23.5863C3.76936 23.4005 3.98994 23.2532 4.2327 23.1527C4.47545 23.0522 4.73562 23.0005 4.99835 23.0006C5.26109 23.0006 5.52123 23.0524 5.76394 23.153C6.00665 23.2536 6.22717 23.4011 6.41291 23.5869C6.59865 23.7727 6.74597 23.9933 6.84646 24.236C6.94695 24.4788 6.99864 24.739 6.99858 25.0017C6.99852 25.2644 6.94672 25.5246 6.84612 25.7673C6.74552 26.01 6.59811 26.2305 6.41229 26.4163ZM10.5848 13.4163C10.399 13.2305 10.2517 13.01 10.1511 12.7674C10.0506 12.5247 9.99884 12.2646 9.99884 12.0019C9.99884 11.7392 10.0506 11.4791 10.1511 11.2364C10.2517 10.9937 10.399 10.7732 10.5848 10.5875C10.8645 10.3078 11.2209 10.1174 11.6088 10.0403C11.9968 9.96314 12.3989 10.0028 12.7643 10.1542C13.1297 10.3056 13.4421 10.5619 13.6618 10.8908C13.8816 11.2197 13.9988 11.6063 13.9988 12.0019C13.9988 12.3974 13.8816 12.7841 13.6618 13.113C13.4421 13.4419 13.1297 13.6982 12.7643 13.8496C12.3989 14.001 11.9968 14.0406 11.6088 13.9635C11.2209 13.8863 10.8645 13.6959 10.5848 13.4163ZM21.4148 21.4163C21.0397 21.7914 20.5309 22.0021 20.0004 22.0021C19.4699 22.0021 18.9612 21.7914 18.586 21.4163C18.2109 21.0411 18.0002 20.5324 18.0002 20.0019C18.0002 19.4714 18.2109 18.9626 18.586 18.5875C18.9612 18.2124 19.4699 18.0016 20.0004 18.0016C20.5309 18.0016 21.0397 18.2124 21.4148 18.5875C21.7899 18.9626 22.0006 19.4714 22.0006 20.0019C22.0006 20.5324 21.7899 21.0411 21.4148 21.4163ZM28.4148 8.41625C28.0392 8.7912 27.53 9.00158 26.9993 9.00112C26.4685 9.00065 25.9597 8.78937 25.5848 8.41375C25.2098 8.03814 24.9995 7.52896 24.9999 6.99824C25.0004 6.46751 25.2117 5.9587 25.5873 5.58375C25.7731 5.39802 25.9937 5.2507 26.2364 5.15021C26.4792 5.04972 26.7394 4.99803 27.0021 4.99808C27.2648 4.99814 27.525 5.04995 27.7677 5.15054C28.0104 5.25114 28.2309 5.39856 28.4167 5.58438C28.6024 5.7702 28.7497 5.99078 28.8502 6.23354C28.9507 6.47629 29.0024 6.73646 29.0023 6.9992C29.0023 7.26193 28.9505 7.52208 28.8499 7.76479C28.7493 8.0075 28.6019 8.22801 28.416 8.41375L28.4148 8.41625Z" fill="#343330"/>
</svg>
