<svg width="32" height="32" viewBox="0 0 32 32" fill="none" xmlns="http://www.w3.org/2000/svg">
<path d="M25.1927 6.80747C22.7547 4.36947 19.448 2.99982 16.0002 2.99982C12.5523 2.99982 9.24566 4.36947 6.80766 6.80748C4.36966 9.24548 3 12.5521 3 16C3 19.4478 4.36966 22.7545 6.80766 25.1925C9.24566 27.6305 12.5523 29.0001 16.0002 29.0001C19.448 29.0001 22.7547 27.6305 25.1927 25.1925C27.6307 22.7545 29.0003 19.4478 29.0003 16C29.0003 12.5521 27.6307 9.24548 25.1927 6.80747ZM11.0002 25.7962V22H21.0002V25.7962C19.4508 26.5826 17.7377 26.9925 16.0002 26.9925C14.2626 26.9925 12.5496 26.5826 11.0002 25.7962ZM13.0002 18H19.0002V20H13.0002V18ZM14.7502 16L16.0002 9.99998L17.2502 16H14.7502ZM23.7777 23.7787C23.5277 24.0287 23.2677 24.2625 23.0002 24.4837V22C23.0002 21.4695 22.7894 20.9608 22.4144 20.5858C22.0393 20.2107 21.5306 20 21.0002 20V18C20.9995 17.5218 20.8276 17.0596 20.5155 16.6972C20.2034 16.3349 19.7718 16.0964 19.2989 16.025L17.9577 9.59247C17.8635 9.14301 17.6175 8.73965 17.2611 8.45014C16.9046 8.16062 16.4594 8.00259 16.0002 8.00259C15.5409 8.00259 15.0957 8.16062 14.7393 8.45014C14.3828 8.73965 14.1368 9.14301 14.0427 9.59247L12.7014 16.025C12.2285 16.0964 11.7969 16.3349 11.4848 16.6972C11.1727 17.0596 11.0008 17.5218 11.0002 18V20C10.4697 20 9.96102 20.2107 9.58595 20.5858C9.21087 20.9608 9.00016 21.4695 9.00016 22V24.4837C8.73266 24.2625 8.47266 24.0287 8.22266 23.7787C6.68409 22.2404 5.63625 20.2804 5.21166 18.1466C4.78707 16.0127 5.00479 13.8009 5.8373 11.7908C6.66981 9.7807 8.07971 8.06262 9.88869 6.85384C11.6977 5.64506 13.8245 4.99988 16.0002 4.99988C18.1758 4.99988 20.3026 5.64506 22.1116 6.85384C23.9206 8.06262 25.3305 9.7807 26.163 11.7908C26.9955 13.8009 27.2132 16.0127 26.7887 18.1466C26.3641 20.2804 25.3162 22.2404 23.7777 23.7787Z" fill="#343330"/>
</svg>
