<svg width="32" height="32" viewBox="0 0 32 32" fill="none" xmlns="http://www.w3.org/2000/svg">
<path d="M26.7076 16.7075L16.7076 26.7075C16.6147 26.8004 16.5044 26.8741 16.383 26.9244C16.2616 26.9747 16.1315 27.0005 16.0001 27.0005C15.8687 27.0005 15.7386 26.9747 15.6172 26.9244C15.4958 26.8741 15.3855 26.8004 15.2926 26.7075C15.1997 26.6146 15.126 26.5043 15.0757 26.3829C15.0254 26.2615 14.9995 26.1314 14.9995 26C14.9995 25.8686 15.0254 25.7385 15.0757 25.6171C15.126 25.4957 15.1997 25.3854 15.2926 25.2925L25.2926 15.2925C25.3855 15.1996 25.4958 15.1259 25.6172 15.0756C25.7386 15.0253 25.8687 14.9994 26.0001 14.9994C26.1315 14.9994 26.2616 15.0253 26.383 15.0756C26.5044 15.1259 26.6147 15.1996 26.7076 15.2925C26.8005 15.3854 26.8742 15.4957 26.9245 15.6171C26.9747 15.7385 27.0006 15.8686 27.0006 16C27.0006 16.1314 26.9747 16.2615 26.9245 16.3829C26.8742 16.5043 26.8005 16.6146 26.7076 16.7075ZM24.7076 4.29249C24.6147 4.19952 24.5044 4.12576 24.383 4.07543C24.2616 4.02511 24.1315 3.99921 24.0001 3.99921C23.8687 3.99921 23.7385 4.02511 23.6171 4.07543C23.4957 4.12576 23.3854 4.19952 23.2926 4.29249L4.29257 23.2925C4.10493 23.4801 3.99951 23.7346 3.99951 24C3.99951 24.2654 4.10493 24.5199 4.29257 24.7075C4.48021 24.8951 4.7347 25.0005 5.00007 25.0005C5.26543 25.0005 5.51993 24.8951 5.70757 24.7075L24.7076 5.70749C24.8005 5.61462 24.8743 5.50433 24.9246 5.38293C24.975 5.26154 25.0009 5.13141 25.0009 4.99999C25.0009 4.86858 24.975 4.73845 24.9246 4.61705C24.8743 4.49565 24.8005 4.38537 24.7076 4.29249Z" fill="#343330"/>
</svg>
