<svg width="32" height="32" viewBox="0 0 32 32" fill="none" xmlns="http://www.w3.org/2000/svg">
<path d="M29.3164 17.3837C29.478 17.3298 29.6232 17.2355 29.7381 17.1098C29.853 16.984 29.9339 16.831 29.9731 16.6652C30.0123 16.4994 30.0085 16.3264 29.962 16.1625C29.9156 15.9986 29.828 15.8493 29.7077 15.7287L15.2714 1.29248C15.0839 1.10508 14.8297 0.999817 14.5646 0.999817C14.2995 0.999817 14.0452 1.10508 13.8577 1.29248L8.78144 6.37498L5.70644 3.29248C5.5188 3.105 5.26437 2.99975 4.99912 2.99986C4.73388 2.99998 4.47954 3.10546 4.29207 3.2931C4.10459 3.48074 3.99933 3.73517 3.99945 4.00042C3.99957 4.26567 4.10505 4.52 4.29269 4.70748L7.36769 7.78248L1.87519 13.2712C1.31263 13.8338 0.996582 14.5969 0.996582 15.3925C0.996582 16.1881 1.31263 16.9511 1.87519 17.5137L12.4864 28.125C13.049 28.6875 13.8121 29.0036 14.6077 29.0036C15.4033 29.0036 16.1663 28.6875 16.7289 28.125L26.5402 18.3137L29.3164 17.3837ZM25.2927 16.7287L15.3139 26.7075C15.1264 26.8949 14.8722 27.0001 14.6071 27.0001C14.342 27.0001 14.0877 26.8949 13.9002 26.7075L3.29269 16.1C3.1053 15.9125 3.00003 15.6582 3.00003 15.3931C3.00003 15.128 3.1053 14.8737 3.29269 14.6862L8.78144 9.19623L12.4214 12.8362C12.022 13.5759 11.9021 14.4347 12.0837 15.2556C12.2654 16.0764 12.7364 16.8045 13.4107 17.3066C14.085 17.8087 14.9175 18.0513 15.7559 17.9901C16.5944 17.9289 17.3828 17.5679 17.977 16.9731C18.5712 16.3784 18.9315 15.5897 18.992 14.7512C19.0525 13.9126 18.8091 13.0804 18.3064 12.4065C17.8037 11.7327 17.0753 11.2623 16.2543 11.0814C15.4332 10.9005 14.5746 11.0211 13.8352 11.4212L10.1964 7.78248L14.5714 3.41373L27.1489 16L25.6839 16.4875C25.5367 16.5368 25.4029 16.6193 25.2927 16.7287ZM14.4389 13.44C14.7211 13.1034 15.1253 12.8926 15.5627 12.8538C16.0002 12.815 16.4351 12.9514 16.7721 13.2331C17.1091 13.5147 17.3205 13.9186 17.3599 14.356C17.3994 14.7934 17.2636 15.2286 16.9825 15.5659C16.7013 15.9033 16.2978 16.1153 15.8604 16.1554C15.4231 16.1955 14.9877 16.0604 14.6499 15.7797C14.3121 15.4991 14.0995 15.0958 14.0588 14.6585C14.0181 14.2213 14.1525 13.7857 14.4327 13.4475C14.4327 13.4475 14.4389 13.4412 14.4389 13.44ZM29.8327 20.44C29.7414 20.3028 29.6176 20.1903 29.4724 20.1125C29.3272 20.0347 29.165 19.994 29.0002 19.994C28.8354 19.994 28.6732 20.0347 28.528 20.1125C28.3827 20.1903 28.259 20.3028 28.1677 20.44C27.9464 20.7787 26.0002 23.7612 26.0002 26C26.0002 26.7956 26.3163 27.5587 26.8789 28.1213C27.4415 28.6839 28.2045 29 29.0002 29C29.7958 29 30.5589 28.6839 31.1215 28.1213C31.6841 27.5587 32.0002 26.7956 32.0002 26C32.0002 23.7612 30.0539 20.7787 29.8327 20.445V20.44ZM29.0002 27C28.735 27 28.4806 26.8946 28.2931 26.7071C28.1055 26.5196 28.0002 26.2652 28.0002 26C28.0002 25.15 28.5002 23.96 29.0002 22.99C29.5002 23.96 30.0002 25.1575 30.0002 26C30.0002 26.2652 29.8948 26.5196 29.7073 26.7071C29.5198 26.8946 29.2654 27 29.0002 27Z" fill="#343330"/>
</svg>
