<svg width="32" height="32" viewBox="0 0 32 32" fill="none" xmlns="http://www.w3.org/2000/svg">
<path d="M28.8301 3.17C28.4587 2.79847 28.0177 2.50375 27.5323 2.30268C27.0469 2.1016 26.5267 1.99811 26.0014 1.99811C25.476 1.99811 24.9558 2.1016 24.4704 2.30268C23.985 2.50375 23.5441 2.79847 23.1726 3.17C23.1551 3.1875 23.1376 3.20625 23.1201 3.22625L16.4439 11.0275L15.1251 9.705C14.8465 9.42626 14.5157 9.20514 14.1516 9.05428C13.7876 8.90342 13.3973 8.82577 13.0032 8.82577C12.6091 8.82577 12.2189 8.90342 11.8548 9.05428C11.4907 9.20514 11.1599 9.42626 10.8814 9.705L1.2951 19.2925C1.10771 19.48 1.00244 19.7343 1.00244 19.9994C1.00244 20.2645 1.10771 20.5187 1.2951 20.7063L11.2951 30.7063C11.4826 30.8936 11.7369 30.9989 12.002 30.9989C12.2671 30.9989 12.5213 30.8936 12.7089 30.7063L22.2951 21.125C22.5738 20.8464 22.795 20.5156 22.9458 20.1515C23.0967 19.7875 23.1743 19.3972 23.1743 19.0031C23.1743 18.609 23.0967 18.2188 22.9458 17.8547C22.795 17.4906 22.5738 17.1599 22.2951 16.8813L20.9726 15.56L28.7739 8.875C28.7926 8.8575 28.8126 8.84 28.8301 8.82125C29.5785 8.07134 29.9989 7.05512 29.9989 5.99563C29.9989 4.93614 29.5785 3.91992 28.8301 3.17ZM12.0001 28.5863L9.9151 26.5L12.7076 23.7063C12.8872 23.5172 12.9859 23.2654 12.9825 23.0047C12.9792 22.7439 12.8741 22.4948 12.6897 22.3104C12.5053 22.126 12.2562 22.0209 11.9954 22.0176C11.7347 22.0142 11.4829 22.1129 11.2939 22.2925L8.5001 25.085L6.9151 23.5L9.7076 20.7063C9.88722 20.5172 9.98588 20.2654 9.98254 20.0047C9.9792 19.7439 9.87413 19.4948 9.68973 19.3104C9.50533 19.126 9.25619 19.0209 8.99543 19.0176C8.73467 19.0142 8.48291 19.1129 8.29385 19.2925L5.5001 22.085L3.41385 20L9.0001 14.4138L17.5864 23L12.0001 28.5863ZM27.4401 7.3875L18.8514 14.7388C18.7465 14.8283 18.6613 14.9387 18.6011 15.0628C18.5409 15.1869 18.5071 15.3221 18.5017 15.4599C18.4963 15.5978 18.5194 15.7352 18.5697 15.8636C18.62 15.9921 18.6963 16.1087 18.7939 16.2063L20.8751 18.2925C21.0625 18.48 21.1678 18.7343 21.1678 18.9994C21.1678 19.2645 21.0625 19.5187 20.8751 19.7063L19.0001 21.5813L10.4151 13L12.2901 11.125C12.4776 10.9376 12.7319 10.8323 12.997 10.8323C13.2621 10.8323 13.5163 10.9376 13.7039 11.125L15.7901 13.2113C15.8876 13.3088 16.0043 13.3851 16.1327 13.4354C16.2612 13.4857 16.3986 13.5088 16.5364 13.5034C16.6743 13.498 16.8095 13.4642 16.9336 13.404C17.0577 13.3438 17.168 13.2586 17.2576 13.1538L24.6126 4.56C24.9907 4.20076 25.4942 4.00345 26.0158 4.01012C26.5373 4.0168 27.0356 4.22694 27.4044 4.59575C27.7732 4.96455 27.9833 5.46283 27.99 5.98436C27.9967 6.50588 27.7993 7.00938 27.4401 7.3875Z" fill="#343330"/>
</svg>
