<svg width="32" height="32" viewBox="0 0 32 32" fill="none" xmlns="http://www.w3.org/2000/svg">
<path d="M28.1952 10.945L17.2052 2.40627L17.1827 2.38877C16.8402 2.13601 16.4258 1.99963 16.0002 1.99963C15.5746 1.99963 15.1601 2.13601 14.8177 2.38877L14.7952 2.40627L3.80518 10.945C3.47247 11.193 3.22514 11.5384 3.09748 11.9333C2.96982 12.3281 2.96814 12.7529 3.09268 13.1488L7.09269 26.5913L7.10018 26.6125C7.22861 27.0155 7.48196 27.3672 7.82354 27.6166C8.16512 27.8661 8.57722 28.0004 9.00019 28H23.0002C23.4238 28.0012 23.8367 27.8672 24.1791 27.6177C24.5214 27.3682 24.7753 27.0161 24.9039 26.6125L24.9114 26.5913L28.9114 13.1488C29.0356 12.7525 29.0333 12.3275 28.905 11.9326C28.7766 11.5377 28.5286 11.1925 28.1952 10.945ZM26.9927 12.57L23.0002 26H9.00019L5.00018 12.57L4.99268 12.5488L5.01518 12.5313L16.0002 4.00002L26.9777 12.5288L27.0002 12.5463L26.9927 12.57Z" fill="#343330"/>
</svg>
