<svg width="32" height="32" viewBox="0 0 32 32" fill="none" xmlns="http://www.w3.org/2000/svg">
<path d="M28.8301 6.16995C28.4587 5.79842 28.0177 5.5037 27.5323 5.30263C27.047 5.10155 26.5268 4.99806 26.0014 4.99806C25.476 4.99806 24.9558 5.10155 24.4705 5.30263C23.9851 5.5037 23.5441 5.79842 23.1726 6.16995C22.9209 6.42157 22.704 6.70576 22.5276 7.01495L19.0001 6.05245C19.011 5.25665 18.7843 4.47569 18.3489 3.80947C17.9135 3.14324 17.2893 2.62204 16.5561 2.31254C15.8228 2.00303 15.014 1.9193 14.2329 2.07204C13.4518 2.22477 12.734 2.60705 12.1714 3.16995C11.5707 3.77212 11.1771 4.54981 11.0477 5.39048C10.9182 6.23116 11.0596 7.09122 11.4514 7.8462L7.2089 11.665C6.43917 11.1562 5.51743 10.9287 4.59939 11.021C3.68135 11.1132 2.82329 11.5195 2.17015 12.1712C1.43986 12.896 1.01693 13.8742 0.989243 14.9027C0.96156 15.9313 1.33126 16.9309 2.0215 17.6939C2.71175 18.4568 3.66945 18.9245 4.69558 18.9997C5.72171 19.0748 6.73734 18.7517 7.5314 18.0975L16.2814 24.5175C16.0014 25.2187 15.9255 25.9848 16.0627 26.7274C16.1998 27.4699 16.5443 28.1584 17.0563 28.7133C17.5683 29.2683 18.227 29.667 18.9561 29.8633C19.6852 30.0597 20.4549 30.0456 21.1764 29.8228C21.8978 29.6 22.5415 29.1776 23.0329 28.6043C23.5244 28.0311 23.8435 27.3305 23.9535 26.5834C24.0635 25.8364 23.9597 25.0735 23.6543 24.383C23.3489 23.6924 22.8543 23.1024 22.2276 22.6812L25.6514 12.9825C25.7664 12.9925 25.8814 12.9975 25.9964 12.9975C26.7874 12.9973 27.5605 12.7627 28.2182 12.3233C28.8758 11.8838 29.3884 11.2592 29.6912 10.5285C29.9939 9.79779 30.0732 8.9937 29.9191 8.21791C29.7649 7.44211 29.3843 6.72943 28.8251 6.16995H28.8301ZM13.5801 4.5837C13.8599 4.30422 14.2163 4.11396 14.6042 4.03697C14.9921 3.95998 15.3941 3.99972 15.7595 4.15116C16.1248 4.3026 16.437 4.55894 16.6567 4.88779C16.8763 5.21664 16.9936 5.60324 16.9936 5.9987C16.9936 6.39417 16.8763 6.78076 16.6567 7.10961C16.437 7.43846 16.1248 7.69481 15.7595 7.84625C15.3941 7.99769 14.9921 8.03743 14.6042 7.96044C14.2163 7.88345 13.8599 7.69319 13.5801 7.4137C13.3945 7.22763 13.2474 7.00679 13.1472 6.76382C13.047 6.52084 12.9956 6.2605 12.9961 5.99767C12.9965 5.73484 13.0488 5.47467 13.1499 5.23206C13.251 4.98944 13.3989 4.76912 13.5851 4.5837H13.5801ZM3.58015 16.415C3.3942 16.2292 3.24668 16.0086 3.14603 15.7658C3.04538 15.523 2.99358 15.2628 2.99358 15C2.99358 14.7371 3.04538 14.4769 3.14603 14.2341C3.24668 13.9913 3.3942 13.7707 3.58015 13.585C3.85994 13.3055 4.21631 13.1152 4.60421 13.0382C4.99212 12.9612 5.39413 13.001 5.75946 13.1524C6.12478 13.3038 6.43701 13.5602 6.65667 13.889C6.87633 14.2179 6.99358 14.6045 6.99358 15C6.99358 15.3954 6.87633 15.782 6.65667 16.1109C6.43701 16.4397 6.12478 16.6961 5.75946 16.8475C5.39413 16.9989 4.99212 17.0387 4.60421 16.9617C4.21631 16.8847 3.85994 16.6944 3.58015 16.415ZM21.4114 27.415C21.0363 27.7901 20.5275 28.0008 19.997 28.0008C19.4665 28.0008 18.9578 27.7901 18.5826 27.415C18.2075 27.0398 17.9968 26.5311 17.9968 26.0006C17.9968 25.4701 18.2075 24.9613 18.5826 24.5862C18.7684 24.4005 18.9889 24.2531 19.2316 24.1526C19.4742 24.0521 19.7344 24.0004 19.997 24.0004C20.2597 24.0004 20.5198 24.0521 20.7625 24.1526C21.0052 24.2531 21.2257 24.4005 21.4114 24.5862C21.5971 24.7719 21.7445 24.9924 21.845 25.2351C21.9455 25.4778 21.9973 25.7379 21.9973 26.0006C21.9973 26.2633 21.9455 26.5234 21.845 26.766C21.7445 27.0087 21.5971 27.2292 21.4114 27.415ZM20.3426 22.0175C19.3057 21.9271 18.2743 22.2446 17.4676 22.9025L8.71765 16.4825C8.9297 15.9475 9.02447 15.3733 8.99558 14.7986C8.96668 14.224 8.81478 13.6622 8.55015 13.1512L12.7939 9.33245C13.2505 9.63505 13.7643 9.84066 14.3036 9.93654C14.8428 10.0324 15.396 10.0165 15.9289 9.88983C16.4618 9.76315 16.963 9.52837 17.4014 9.20006C17.8398 8.87175 18.2061 8.45689 18.4776 7.9812L22.0001 8.94495C21.9906 9.60989 22.147 10.2667 22.4552 10.856C22.7634 11.4453 23.2136 11.9484 23.7651 12.32L20.3426 22.0175ZM27.4126 10.4125C27.2298 10.6101 27.0089 10.7688 26.7632 10.879C26.5176 10.9892 26.2522 11.0486 25.983 11.0538C25.7138 11.0589 25.4463 11.0097 25.1966 10.909C24.9469 10.8083 24.7201 10.6582 24.5298 10.4677C24.3395 10.2773 24.1896 10.0503 24.0891 9.80054C23.9887 9.55074 23.9397 9.28323 23.9451 9.01403C23.9505 8.74484 24.0102 8.47951 24.1206 8.23394C24.231 7.98838 24.3899 7.76764 24.5876 7.58495C24.9628 7.20984 25.4715 6.9991 26.002 6.9991C26.5325 6.9991 27.0413 7.20984 27.4164 7.58495C27.7915 7.96007 28.0023 8.46884 28.0023 8.99933C28.0023 9.52982 27.7915 10.0386 27.4164 10.4137L27.4126 10.4125Z" fill="#343330"/>
</svg>
