<svg width="32" height="32" viewBox="0 0 32 32" fill="none" xmlns="http://www.w3.org/2000/svg">
<path d="M19.7161 14.1413C19.6418 14.0328 19.5896 13.9108 19.5625 13.7821C19.5354 13.6535 19.5339 13.5207 19.5582 13.3915C19.5825 13.2623 19.632 13.1391 19.7039 13.029C19.7758 12.919 19.8687 12.8242 19.9773 12.7501L28.4348 6.96255C28.6539 6.82703 28.9168 6.78126 29.1688 6.83479C29.4208 6.88833 29.6424 7.03703 29.7874 7.24991C29.9324 7.4628 29.9897 7.72344 29.9473 7.97753C29.9049 8.23161 29.7661 8.45954 29.5598 8.6138L21.1011 14.4013C20.9353 14.5156 20.7387 14.5767 20.5373 14.5763C20.3755 14.5757 20.2162 14.5358 20.0731 14.46C19.9301 14.3842 19.8076 14.2749 19.7161 14.1413ZM29.8248 24.7776C29.675 24.9963 29.4444 25.1466 29.1837 25.1954C28.923 25.2442 28.6537 25.1874 28.4348 25.0376L16.9998 17.2126L11.6861 20.8476C12.0915 21.8771 12.1034 23.02 11.7195 24.0578C11.3355 25.0956 10.5827 25.9555 9.60474 26.4733C8.62684 26.9911 7.49244 27.1304 6.41829 26.8646C5.34415 26.5989 4.40558 25.9467 3.78191 25.0327C3.15824 24.1186 2.8932 23.0069 3.03743 21.9098C3.18166 20.8127 3.72505 19.8072 4.56377 19.0854C5.40249 18.3637 6.47774 17.9762 7.58407 17.9971C8.69041 18.0181 9.75025 18.4459 10.5611 19.1988L15.2286 16.0001L10.5548 12.8013C9.74674 13.5504 8.69103 13.9755 7.58934 13.9956C6.48764 14.0157 5.41714 13.6293 4.58225 12.9102C3.74737 12.1911 3.20661 11.1897 3.06322 10.0972C2.91984 9.00465 3.18389 7.8976 3.80494 6.98742C4.42599 6.07723 5.36053 5.42768 6.43011 5.16281C7.49968 4.89794 8.62934 5.03631 9.60337 5.55148C10.5774 6.06666 11.3276 6.92255 11.7106 7.95572C12.0936 8.98889 12.0827 10.1269 11.6798 11.1526L29.5548 23.3863C29.6641 23.4597 29.7579 23.554 29.8306 23.6638C29.9034 23.7735 29.9538 23.8966 29.9788 24.0258C30.0039 24.1551 30.0032 24.2881 29.9768 24.4171C29.9504 24.5461 29.8987 24.6686 29.8248 24.7776ZM9.99985 22.5001C9.99997 21.9217 9.79954 21.3611 9.4327 20.9139C9.06586 20.4668 8.55532 20.1606 7.98806 20.0477C7.4208 19.9347 6.83193 20.0219 6.32177 20.2945C5.81162 20.567 5.41176 21.0081 5.19032 21.5424C4.96888 22.0767 4.93957 22.6713 5.10737 23.2248C5.27517 23.7783 5.62971 24.2565 6.11058 24.578C6.59144 24.8994 7.16888 25.0441 7.74449 24.9875C8.32011 24.9309 8.8583 24.6765 9.26735 24.2676C9.50034 24.0361 9.68507 23.7607 9.81081 23.4572C9.93655 23.1538 10.0008 22.8285 9.99985 22.5001ZM9.26735 11.2663C9.61705 10.9167 9.85523 10.4712 9.95176 9.98627C10.0483 9.5013 9.99882 8.9986 9.80962 8.54174C9.62042 8.08488 9.29999 7.69439 8.88885 7.41965C8.47771 7.14491 7.99433 6.99827 7.49985 6.99827C7.00536 6.99827 6.52198 7.14491 6.11084 7.41965C5.6997 7.69439 5.37927 8.08488 5.19008 8.54174C5.00088 8.9986 4.95141 9.5013 5.04794 9.98627C5.14446 10.4712 5.38264 10.9167 5.73235 11.2663C5.96321 11.5006 6.23837 11.6867 6.5418 11.8137C6.84524 11.9407 7.1709 12.0061 7.49985 12.0061C7.82879 12.0061 8.15446 11.9407 8.45789 11.8137C8.76133 11.6867 9.03648 11.5006 9.26735 11.2663Z" fill="#343330"/>
</svg>
