<svg width="32" height="32" viewBox="0 0 32 32" fill="none" xmlns="http://www.w3.org/2000/svg">
<path d="M25.7089 23.7075C25.5389 23.8771 25.4041 24.0786 25.3121 24.3004C25.2202 24.5222 25.1728 24.7599 25.1728 25C25.1728 25.2401 25.2202 25.4778 25.3121 25.6996C25.4041 25.9214 25.5389 26.1229 25.7089 26.2925C25.8965 26.4801 26.0019 26.7346 26.0019 27C26.0019 27.2654 25.8965 27.5199 25.7089 27.7075C25.5212 27.8951 25.2667 28.0005 25.0014 28.0005C24.736 28.0005 24.4815 27.8951 24.2939 27.7075C23.576 26.9893 23.1728 26.0154 23.1728 25C23.1728 23.9846 23.576 23.0107 24.2939 22.2925L25.4664 21.1212C25.8093 20.7776 26.0017 20.3118 26.0012 19.8263C26.0008 19.3409 25.8075 18.8755 25.4639 18.5325C25.1202 18.1895 24.6544 17.9971 24.169 17.9976C23.6835 17.9981 23.2181 18.1914 22.8751 18.535L14.5351 26.875C13.8081 27.5439 12.8507 27.906 11.863 27.8855C10.8753 27.865 9.93375 27.4635 9.23519 26.7649C8.53662 26.0663 8.13511 25.1248 8.1146 24.1371C8.09408 23.1494 8.45614 22.192 9.1251 21.465L21.4651 9.12499C21.6352 8.95493 21.7701 8.75304 21.8621 8.53084C21.9541 8.30864 22.0015 8.0705 22.0015 7.82999C22.0015 7.58949 21.9541 7.35134 21.8621 7.12914C21.7701 6.90695 21.6352 6.70505 21.4651 6.53499C21.295 6.36493 21.0931 6.23003 20.871 6.13799C20.6488 6.04596 20.4106 5.99859 20.1701 5.99859C19.9296 5.99859 19.6914 6.04596 19.4693 6.13799C19.2471 6.23003 19.0452 6.36493 18.8751 6.53499L10.5351 14.875C9.80813 15.5439 8.85072 15.906 7.86301 15.8855C6.8753 15.865 5.93375 15.4635 5.23519 14.7649C4.53662 14.0663 4.13511 13.1248 4.1146 12.1371C4.09408 11.1494 4.45614 10.192 5.1251 9.46499L10.2926 4.29249C10.4802 4.10502 10.7347 3.99976 10.9999 3.99988C11.2652 4 11.5195 4.10548 11.707 4.29312C11.8944 4.48076 11.9997 4.73519 11.9996 5.00043C11.9995 5.26568 11.894 5.52002 11.7064 5.70749L6.53385 10.875C6.1904 11.2186 5.99751 11.6846 5.99763 12.1704C5.99774 12.6563 6.19085 13.1222 6.53448 13.4656C6.8781 13.8091 7.34408 14.002 7.82992 14.0018C8.31575 14.0017 8.78164 13.8086 9.1251 13.465L17.4651 5.12499C18.1921 4.45604 19.1495 4.09397 20.1372 4.11449C21.1249 4.135 22.0665 4.53651 22.765 5.23508C23.4636 5.93364 23.8651 6.87519 23.8856 7.8629C23.9061 8.85061 23.5441 9.80802 22.8751 10.535L10.5351 22.875C10.1916 23.2184 9.99869 23.6843 9.99869 24.17C9.99869 24.6557 10.1916 25.1215 10.5351 25.465C10.8786 25.8084 11.3444 26.0014 11.8301 26.0014C12.3158 26.0014 12.7816 25.8084 13.1251 25.465L21.4651 17.125C22.1921 16.456 23.1495 16.094 24.1372 16.1145C25.1249 16.135 26.0665 16.5365 26.765 17.2351C27.4636 17.9336 27.8651 18.8752 27.8856 19.8629C27.9061 20.8506 27.5441 21.808 26.8751 22.535L25.7089 23.7075Z" fill="#343330"/>
</svg>
