<svg width="32" height="32" viewBox="0 0 32 32" fill="none" xmlns="http://www.w3.org/2000/svg">
<path d="M1.50019 13.8751L15.5002 21.8751C15.6513 21.9614 15.8224 22.0069 15.9964 22.0069C16.1705 22.0069 16.3416 21.9614 16.4927 21.8751L30.4927 13.8751C30.646 13.7877 30.7734 13.6613 30.8621 13.5087C30.9507 13.3561 30.9974 13.1828 30.9974 13.0063C30.9974 12.8298 30.9507 12.6565 30.8621 12.5039C30.7734 12.3514 30.646 12.225 30.4927 12.1376L16.4927 4.13756C16.3416 4.05118 16.1705 4.00574 15.9964 4.00574C15.8224 4.00574 15.6513 4.05118 15.5002 4.13756L1.50019 12.1376C1.34688 12.225 1.21944 12.3514 1.13078 12.5039C1.04213 12.6565 0.995438 12.8298 0.995438 13.0063C0.995438 13.1828 1.04213 13.3561 1.13078 13.5087C1.21944 13.6613 1.34688 13.7877 1.50019 13.8751ZM16.0002 6.15131L27.9839 13.0001L16.0002 19.8488L4.01644 13.0001L16.0002 6.15131ZM30.8677 17.5001C30.9347 17.6143 30.9784 17.7406 30.9961 17.8718C31.0139 18.003 31.0055 18.1364 30.9713 18.2644C30.9371 18.3923 30.8779 18.5121 30.797 18.617C30.7161 18.7218 30.6152 18.8095 30.5002 18.8751L16.5002 26.8751C16.3491 26.9614 16.178 27.0069 16.0039 27.0069C15.8299 27.0069 15.6588 26.9614 15.5077 26.8751L1.50019 18.8751C1.38569 18.8094 1.28525 18.7218 1.2046 18.6173C1.12394 18.5129 1.06466 18.3935 1.03013 18.2661C0.995593 18.1387 0.986491 18.0058 1.00334 17.8749C1.02019 17.744 1.06265 17.6177 1.12831 17.5032C1.19397 17.3887 1.28154 17.2882 1.38602 17.2076C1.4905 17.1269 1.60984 17.0677 1.73723 17.0331C1.99451 16.9634 2.26895 16.9987 2.50019 17.1313L16.0002 24.8488L29.5002 17.1313C29.6141 17.0655 29.74 17.0229 29.8704 17.0058C30.0009 16.9888 30.1334 16.9976 30.2605 17.0319C30.3875 17.0661 30.5065 17.1251 30.6107 17.2054C30.7149 17.2858 30.8023 17.3859 30.8677 17.5001Z" fill="#343330"/>
</svg>
