<svg width="32" height="32" viewBox="0 0 32 32" fill="none" xmlns="http://www.w3.org/2000/svg">
<path d="M21.8289 10.1687C21.4959 8.37796 20.68 6.7122 19.4695 5.35122C18.2589 3.99025 16.6996 2.98576 14.9599 2.44617C13.2202 1.90659 11.3662 1.85241 9.59797 2.28948C7.82973 2.72656 6.21445 3.63828 4.92649 4.92625C3.63853 6.21421 2.7268 7.82949 2.28973 9.59773C1.85265 11.366 1.90683 13.22 2.44642 14.9597C2.986 16.6994 3.99049 18.2587 5.35147 19.4692C6.71244 20.6798 8.3782 21.4956 10.1689 21.8287C10.502 23.6194 11.3179 25.2852 12.5284 26.6462C13.739 28.0072 15.2983 29.0116 17.038 29.5512C18.7777 30.0908 20.6317 30.145 22.3999 29.7079C24.1682 29.2708 25.7834 28.3591 27.0714 27.0712C28.3594 25.7832 29.2711 24.1679 29.7082 22.3997C30.1452 20.6314 30.0911 18.7774 29.5515 17.0377C29.0119 15.298 28.0074 13.7387 26.6464 12.5282C25.2854 11.3176 23.6197 10.5018 21.8289 10.1687ZM28.0002 20C28.0002 20.19 27.9914 20.375 27.9777 20.5637L21.7277 14.3137C21.89 13.6371 21.9813 12.9455 22.0002 12.25C23.7201 12.6898 25.2442 13.6909 26.331 15.0947C27.4178 16.4984 28.0052 18.2247 28.0002 20ZM18.3252 19.7387L24.9014 26.3162C24.2855 26.795 23.6029 27.1812 22.8752 27.4625L16.3927 20.98C17.0821 20.6413 17.7305 20.2249 18.3252 19.7387ZM19.7389 18.325C20.2249 17.7311 20.6414 17.0835 20.9802 16.395L27.4627 22.875C27.1812 23.6018 26.7951 24.2836 26.3164 24.8987L19.7389 18.325ZM4.0002 12C4.0002 10.4177 4.46939 8.87098 5.34844 7.55539C6.22749 6.2398 7.47692 5.21442 8.93873 4.60892C10.4005 4.00342 12.0091 3.84499 13.5609 4.15367C15.1128 4.46235 16.5382 5.22428 17.6571 6.3431C18.7759 7.46192 19.5378 8.88738 19.8465 10.4392C20.1552 11.9911 19.9967 13.5996 19.3912 15.0614C18.7857 16.5232 17.7604 17.7727 16.4448 18.6517C15.1292 19.5308 13.5824 20 12.0002 20C9.87918 19.9976 7.84569 19.154 6.3459 17.6542C4.84611 16.1545 4.00251 14.121 4.0002 12ZM12.2502 22C12.9451 21.983 13.6363 21.8938 14.3127 21.7337L20.5627 27.9837C20.3764 27.9975 20.1877 28.0062 19.9989 28.0062C18.223 28.0106 16.4965 27.4221 15.0928 26.3341C13.6892 25.2462 12.6888 23.7209 12.2502 22Z" fill="#343330"/>
</svg>
