<svg width="32" height="32" viewBox="0 0 32 32" fill="none" xmlns="http://www.w3.org/2000/svg">
<path d="M29.5999 23.5112L18.6686 4.52746C18.3955 4.06237 18.0055 3.67673 17.5374 3.40879C17.0693 3.14084 16.5393 2.99988 15.9999 2.99988C15.4605 2.99988 14.9305 3.14084 14.4624 3.40879C13.9943 3.67673 13.6043 4.06237 13.3311 4.52746L2.39988 23.5112C2.13705 23.9611 1.99854 24.4727 1.99854 24.9937C1.99854 25.5147 2.13705 26.0264 2.39988 26.4762C2.66944 26.9442 3.05872 27.332 3.52773 27.5998C3.99674 27.8676 4.52858 28.0057 5.06863 28H26.9311C27.4707 28.0053 28.0021 27.8669 28.4706 27.5992C28.9391 27.3314 29.328 26.9438 29.5974 26.4762C29.8606 26.0266 29.9995 25.5151 30 24.994C30.0004 24.473 29.8623 23.9613 29.5999 23.5112ZM27.8661 25.475C27.7708 25.6375 27.634 25.7718 27.4697 25.8641C27.3054 25.9563 27.1195 26.0032 26.9311 26H5.06863C4.88022 26.0032 4.69434 25.9563 4.53004 25.8641C4.36574 25.7718 4.22892 25.6375 4.13363 25.475C4.04731 25.3288 4.00177 25.1622 4.00177 24.9925C4.00177 24.8227 4.04731 24.6561 4.13363 24.51L15.0649 5.52621C15.1621 5.36443 15.2995 5.23055 15.4638 5.13761C15.6281 5.04467 15.8136 4.99583 16.0024 4.99583C16.1911 4.99583 16.3767 5.04467 16.5409 5.13761C16.7052 5.23055 16.8427 5.36443 16.9399 5.52621L27.8711 24.51C27.9567 24.6566 28.0014 24.8234 28.0005 24.9931C27.9996 25.1629 27.9532 25.3293 27.8661 25.475Z" fill="#343330"/>
</svg>
