<svg width="32" height="32" viewBox="0 0 32 32" fill="none" xmlns="http://www.w3.org/2000/svg">
<path d="M19.9999 27C19.9999 27.2652 19.8945 27.5195 19.707 27.7071C19.5194 27.8946 19.2651 28 18.9999 28H12.9999C12.7347 28 12.4803 27.8946 12.2928 27.7071C12.1052 27.5195 11.9999 27.2652 11.9999 27C11.9999 26.7347 12.1052 26.4804 12.2928 26.2929C12.4803 26.1053 12.7347 26 12.9999 26H18.9999C19.2651 26 19.5194 26.1053 19.707 26.2929C19.8945 26.4804 19.9999 26.7347 19.9999 27ZM29.5999 23.5112L29.0174 22.5C28.8848 22.2702 28.6663 22.1026 28.4101 22.0339C28.1539 21.9652 27.8809 22.0011 27.6511 22.1337C27.4214 22.2663 27.2537 22.4848 27.185 22.741C27.1164 22.9972 27.1523 23.2702 27.2849 23.5L27.8661 24.5112C27.9524 24.6574 27.998 24.824 27.998 24.9937C27.998 25.1634 27.9524 25.3301 27.8661 25.4762C27.7708 25.6388 27.634 25.7731 27.4697 25.8653C27.3054 25.9576 27.1195 26.0045 26.9311 26.0012H23.9999C23.7347 26.0012 23.4803 26.1066 23.2928 26.2941C23.1052 26.4816 22.9999 26.736 22.9999 27.0012C22.9999 27.2664 23.1052 27.5208 23.2928 27.7083C23.4803 27.8959 23.7347 28.0012 23.9999 28.0012H26.9311C27.4707 28.0065 28.0021 27.8682 28.4706 27.6004C28.9391 27.3326 29.328 26.9451 29.5974 26.4775C29.8608 26.0277 29.9999 25.5159 30.0003 24.9947C30.0008 24.4734 29.8626 23.9614 29.5999 23.5112ZM7.99988 26H5.06863C4.88022 26.0032 4.69434 25.9563 4.53004 25.8641C4.36574 25.7718 4.22892 25.6375 4.13363 25.475C4.04731 25.3288 4.00177 25.1622 4.00177 24.9925C4.00177 24.8227 4.04731 24.6561 4.13363 24.51L4.71488 23.5C4.78054 23.3862 4.82315 23.2606 4.84028 23.1304C4.85741 23.0002 4.84872 22.8678 4.81471 22.741C4.7807 22.6141 4.72204 22.4952 4.64207 22.391C4.56209 22.2868 4.46238 22.1994 4.34863 22.1337C4.23487 22.0681 4.10929 22.0254 3.97907 22.0083C3.84884 21.9912 3.71652 21.9999 3.58965 22.0339C3.46278 22.0679 3.34385 22.1265 3.23966 22.2065C3.13546 22.2865 3.04804 22.3862 2.98238 22.5L2.39988 23.51C2.13705 23.9598 1.99854 24.4715 1.99854 24.9925C1.99854 25.5135 2.13705 26.0251 2.39988 26.475C2.66928 26.9432 3.05849 27.3312 3.52751 27.5993C3.99653 27.8673 4.52846 28.0056 5.06863 28H7.99988C8.26509 28 8.51945 27.8946 8.70698 27.7071C8.89452 27.5195 8.99988 27.2652 8.99988 27C8.99988 26.7347 8.89452 26.4804 8.70698 26.2929C8.51945 26.1053 8.26509 26 7.99988 26ZM25.2724 19C25.4479 19 25.6204 18.9538 25.7725 18.8661C25.9245 18.7783 26.0508 18.6521 26.1386 18.5001C26.2264 18.348 26.2726 18.1756 26.2726 18C26.2726 17.8245 26.2264 17.652 26.1386 17.5L23.2636 12.5C23.131 12.2702 22.9126 12.1026 22.6564 12.0339C22.4001 11.9652 22.1271 12.0011 21.8974 12.1337C21.6676 12.2663 21.5 12.4848 21.4313 12.741C21.3626 12.9972 21.3985 13.2702 21.5311 13.5L24.4061 18.5C24.4939 18.652 24.6202 18.7783 24.7722 18.866C24.9243 18.9538 25.0968 19 25.2724 19ZM18.6686 4.52746C18.3955 4.06237 18.0055 3.67673 17.5374 3.40879C17.0693 3.14084 16.5393 2.99988 15.9999 2.99988C15.4605 2.99988 14.9305 3.14084 14.4624 3.40879C13.9943 3.67673 13.6043 4.06237 13.3311 4.52746L11.6249 7.49996C11.4923 7.7297 11.4564 8.00272 11.525 8.25894C11.5937 8.51516 11.7614 8.7336 11.9911 8.86621C12.2209 8.99882 12.4939 9.03473 12.7501 8.96604C13.0063 8.89736 13.2248 8.7297 13.3574 8.49996L15.0699 5.52746C15.1671 5.36568 15.3045 5.2318 15.4688 5.13886C15.6331 5.04592 15.8186 4.99708 16.0074 4.99708C16.1961 4.99708 16.3817 5.04592 16.5459 5.13886C16.7102 5.2318 16.8477 5.36568 16.9449 5.52746L18.6474 8.49996C18.7353 8.6522 18.8617 8.77857 19.014 8.86635C19.1663 8.95414 19.3391 9.00022 19.5149 8.99996C19.6905 9.00056 19.863 8.9544 20.0149 8.86621C20.2436 8.7326 20.41 8.51369 20.4775 8.25754C20.545 8.0014 20.5081 7.72893 20.3749 7.49996L18.6686 4.52746ZM10.1061 12.1337C9.87651 12.0014 9.60378 11.9657 9.34784 12.0344C9.09191 12.1031 8.87369 12.2705 8.74113 12.5L5.86613 17.5C5.80047 17.6138 5.75787 17.7395 5.74077 17.8698C5.72367 18.0001 5.73241 18.1325 5.76647 18.2594C5.80054 18.3863 5.85928 18.5053 5.93932 18.6095C6.01937 18.7137 6.11916 18.8012 6.233 18.8668C6.34684 18.9325 6.4725 18.9751 6.6028 18.9922C6.7331 19.0093 6.86549 19.0006 6.99242 18.9665C7.11935 18.9324 7.23832 18.8737 7.34255 18.7936C7.44677 18.7136 7.53421 18.6138 7.59988 18.5L10.4749 13.5C10.5405 13.3861 10.5829 13.2603 10.5999 13.13C10.6169 12.9997 10.608 12.8673 10.5737 12.7404C10.5395 12.6135 10.4805 12.4946 10.4003 12.3905C10.3201 12.2864 10.2201 12.1991 10.1061 12.1337Z" fill="#343330"/>
</svg>
