<svg width="32" height="32" viewBox="0 0 32 32" fill="none" xmlns="http://www.w3.org/2000/svg">
<path d="M21.8285 10.1713C21.496 8.38018 20.6805 6.71394 19.4701 5.35249C18.2596 3.99103 16.7003 2.98608 14.9605 2.44615C13.2206 1.90621 11.3663 1.85181 9.59775 2.28881C7.82922 2.72581 6.21367 3.63761 4.92551 4.92576C3.63736 6.21391 2.72556 7.82947 2.28856 9.59799C1.85156 11.3665 1.90597 13.2208 2.4459 14.9607C2.98584 16.7006 3.99079 18.2599 5.35224 19.4703C6.7137 20.6807 8.37993 21.4962 10.171 21.8288C10.5036 23.6199 11.3191 25.2861 12.5295 26.6476C13.7399 28.009 15.2993 29.014 17.0391 29.5539C18.779 30.0939 20.6333 30.1483 22.4018 29.7113C24.1704 29.2743 25.7859 28.3625 27.0741 27.0743C28.3622 25.7862 29.274 24.1706 29.711 22.4021C30.148 20.6335 30.0936 18.7792 29.5537 17.0394C29.0137 15.2995 28.0088 13.7402 26.6473 12.5298C25.2859 11.3194 23.6196 10.5038 21.8285 10.1713ZM27.9998 20C27.9998 20.19 27.991 20.375 27.9773 20.5638L21.7273 14.3138C21.8897 13.6372 21.981 12.9456 21.9998 12.25C23.7165 12.6957 25.2369 13.6984 26.3227 15.1008C27.4085 16.5033 27.9983 18.2264 27.9998 20ZM5.68354 7.09878L12.261 13.675C11.775 14.2689 11.3586 14.9165 11.0198 15.605L4.53729 9.12503C4.81853 8.39734 5.2047 7.7147 5.68354 7.09878ZM9.12479 4.53753L15.6073 11.02C14.9187 11.3588 14.2712 11.7753 13.6773 12.2613L7.09854 5.68378C7.71445 5.20495 8.3971 4.81878 9.12479 4.53753ZM16.8073 18.3913L13.611 15.195C14.0635 14.5951 14.5974 14.0612 15.1973 13.6088L18.3935 16.805C17.9403 17.4051 17.4056 17.939 16.8048 18.3913H16.8073ZM19.4135 15L16.9998 12.5863C17.9523 12.1983 18.9712 11.9992 19.9998 12C20.0007 13.0286 19.8015 14.0475 19.4135 15ZM12.586 17L14.9998 19.4138C14.0472 19.8018 13.0283 20.0009 11.9998 20C11.9989 18.9715 12.198 17.9526 12.586 17ZM18.3248 19.7388L24.901 26.3163C24.2851 26.7951 23.6025 27.1813 22.8748 27.4625L16.3923 20.98C17.0817 20.6414 17.7301 20.2249 18.3248 19.7388ZM19.7385 18.325C20.2245 17.7311 20.641 17.0836 20.9798 16.395L27.4623 22.875C27.1808 23.6019 26.7947 24.2836 26.316 24.8988L19.7385 18.325ZM19.7498 10.0063C19.0553 10.0232 18.3645 10.1124 17.6885 10.2725L11.4385 4.02253C11.6248 4.00878 11.8098 4.00003 11.9998 4.00003C13.7743 4.00186 15.498 4.59259 16.9006 5.67959C18.3031 6.76659 19.3053 8.28838 19.7498 10.0063ZM3.99979 12C3.99979 11.81 4.00854 11.625 4.02229 11.4363L10.2723 17.6863C10.112 18.3631 10.0228 19.0547 10.006 19.75C8.28813 19.3055 6.76635 18.3034 5.67935 16.9008C4.59235 15.4982 4.00161 13.7745 3.99979 12ZM12.2498 22C12.9443 21.9831 13.6351 21.8939 14.311 21.7338L20.561 27.9838C20.3748 27.9975 20.186 28.0063 19.9973 28.0063C18.2232 28.0039 16.5001 27.4129 15.098 26.326C13.696 25.239 12.6942 23.7175 12.2498 22Z" fill="#343330"/>
</svg>
