<svg width="32" height="32" viewBox="0 0 32 32" fill="none" xmlns="http://www.w3.org/2000/svg">
<path d="M30.9999 21V25C30.9999 25.2652 30.8945 25.5195 30.707 25.7071C30.5195 25.8946 30.2651 26 29.9999 26C29.7347 26 29.4803 25.8946 29.2928 25.7071C29.1052 25.5195 28.9999 25.2652 28.9999 25V23.4137L28.7236 23.6912C28.3361 24.1125 23.6799 29 15.9999 29C8.14489 29 3.45239 23.8862 3.25614 23.6687C3.07877 23.4706 2.98736 23.2102 3.00201 22.9447C3.01666 22.6792 3.13618 22.4304 3.33426 22.2531C3.53234 22.0757 3.79277 21.9843 4.05825 21.999C4.32373 22.0136 4.57252 22.1331 4.74989 22.3312C4.78364 22.375 9.06239 27 15.9999 27C22.9374 27 27.2161 22.375 27.2586 22.33C27.2692 22.3169 27.2805 22.3044 27.2924 22.2925L27.5861 22H25.9999C25.7347 22 25.4803 21.8946 25.2928 21.7071C25.1052 21.5195 24.9999 21.2652 24.9999 21C24.9999 20.7347 25.1052 20.4804 25.2928 20.2928C25.4803 20.1053 25.7347 20 25.9999 20H29.9999C30.2651 20 30.5195 20.1053 30.707 20.2928C30.8945 20.4804 30.9999 20.7347 30.9999 21ZM19.9999 11.8162V10.5C20.0006 9.48883 19.6607 8.50694 19.035 7.71261C18.4094 6.91828 17.5345 6.3578 16.5513 6.12155C15.5682 5.88529 14.5341 5.98703 13.6159 6.41036C12.6976 6.83368 11.9487 7.55393 11.4899 8.45495C11.3692 8.69116 11.1596 8.86976 10.9073 8.95146C10.6549 9.03315 10.3805 9.01125 10.1443 8.89058C9.90805 8.76991 9.72946 8.56034 9.64776 8.30799C9.56607 8.05563 9.58796 7.78116 9.70864 7.54495C10.3717 6.24391 11.4536 5.20405 12.7798 4.59297C14.1061 3.98189 15.5995 3.8352 17.0193 4.17654C18.4391 4.51789 19.7026 5.32738 20.6062 6.47454C21.5097 7.62169 22.0007 9.03969 21.9999 10.5V22C21.9999 22.2652 21.8945 22.5195 21.707 22.7071C21.5195 22.8946 21.2651 23 20.9999 23C20.7347 23 20.4803 22.8946 20.2928 22.7071C20.1052 22.5195 19.9999 22.2652 19.9999 22V21.1837C19.0812 22.0677 17.9228 22.662 16.6689 22.8927C15.415 23.1234 14.121 22.9802 12.9479 22.481C11.7747 21.9818 10.7743 21.1486 10.0711 20.0851C9.36788 19.0217 8.99295 17.7749 8.99295 16.5C8.99295 15.225 9.36788 13.9782 10.0711 12.9148C10.7743 11.8513 11.7747 11.0181 12.9479 10.5189C14.121 10.0197 15.415 9.87656 16.6689 10.1072C17.9228 10.3379 19.0812 10.9322 19.9999 11.8162ZM19.9999 16.5C19.9999 15.6099 19.736 14.7399 19.2415 13.9999C18.747 13.2599 18.0442 12.6831 17.222 12.3425C16.3997 12.0019 15.4949 11.9128 14.622 12.0864C13.7491 12.2601 12.9472 12.6886 12.3179 13.318C11.6886 13.9473 11.26 14.7491 11.0864 15.622C10.9127 16.495 11.0018 17.3998 11.3424 18.222C11.683 19.0443 12.2598 19.7471 12.9998 20.2416C13.7398 20.736 14.6099 21 15.4999 21C16.0908 21 16.676 20.8836 17.222 20.6574C17.7679 20.4313 18.264 20.0998 18.6819 19.6819C19.0997 19.2641 19.4312 18.768 19.6573 18.222C19.8835 17.6761 19.9999 17.0909 19.9999 16.5Z" fill="#343330"/>
</svg>
