<svg width="32" height="32" viewBox="0 0 32 32" fill="none" xmlns="http://www.w3.org/2000/svg">
<path d="M26.5002 12C26.0503 11.9977 25.6041 12.0826 25.1865 12.25L21.3752 7.49255C21.6885 7.04132 21.8912 6.52269 21.9669 5.97861C22.0425 5.43453 21.9891 4.88027 21.8108 4.36068C21.6326 3.84109 21.3345 3.37075 20.9408 2.98772C20.547 2.60468 20.0687 2.3197 19.5444 2.15583C19.02 1.99196 18.4645 1.9538 17.9227 2.04443C17.3809 2.13507 16.8681 2.35196 16.4257 2.67756C15.9833 3.00316 15.6237 3.42832 15.3761 3.91866C15.1284 4.40899 14.9997 4.95073 15.0002 5.50005C15.0002 5.62279 15.0064 5.74545 15.019 5.86755L9.21024 8.28755C8.86033 7.85837 8.41358 7.51833 7.90669 7.29539C7.39981 7.07244 6.84726 6.97295 6.29445 7.00509C5.74163 7.03722 5.20433 7.20007 4.72669 7.48024C4.24906 7.76042 3.84471 8.14992 3.54689 8.61676C3.24906 9.0836 3.06625 9.61444 3.01349 10.1657C2.96072 10.7169 3.0395 11.2728 3.24335 11.7876C3.44719 12.3025 3.7703 12.7616 4.18611 13.1273C4.60192 13.493 5.09856 13.7549 5.63524 13.8913L5.86649 19.6888C5.33659 19.8697 4.85784 20.1752 4.47042 20.5794C4.08301 20.9837 3.79824 21.475 3.64004 22.0122C3.48183 22.5493 3.45481 23.1165 3.56123 23.6662C3.66765 24.216 3.90441 24.7322 4.25163 25.1714C4.59886 25.6107 5.04641 25.9603 5.5567 26.1908C6.067 26.4213 6.62515 26.5259 7.18429 26.4961C7.74343 26.4662 8.28723 26.3026 8.77005 26.019C9.25286 25.7354 9.66058 25.3401 9.95899 24.8663L16.0002 26.5588C16.0087 27.1217 16.1529 27.6743 16.4205 28.1697C16.6881 28.665 17.0712 29.0885 17.5374 29.4042C18.0036 29.7198 18.5391 29.9184 19.0984 29.983C19.6576 30.0475 20.2243 29.9763 20.7501 29.7751C21.276 29.574 21.7456 29.249 22.119 28.8277C22.4925 28.4064 22.7588 27.9012 22.8953 27.355C23.0319 26.8088 23.0347 26.2377 22.9034 25.6902C22.7722 25.1427 22.5108 24.635 22.1415 24.21L25.5427 18.8663C26.0241 19.0033 26.5294 19.0355 27.0243 18.9607C27.5192 18.8859 27.9923 18.7058 28.4117 18.4326C28.831 18.1593 29.1869 17.7993 29.4553 17.3768C29.7237 16.9543 29.8984 16.4792 29.9675 15.9834C30.0366 15.4877 29.9986 14.9829 29.8561 14.5031C29.7135 14.0233 29.4697 13.5797 29.141 13.2021C28.8124 12.8246 28.4066 12.5219 27.9511 12.3145C27.4955 12.1072 27.0008 11.9999 26.5002 12ZM19.5002 23H19.389L17.3665 16.9338L23.1977 16.6563C23.3451 17.0694 23.569 17.4511 23.8577 17.7813L20.4565 23.125C20.145 23.0395 19.8232 22.9974 19.5002 23ZM7.86524 19.6088L7.63399 13.8113C8.10543 13.6489 8.53672 13.3877 8.89899 13.045L14.2152 16.125L9.03274 20.1525C8.68056 19.9006 8.28469 19.7163 7.86524 19.6088ZM18.6965 9.00005C19.0803 8.97909 19.4579 8.89461 19.814 8.75005L23.6252 13.5075C23.3822 13.8566 23.2051 14.2472 23.1027 14.66L17.2815 14.9375L18.6965 9.00005ZM10.2615 21.7313L15.5002 17.6575L17.4927 23.6363C17.1133 23.9038 16.7905 24.2437 16.5427 24.6363L10.5002 22.9413C10.4929 22.527 10.4121 22.1173 10.2615 21.7313ZM18.5002 4.00005C18.7969 4.00005 19.0869 4.08802 19.3336 4.25284C19.5803 4.41767 19.7725 4.65193 19.8861 4.92602C19.9996 5.20011 20.0293 5.50171 19.9714 5.79268C19.9135 6.08365 19.7707 6.35093 19.5609 6.56071C19.3511 6.77049 19.0838 6.91335 18.7929 6.97123C18.5019 7.0291 18.2003 6.9994 17.9262 6.88587C17.6521 6.77234 17.4179 6.58008 17.253 6.3334C17.0882 6.08673 17.0002 5.79672 17.0002 5.50005C17.0002 5.10222 17.1583 4.72069 17.4396 4.43939C17.7209 4.15808 18.1024 4.00005 18.5002 4.00005ZM15.7902 7.71255C16.059 8.04007 16.3841 8.31693 16.7502 8.53005L15.3377 14.4613L9.90399 11.315C9.96792 11.0481 10.0002 10.7745 10.0002 10.5C10.0003 10.3773 9.99404 10.2546 9.98149 10.1325L15.7902 7.71255ZM5.00024 10.5C5.00024 10.2034 5.08822 9.91337 5.25304 9.66669C5.41786 9.42002 5.65213 9.22776 5.92622 9.11423C6.20031 9.0007 6.50191 8.97099 6.79288 9.02887C7.08385 9.08675 7.35112 9.22961 7.5609 9.43939C7.77068 9.64917 7.91354 9.91644 7.97142 10.2074C8.0293 10.4984 7.99959 10.8 7.88606 11.0741C7.77253 11.3482 7.58027 11.5824 7.3336 11.7473C7.08692 11.9121 6.79691 12 6.50024 12C6.10242 12 5.72089 11.842 5.43958 11.5607C5.15828 11.2794 5.00024 10.8979 5.00024 10.5ZM7.00024 24.5C6.70357 24.5 6.41356 24.4121 6.16689 24.2473C5.92021 24.0824 5.72795 23.8482 5.61442 23.5741C5.50089 23.3 5.47119 22.9984 5.52906 22.7074C5.58694 22.4164 5.7298 22.1492 5.93958 21.9394C6.14936 21.7296 6.41664 21.5867 6.70761 21.5289C6.99858 21.471 7.30018 21.5007 7.57427 21.6142C7.84836 21.7278 8.08262 21.92 8.24745 22.1667C8.41227 22.4134 8.50024 22.7034 8.50024 23C8.50024 23.3979 8.34221 23.7794 8.0609 24.0607C7.7796 24.342 7.39807 24.5 7.00024 24.5ZM19.5002 28C19.2036 28 18.9136 27.9121 18.6669 27.7473C18.4202 27.5824 18.228 27.3482 18.1144 27.0741C18.0009 26.8 17.9712 26.4984 18.0291 26.2074C18.0869 25.9164 18.2298 25.6492 18.4396 25.4394C18.6494 25.2296 18.9166 25.0867 19.2076 25.0289C19.4986 24.971 19.8002 25.0007 20.0743 25.1142C20.3484 25.2278 20.5826 25.42 20.7474 25.6667C20.9123 25.9134 21.0002 26.2034 21.0002 26.5C21.0002 26.8979 20.8422 27.2794 20.5609 27.5607C20.2796 27.842 19.8981 28 19.5002 28ZM26.5002 17C26.2036 17 25.9136 16.9121 25.6669 16.7473C25.4202 16.5824 25.228 16.3482 25.1144 16.0741C25.0009 15.8 24.9712 15.4984 25.0291 15.2074C25.0869 14.9164 25.2298 14.6492 25.4396 14.4394C25.6494 14.2296 25.9166 14.0867 26.2076 14.0289C26.4986 13.971 26.8002 14.0007 27.0743 14.1142C27.3484 14.2278 27.5826 14.42 27.7474 14.6667C27.9123 14.9134 28.0002 15.2034 28.0002 15.5C28.0002 15.8979 27.8422 16.2794 27.5609 16.5607C27.2796 16.842 26.8981 17 26.5002 17Z" fill="#343330"/>
</svg>
