<svg width="32" height="32" viewBox="0 0 32 32" fill="none" xmlns="http://www.w3.org/2000/svg">
<path d="M20.9997 28C20.9997 28.2652 20.8943 28.5196 20.7068 28.7071C20.5193 28.8946 20.2649 29 19.9997 29H11.9997C11.7345 29 11.4801 28.8946 11.2926 28.7071C11.1051 28.5196 10.9997 28.2652 10.9997 28C10.9997 27.7348 11.1051 27.4804 11.2926 27.2929C11.4801 27.1054 11.7345 27 11.9997 27H19.9997C20.2649 27 20.5193 27.1054 20.7068 27.2929C20.8943 27.4804 20.9997 27.7348 20.9997 28ZM28.4234 7.54001C27.2995 5.34332 25.6119 3.48487 23.5334 2.15501C23.4224 2.08407 23.2984 2.03578 23.1686 2.01291C23.0389 1.99005 22.9058 1.99306 22.7772 2.02177C22.6486 2.05048 22.527 2.10433 22.4192 2.18022C22.3115 2.25611 22.2198 2.35255 22.1495 2.46398C22.0791 2.57542 22.0315 2.69966 22.0094 2.82956C21.9872 2.95946 21.9909 3.09246 22.0203 3.22091C22.0498 3.34937 22.1043 3.47074 22.1807 3.57806C22.2572 3.68538 22.3541 3.77652 22.4659 3.84626C24.2492 4.98063 25.6939 6.57437 26.6484 8.46001C26.7746 8.68792 26.9847 8.85763 27.234 8.93301C27.4834 9.00839 27.7523 8.9835 27.9836 8.86362C28.2148 8.74375 28.3902 8.53836 28.4724 8.29116C28.5545 8.04396 28.537 7.77446 28.4234 7.54001ZM4.46345 9.00001C4.64665 8.99993 4.82631 8.94953 4.98282 8.8543C5.13933 8.75907 5.26667 8.62268 5.35095 8.46001C6.30545 6.57437 7.75022 4.98063 9.53345 3.84626C9.64526 3.77652 9.74219 3.68538 9.81867 3.57806C9.89514 3.47074 9.94965 3.34937 9.97906 3.22091C10.0085 3.09246 10.0122 2.95946 9.99003 2.82956C9.96787 2.69966 9.92025 2.57542 9.84991 2.46398C9.77958 2.35255 9.68791 2.25611 9.58018 2.18022C9.47245 2.10433 9.35078 2.05048 9.22217 2.02177C9.09356 1.99306 8.96054 1.99005 8.83076 2.01291C8.70098 2.03578 8.577 2.08407 8.46595 2.15501C6.38748 3.48487 4.69986 5.34332 3.57595 7.54001C3.497 7.6924 3.4586 7.86256 3.46445 8.0341C3.4703 8.20563 3.5202 8.37278 3.60936 8.51944C3.69851 8.66611 3.82392 8.78736 3.9735 8.87152C4.12308 8.95569 4.29181 8.99993 4.46345 9.00001ZM27.7259 21.9925C27.9031 22.2963 27.997 22.6415 27.9982 22.9931C27.9994 23.3448 27.9079 23.6906 27.7328 23.9956C27.5578 24.3006 27.3053 24.5541 27.0011 24.7304C26.6968 24.9068 26.3514 24.9998 25.9997 25H5.9997C5.64822 24.9993 5.30314 24.906 4.99921 24.7295C4.69527 24.553 4.44322 24.2995 4.26845 23.9945C4.09367 23.6896 4.00234 23.344 4.00366 22.9925C4.00498 22.641 4.09889 22.2961 4.27595 21.9925C5.4022 20.0488 5.9997 17.285 5.9997 14C5.9997 11.3478 7.05327 8.8043 8.92863 6.92894C10.804 5.05357 13.3475 4.00001 15.9997 4.00001C18.6519 4.00001 21.1954 5.05357 23.0708 6.92894C24.9461 8.8043 25.9997 11.3478 25.9997 14C25.9997 17.2838 26.5972 20.0475 27.7259 21.9925ZM25.9997 23C24.6697 20.7163 23.9997 17.6888 23.9997 14C23.9997 11.8783 23.1568 9.84344 21.6566 8.34315C20.1563 6.84286 18.1214 6.00001 15.9997 6.00001C13.878 6.00001 11.8431 6.84286 10.3428 8.34315C8.84255 9.84344 7.9997 11.8783 7.9997 14C7.9997 17.69 7.3272 20.7175 5.9997 23H25.9997Z" fill="#343330"/>
</svg>
