<svg width="32" height="32" viewBox="0 0 32 32" fill="none" xmlns="http://www.w3.org/2000/svg">
<path d="M6.73953 4.3275C6.65171 4.22851 6.54512 4.14793 6.42593 4.09044C6.30674 4.03295 6.17732 3.99968 6.04518 3.99257C5.91304 3.98546 5.78081 4.00465 5.65614 4.04903C5.53147 4.0934 5.41685 4.16208 5.31892 4.25108C5.22098 4.34007 5.14169 4.44763 5.08563 4.5675C5.02957 4.68737 4.99786 4.81717 4.99234 4.94938C4.98681 5.0816 5.00758 5.2136 5.05345 5.33773C5.09932 5.46185 5.16936 5.57564 5.25953 5.6725L7.35203 7.975C6.46335 9.50034 5.99655 11.2347 5.99953 13C5.99953 17.4175 4.96703 20.7975 4.27328 21.9925C4.09612 22.2963 4.0022 22.6415 4.00099 22.9931C3.99978 23.3448 4.09133 23.6906 4.2664 23.9956C4.44147 24.3006 4.69388 24.5541 4.99816 24.7304C5.30244 24.9068 5.64784 24.9997 5.99953 25H22.8295L25.2595 27.6725C25.3473 27.7715 25.4539 27.8521 25.5731 27.9096C25.6923 27.9671 25.8217 28.0003 25.9539 28.0074C26.086 28.0145 26.2182 27.9954 26.3429 27.951C26.4676 27.9066 26.5822 27.8379 26.6801 27.7489C26.7781 27.6599 26.8574 27.5524 26.9134 27.4325C26.9695 27.3126 27.0012 27.1828 27.0067 27.0506C27.0122 26.9184 26.9915 26.7864 26.9456 26.6623C26.8997 26.5382 26.8297 26.4244 26.7395 26.3275L6.73953 4.3275ZM5.99953 23C6.96203 21.345 7.99953 17.51 7.99953 13C7.99778 11.805 8.26523 10.625 8.78203 9.5475L21.0108 23H5.99953ZM20.9995 28C20.9995 28.2652 20.8942 28.5196 20.7066 28.7071C20.5191 28.8946 20.2647 29 19.9995 29H11.9995C11.7343 29 11.48 28.8946 11.2924 28.7071C11.1049 28.5196 10.9995 28.2652 10.9995 28C10.9995 27.7348 11.1049 27.4804 11.2924 27.2929C11.48 27.1054 11.7343 27 11.9995 27H19.9995C20.2647 27 20.5191 27.1054 20.7066 27.2929C20.8942 27.4804 20.9995 27.7348 20.9995 28ZM26.7495 22.4063C26.6327 22.4515 26.5086 22.4749 26.3833 22.475C26.1824 22.4748 25.9863 22.4141 25.8204 22.3009C25.6545 22.1876 25.5266 22.027 25.4533 21.84C24.5433 19.5238 23.9995 16.2188 23.9995 13C23.9999 11.6008 23.6333 10.2259 22.9363 9.01262C22.2393 7.79934 21.2363 6.7901 20.0273 6.08562C18.8183 5.38114 17.4458 5.00607 16.0465 4.99785C14.6473 4.98963 13.2704 5.34853 12.0533 6.03875C11.8231 6.16346 11.5533 6.19295 11.3016 6.12089C11.05 6.04884 10.8366 5.88099 10.7073 5.65337C10.5781 5.42576 10.5432 5.15653 10.6102 4.90349C10.6772 4.65046 10.8408 4.43379 11.0658 4.3C12.5871 3.43706 14.3082 2.98824 16.0572 2.99834C17.8063 3.00843 19.522 3.47708 21.0333 4.35752C22.5446 5.23796 23.7986 6.49939 24.67 8.0159C25.5414 9.5324 25.9998 11.251 25.9995 13C25.9995 17.4188 27.0058 20.3238 27.3145 21.11C27.4115 21.3568 27.4064 21.632 27.3004 21.8751C27.1945 22.1182 26.9963 22.3093 26.7495 22.4063Z" fill="#343330"/>
</svg>
