<svg width="32" height="32" viewBox="0 0 32 32" fill="none" xmlns="http://www.w3.org/2000/svg">
<path d="M27.9997 8.8875C27.7643 9.0094 27.4901 9.03284 27.2375 8.95268C26.9848 8.87252 26.7743 8.69531 26.6522 8.46C25.6977 6.57436 24.2529 4.98062 22.4697 3.84625C22.3586 3.77616 22.2623 3.68486 22.1865 3.57757C22.1106 3.47029 22.0567 3.34911 22.0276 3.22097C21.9986 3.09282 21.9951 2.96022 22.0174 2.83072C22.0396 2.70123 22.0871 2.57738 22.1572 2.46625C22.2273 2.35512 22.3186 2.25888 22.4259 2.18303C22.5332 2.10718 22.6543 2.05321 22.7825 2.02419C22.9106 1.99517 23.0432 1.99168 23.1727 2.01391C23.3022 2.03614 23.4261 2.08366 23.5372 2.15375C25.6154 3.48442 27.303 5.3432 28.4272 7.54C28.5491 7.7754 28.5725 8.04956 28.4924 8.30224C28.4122 8.55492 28.235 8.76543 27.9997 8.8875ZM4.46345 9C4.64665 8.99992 4.82631 8.94952 4.98282 8.85429C5.13933 8.75906 5.26667 8.62267 5.35095 8.46C6.30545 6.57436 7.75022 4.98062 9.53345 3.84625C9.75789 3.70469 9.9169 3.47977 9.97551 3.22097C10.0341 2.96217 9.98751 2.69069 9.84595 2.46625C9.70439 2.24181 9.47947 2.0828 9.22067 2.02419C8.96187 1.96559 8.69039 2.01219 8.46595 2.15375C6.3877 3.48442 4.70017 5.3432 3.57595 7.54C3.497 7.6924 3.4586 7.86255 3.46445 8.03409C3.4703 8.20563 3.5202 8.37277 3.60936 8.51943C3.69851 8.6661 3.82392 8.78735 3.9735 8.87151C4.12308 8.95568 4.29181 8.99993 4.46345 9ZM27.7259 21.9925C27.9031 22.2963 27.997 22.6414 27.9982 22.9931C27.9994 23.3448 27.9079 23.6906 27.7328 23.9956C27.5578 24.3006 27.3053 24.5541 27.0011 24.7304C26.6968 24.9068 26.3514 24.9997 25.9997 25H20.8997C20.6702 26.1303 20.057 27.1465 19.164 27.8764C18.2709 28.6063 17.1531 29.005 15.9997 29.005C14.8463 29.005 13.7285 28.6063 12.8354 27.8764C11.9424 27.1465 11.3292 26.1303 11.0997 25H5.9997C5.64822 24.9993 5.30314 24.906 4.99921 24.7295C4.69527 24.553 4.44322 24.2995 4.26845 23.9945C4.09367 23.6896 4.00234 23.344 4.00366 22.9925C4.00498 22.641 4.09889 22.2961 4.27595 21.9925C5.4022 20.0487 5.9997 17.285 5.9997 14C5.9997 11.3478 7.05327 8.80429 8.92863 6.92893C10.804 5.05357 13.3475 4 15.9997 4C18.6519 4 21.1954 5.05357 23.0708 6.92893C24.9461 8.80429 25.9997 11.3478 25.9997 14C25.9997 17.2837 26.5972 20.0475 27.7259 21.9925ZM18.8272 25H13.1722C13.3794 25.5843 13.7625 26.09 14.2688 26.4477C14.7751 26.8053 15.3798 26.9974 15.9997 26.9974C16.6196 26.9974 17.2243 26.8053 17.7306 26.4477C18.2369 26.09 18.62 25.5843 18.8272 25ZM25.9997 23C24.6697 20.7162 23.9997 17.6887 23.9997 14C23.9997 11.8783 23.1568 9.84343 21.6566 8.34314C20.1563 6.84285 18.1214 6 15.9997 6C13.878 6 11.8431 6.84285 10.3428 8.34314C8.84255 9.84343 7.9997 11.8783 7.9997 14C7.9997 17.69 7.3272 20.7175 5.9997 23H25.9997Z" fill="#343330"/>
</svg>
