<svg width="32" height="32" viewBox="0 0 32 32" fill="none" xmlns="http://www.w3.org/2000/svg">
<path d="M25.7071 15.7075C25.6142 15.8005 25.5039 15.8742 25.3825 15.9246C25.2611 15.9749 25.131 16.0008 24.9996 16.0008C24.8682 16.0008 24.738 15.9749 24.6166 15.9246C24.4952 15.8742 24.385 15.8005 24.2921 15.7075L15.9996 7.41374L7.70708 15.7075C7.51944 15.8951 7.26494 16.0006 6.99958 16.0006C6.73422 16.0006 6.47972 15.8951 6.29208 15.7075C6.10444 15.5199 5.99902 15.2654 5.99902 15C5.99902 14.7346 6.10444 14.4801 6.29208 14.2925L15.2921 5.29249C15.385 5.19952 15.4952 5.12576 15.6166 5.07543C15.738 5.02511 15.8682 4.99921 15.9996 4.99921C16.131 4.99921 16.2611 5.02511 16.3825 5.07543C16.5039 5.12576 16.6142 5.19952 16.7071 5.29249L25.7071 14.2925C25.8001 14.3854 25.8738 14.4957 25.9241 14.6171C25.9745 14.7385 26.0004 14.8686 26.0004 15C26.0004 15.1314 25.9745 15.2615 25.9241 15.3829C25.8738 15.5043 25.8001 15.6146 25.7071 15.7075Z" fill="#343330"/>
</svg>
