<svg width="32" height="32" viewBox="0 0 32 32" fill="none" xmlns="http://www.w3.org/2000/svg">
<path d="M29.9997 11.0287C29.9496 12.7695 29.2338 14.4248 27.9997 15.6537L23.656 19.9999C23.0233 20.636 22.2708 21.1403 21.442 21.4837C20.6131 21.827 19.7244 22.0024 18.8272 21.9999H18.821C17.9085 21.9993 17.0055 21.8158 16.1651 21.4603C15.3248 21.1048 14.5642 20.5844 13.9283 19.93C13.2924 19.2756 12.7942 18.5004 12.4629 17.6502C12.1317 16.8 11.9742 15.892 11.9997 14.9799C12.0072 14.7147 12.1197 14.4633 12.3125 14.2811C12.5053 14.0988 12.7626 14.0006 13.0279 14.0081C13.2931 14.0155 13.5445 14.128 13.7267 14.3209C13.909 14.5137 14.0072 14.771 13.9997 15.0362C13.9815 15.6811 14.0928 16.3231 14.3269 16.9243C14.561 17.5255 14.9133 18.0736 15.3628 18.5364C15.8124 18.9991 16.3502 19.367 16.9444 19.6184C17.5385 19.8698 18.1771 19.9995 18.8222 19.9999C19.4564 20.0016 20.0847 19.8775 20.6706 19.6348C21.2566 19.3921 21.7886 19.0357 22.236 18.5862L26.5797 14.2424C27.4759 13.335 27.9767 12.1098 27.9727 10.8343C27.9687 9.55891 27.4603 8.33686 26.5584 7.435C25.6566 6.53313 24.4345 6.0247 23.1591 6.02071C21.8837 6.01672 20.6585 6.51749 19.751 7.41369L18.376 8.78869C18.1869 8.96831 17.9352 9.06697 17.6744 9.06363C17.4137 9.0603 17.1645 8.95522 16.9801 8.77082C16.7957 8.58642 16.6906 8.33728 16.6873 8.07652C16.684 7.81576 16.7826 7.56401 16.9622 7.37494L18.3372 5.99994C18.9716 5.36536 19.7248 4.86196 20.5537 4.51851C21.3827 4.17506 22.2712 3.99829 23.1685 3.99829C24.0658 3.99829 24.9543 4.17506 25.7832 4.51851C26.6122 4.86196 27.3654 5.36536 27.9997 5.99994C28.6568 6.65864 29.173 7.44416 29.5168 8.30868C29.8606 9.1732 30.0249 10.0986 29.9997 11.0287ZM13.6247 23.2074L12.2497 24.5824C11.8013 25.0339 11.2675 25.3917 10.6795 25.635C10.0916 25.8784 9.46108 26.0024 8.82474 25.9999C7.87011 25.9992 6.93714 25.7155 6.14369 25.1847C5.35024 24.6539 4.73193 23.8998 4.36688 23.0177C4.00183 22.1357 3.90641 21.1652 4.0927 20.2289C4.27898 19.2926 4.7386 18.4326 5.41349 17.7574L9.74974 13.4137C10.4327 12.7271 11.3064 12.2617 12.2572 12.0781C13.2081 11.8944 14.1922 12.0008 15.0818 12.3836C15.9713 12.7664 16.7253 13.4078 17.2456 14.2246C17.766 15.0413 18.0287 15.9957 17.9997 16.9637C17.9923 17.2289 18.0905 17.4862 18.2727 17.679C18.455 17.8719 18.7064 17.9844 18.9716 17.9918C19.2368 17.9993 19.4941 17.9011 19.687 17.7188C19.8798 17.5366 19.9923 17.2852 19.9997 17.0199C20.0237 16.0914 19.8588 15.1676 19.5151 14.3046C19.1713 13.4417 18.6557 12.6576 17.9997 11.9999C16.7187 10.7195 14.9816 10.0002 13.1704 10.0002C11.3591 10.0002 9.62201 10.7195 8.34099 11.9999L3.99974 16.3437C3.04503 17.298 2.39463 18.5139 2.13075 19.8378C1.86687 21.1616 2.00134 22.534 2.51718 23.7814C3.03301 25.0289 3.90705 26.0954 5.02885 26.8463C6.15065 27.5971 7.46985 27.9986 8.81974 27.9999C9.71707 28.0025 10.606 27.8271 11.4351 27.4838C12.2642 27.1405 13.0169 26.6361 13.6497 25.9999L15.0247 24.6249C15.1866 24.4343 15.2711 24.19 15.2617 23.9401C15.2523 23.6902 15.1496 23.453 14.9739 23.275C14.7982 23.0971 14.5622 22.9915 14.3125 22.979C14.0627 22.9665 13.8174 23.048 13.6247 23.2074Z" fill="#343330"/>
</svg>
