<svg width="32" height="32" viewBox="0 0 32 32" fill="none" xmlns="http://www.w3.org/2000/svg">
<path d="M19.0003 14C19.0003 14.2653 18.8949 14.5196 18.7074 14.7071C18.5199 14.8947 18.2655 15 18.0003 15H10.0003C9.73507 15 9.48071 14.8947 9.29318 14.7071C9.10564 14.5196 9.00029 14.2653 9.00029 14C9.00029 13.7348 9.10564 13.4805 9.29318 13.2929C9.48071 13.1054 9.73507 13 10.0003 13H18.0003C18.2655 13 18.5199 13.1054 18.7074 13.2929C18.8949 13.4805 19.0003 13.7348 19.0003 14ZM28.7078 28.7075C28.6149 28.8005 28.5046 28.8743 28.3832 28.9246C28.2618 28.9749 28.1317 29.0008 28.0003 29.0008C27.8689 29.0008 27.7387 28.9749 27.6173 28.9246C27.4959 28.8743 27.3857 28.8005 27.2928 28.7075L21.0353 22.4488C18.8574 24.2628 16.064 25.1674 13.2362 24.9743C10.4084 24.7813 7.76385 23.5054 5.85275 21.4122C3.94164 19.319 2.9111 16.5696 2.9755 13.7359C3.0399 10.9023 4.19429 8.20249 6.19851 6.19827C8.20274 4.19404 10.9025 3.03966 13.7362 2.97526C16.5698 2.91086 19.3193 3.9414 21.4125 5.85251C23.5057 7.76361 24.7815 10.4081 24.9746 13.236C25.1676 16.0638 24.2631 18.8572 22.449 21.035L28.7078 27.2925C28.8008 27.3854 28.8745 27.4957 28.9248 27.6171C28.9752 27.7385 29.0011 27.8686 29.0011 28C29.0011 28.1315 28.9752 28.2616 28.9248 28.383C28.8745 28.5044 28.8008 28.6147 28.7078 28.7075ZM14.0003 23C15.7803 23 17.5204 22.4722 19.0004 21.4833C20.4805 20.4943 21.634 19.0887 22.3152 17.4442C22.9964 15.7997 23.1746 13.9901 22.8274 12.2442C22.4801 10.4984 21.6229 8.89475 20.3642 7.63608C19.1056 6.37741 17.5019 5.52024 15.7561 5.17297C14.0103 4.82571 12.2007 5.00394 10.5561 5.68513C8.9116 6.36631 7.50599 7.51987 6.51706 8.99991C5.52813 10.48 5.00029 12.22 5.00029 14C5.00293 16.3862 5.95199 18.6738 7.63925 20.3611C9.3265 22.0483 11.6141 22.9974 14.0003 23Z" fill="#343330"/>
</svg>
