<svg width="32" height="32" viewBox="0 0 32 32" fill="none" xmlns="http://www.w3.org/2000/svg">
<path d="M29.7071 8.29245C29.6142 8.19947 29.5039 8.12571 29.3825 8.07539C29.2611 8.02506 29.131 7.99916 28.9996 7.99916C28.8682 7.99916 28.738 8.02506 28.6166 8.07539C28.4952 8.12571 28.385 8.19947 28.2921 8.29245L23.9996 12.5862L19.4133 7.99995L23.7071 3.70745C23.8947 3.51981 24.0001 3.26531 24.0001 2.99995C24.0001 2.73458 23.8947 2.48009 23.7071 2.29245C23.5194 2.10481 23.2649 1.99939 22.9996 1.99939C22.7342 1.99939 22.4797 2.10481 22.2921 2.29245L17.9996 6.5862L14.7071 3.29245C14.5194 3.10481 14.2649 2.99939 13.9996 2.99939C13.7342 2.99939 13.4797 3.10481 13.2921 3.29245C13.1044 3.48009 12.999 3.73458 12.999 3.99995C12.999 4.26531 13.1044 4.5198 13.2921 4.70745L14.0858 5.49995L7.46083 12.1249C6.99651 12.5892 6.62819 13.1404 6.3769 13.7471C6.12561 14.3537 5.99627 15.0039 5.99627 15.6606C5.99627 16.3172 6.12561 16.9674 6.3769 17.574C6.62819 18.1807 6.99651 18.7319 7.46083 19.1962L9.42458 21.1599L3.29208 27.2924C3.19917 27.3854 3.12547 27.4957 3.07519 27.6171C3.0249 27.7384 2.99902 27.8686 2.99902 27.9999C2.99902 28.1313 3.0249 28.2614 3.07519 28.3828C3.12547 28.5042 3.19917 28.6145 3.29208 28.7074C3.47972 28.8951 3.73422 29.0005 3.99958 29.0005C4.13097 29.0005 4.26108 28.9746 4.38248 28.9243C4.50387 28.8741 4.61417 28.8004 4.70708 28.7074L10.8433 22.5712L12.8071 24.5349C13.2714 24.9993 13.8226 25.3676 14.4292 25.6189C15.0359 25.8702 15.6861 25.9995 16.3427 25.9995C16.9993 25.9995 17.6495 25.8702 18.2562 25.6189C18.8628 25.3676 19.414 24.9993 19.8783 24.5349L26.5033 17.9099L27.2958 18.7037C27.3887 18.7966 27.499 18.8703 27.6204 18.9206C27.7418 18.9709 27.8719 18.9968 28.0033 18.9968C28.1347 18.9968 28.2648 18.9709 28.3862 18.9206C28.5076 18.8703 28.6179 18.7966 28.7108 18.7037C28.8037 18.6108 28.8774 18.5005 28.9277 18.3791C28.978 18.2577 29.0039 18.1276 29.0039 17.9962C29.0039 17.8648 28.978 17.7347 28.9277 17.6133C28.8774 17.4919 28.8037 17.3816 28.7108 17.2887L25.4133 13.9999L29.7071 9.70745C29.8001 9.61457 29.8738 9.50428 29.9241 9.38289C29.9745 9.26149 30.0004 9.13136 30.0004 8.99995C30.0004 8.86853 29.9745 8.7384 29.9241 8.61701C29.8738 8.49561 29.8001 8.38532 29.7071 8.29245ZM18.4646 23.1249C18.186 23.4037 17.8552 23.6248 17.4911 23.7757C17.127 23.9265 16.7368 24.0042 16.3427 24.0042C15.9486 24.0042 15.5584 23.9265 15.1943 23.7757C14.8302 23.6248 14.4994 23.4037 14.2208 23.1249L8.87458 17.7787C8.59584 17.5001 8.37472 17.1693 8.22386 16.8052C8.07299 16.4412 7.99535 16.0509 7.99535 15.6568C7.99535 15.2627 8.07299 14.8725 8.22386 14.5084C8.37472 14.1443 8.59584 13.8135 8.87458 13.5349L15.4996 6.90995L25.0858 16.4999L18.4646 23.1249Z" fill="#343330"/>
</svg>
