<svg width="32" height="32" viewBox="0 0 32 32" fill="none" xmlns="http://www.w3.org/2000/svg">
<path d="M14.2921 19.2925L26.2921 7.29248C26.385 7.19957 26.4953 7.12587 26.6167 7.07559C26.7381 7.02531 26.8682 6.99943 26.9996 6.99943C27.131 6.99943 27.2611 7.02531 27.3825 7.07559C27.5039 7.12587 27.6142 7.19957 27.7071 7.29248C27.8 7.38539 27.8737 7.49569 27.924 7.61709C27.9743 7.73848 28.0001 7.86859 28.0001 7.99998C28.0001 8.13138 27.9743 8.26149 27.924 8.38288C27.8737 8.50427 27.8 8.61457 27.7071 8.70748L15.7071 20.7075C15.6142 20.8004 15.5039 20.8741 15.3825 20.9244C15.2611 20.9747 15.131 21.0005 14.9996 21.0005C14.8682 21.0005 14.7381 20.9747 14.6167 20.9244C14.4953 20.8741 14.385 20.8004 14.2921 20.7075C14.1992 20.6146 14.1255 20.5043 14.0752 20.3829C14.0249 20.2615 13.999 20.1314 13.999 20C13.999 19.8686 14.0249 19.7385 14.0752 19.6171C14.1255 19.4957 14.1992 19.3854 14.2921 19.2925ZM15.9996 11C16.8682 10.9989 17.7312 11.1395 18.5546 11.4162C18.6796 11.4606 18.8122 11.4796 18.9446 11.4722C19.077 11.4647 19.2067 11.4311 19.3259 11.3731C19.4452 11.3151 19.5518 11.234 19.6394 11.1344C19.727 11.0348 19.794 10.9188 19.8364 10.7931C19.8787 10.6674 19.8957 10.5346 19.8862 10.4023C19.8767 10.27 19.841 10.1409 19.7812 10.0225C19.7213 9.90417 19.6385 9.79889 19.5376 9.71283C19.4367 9.62676 19.3197 9.56163 19.1933 9.52123C17.5997 8.98399 15.8964 8.85732 14.2409 9.15295C12.5853 9.44857 11.0311 10.1569 9.72191 11.2125C8.41274 12.2681 7.39093 13.6368 6.751 15.192C6.11108 16.7472 5.8737 18.4387 6.06083 20.11C6.08788 20.3544 6.20406 20.5803 6.38715 20.7445C6.57024 20.9087 6.80741 20.9996 7.05333 21C7.08958 21 7.12708 21 7.16458 20.9937C7.42812 20.9645 7.66927 20.8318 7.83499 20.6248C8.00072 20.4179 8.07746 20.1535 8.04833 19.89C8.01579 19.5944 7.99952 19.2973 7.99958 19C8.0019 16.879 8.8455 14.8455 10.3453 13.3457C11.8451 11.8459 13.8786 11.0023 15.9996 11ZM28.4671 12.625C28.4072 12.5081 28.3248 12.4042 28.2247 12.3191C28.1247 12.2341 28.0088 12.1696 27.8838 12.1293C27.7588 12.089 27.6271 12.0738 27.4962 12.0844C27.3652 12.095 27.2377 12.1313 27.1208 12.1912C27.004 12.2511 26.9 12.3335 26.815 12.4336C26.7299 12.5337 26.6654 12.6495 26.6251 12.7745C26.5849 12.8995 26.5696 13.0313 26.5802 13.1622C26.5909 13.2931 26.6272 13.4206 26.6871 13.5375C27.4269 14.9903 27.8638 16.5784 27.9713 18.2052C28.0787 19.832 27.8544 21.4637 27.3121 23.0012L4.67458 22.9925C4.04299 21.182 3.85332 19.2468 4.12138 17.3482C4.38943 15.4495 5.10746 13.6425 6.21559 12.0776C7.32373 10.5128 8.78987 9.23549 10.4918 8.35224C12.1937 7.46898 14.0821 7.00535 15.9996 6.99998H16.1096C17.972 7.0117 19.8055 7.4613 21.4621 8.31248C21.5793 8.37698 21.7082 8.41731 21.8413 8.43109C21.9743 8.44486 22.1088 8.4318 22.2367 8.39267C22.3647 8.35354 22.4834 8.28914 22.586 8.20329C22.6886 8.11743 22.7729 8.01187 22.834 7.89285C22.8951 7.77382 22.9316 7.64375 22.9415 7.51035C22.9514 7.37694 22.9344 7.24291 22.8916 7.11618C22.8487 6.98945 22.7809 6.8726 22.6921 6.77256C22.6033 6.67251 22.4953 6.5913 22.3746 6.53373C19.8808 5.25639 17.0611 4.75671 14.2802 5.09934C11.4993 5.44197 8.88524 6.61114 6.77608 8.45562C4.66691 10.3001 3.15972 12.735 2.44946 15.4454C1.7392 18.1558 1.85856 21.0169 2.79208 23.6587C2.92998 24.0501 3.18572 24.3892 3.52415 24.6294C3.86258 24.8696 4.26709 24.999 4.68208 25H27.3158C27.7306 25.0002 28.1352 24.8715 28.4736 24.6317C28.812 24.3918 29.0674 24.0527 29.2046 23.6612C29.8353 21.8674 30.0951 19.9641 29.9684 18.0668C29.8416 16.1695 29.3308 14.3177 28.4671 12.6237V12.625Z" fill="#343330"/>
</svg>
