<svg width="32" height="32" viewBox="0 0 32 32" fill="none" xmlns="http://www.w3.org/2000/svg">
<path d="M17.5005 25.5C17.5005 25.7967 17.4125 26.0867 17.2477 26.3334C17.0829 26.5801 16.8486 26.7723 16.5745 26.8859C16.3004 26.9994 15.9988 27.0291 15.7078 26.9712C15.4169 26.9133 15.1496 26.7705 14.9398 26.5607C14.73 26.3509 14.5872 26.0836 14.5293 25.7927C14.4714 25.5017 14.5011 25.2001 14.6147 24.926C14.7282 24.6519 14.9204 24.4177 15.1671 24.2528C15.4138 24.088 15.7038 24 16.0005 24C16.3983 24 16.7798 24.1581 17.0611 24.4394C17.3424 24.7207 17.5005 25.1022 17.5005 25.5ZM29.6355 10.875C25.7911 7.72176 20.9726 5.99841 16.0005 5.99841C11.0283 5.99841 6.20985 7.72176 2.36547 10.875C2.26395 10.9584 2.17984 11.061 2.11795 11.1769C2.05606 11.2928 2.0176 11.4197 2.00478 11.5505C1.99195 11.6812 2.00501 11.8132 2.0432 11.939C2.08138 12.0647 2.14396 12.1816 2.22735 12.2832C2.31074 12.3847 2.41331 12.4688 2.5292 12.5307C2.6451 12.5926 2.77205 12.631 2.9028 12.6439C3.16688 12.6698 3.43043 12.5897 3.63547 12.4213C7.12198 9.56217 11.4916 7.99964 16.0005 7.99964C20.5094 7.99964 24.879 9.56217 28.3655 12.4213C28.5705 12.5897 28.8341 12.6698 29.0981 12.6439C29.3622 12.6179 29.6052 12.4882 29.7736 12.2832C29.942 12.0781 30.0221 11.8146 29.9962 11.5505C29.9703 11.2864 29.8405 11.0434 29.6355 10.875ZM25.6255 15.3463C22.8871 13.1783 19.4969 11.9987 16.0042 11.9987C12.5116 11.9987 9.1213 13.1783 6.38297 15.3463C6.17511 15.511 6.04121 15.7516 6.01074 16.0151C5.98026 16.2786 6.05571 16.5434 6.22047 16.7513C6.38524 16.9591 6.62583 17.093 6.88932 17.1235C7.15281 17.154 7.41761 17.0785 7.62547 16.9138C10.0103 15.0261 12.9627 13.999 16.0042 13.999C19.0457 13.999 21.9981 15.0261 24.383 16.9138C24.4859 16.9954 24.6039 17.0559 24.7302 17.0919C24.8565 17.1279 24.9887 17.1387 25.1191 17.1236C25.2496 17.1085 25.3758 17.0678 25.4906 17.004C25.6053 16.9401 25.7064 16.8542 25.788 16.7513C25.8696 16.6484 25.9301 16.5304 25.9661 16.4041C26.0021 16.2778 26.0128 16.1456 25.9978 16.0151C25.9827 15.8847 25.942 15.7584 25.8781 15.6437C25.8143 15.5289 25.7284 15.4279 25.6255 15.3463ZM21.593 19.8163C19.9686 18.6358 18.0122 17.9999 16.0042 17.9999C13.9962 17.9999 12.0398 18.6358 10.4155 19.8163C10.201 19.9724 10.0573 20.2074 10.016 20.4695C9.97478 20.7316 10.0393 20.9993 10.1955 21.2138C10.3516 21.4283 10.5866 21.572 10.8487 21.6132C11.1107 21.6545 11.3785 21.5899 11.593 21.4338C12.8749 20.5015 14.4192 19.9993 16.0042 19.9993C17.5893 19.9993 19.1336 20.5015 20.4155 21.4338C20.5217 21.5111 20.6421 21.5667 20.7698 21.5975C20.8975 21.6283 21.03 21.6336 21.1598 21.6132C21.2896 21.5928 21.414 21.547 21.5261 21.4785C21.6382 21.4099 21.7357 21.32 21.813 21.2138C21.8903 21.1076 21.9459 20.9872 21.9767 20.8595C22.0075 20.7318 22.0128 20.5992 21.9924 20.4695C21.972 20.3397 21.9262 20.2152 21.8577 20.1031C21.7891 19.9911 21.6992 19.8936 21.593 19.8163Z" fill="#343330"/>
</svg>
