<svg width="32" height="32" viewBox="0 0 32 32" fill="none" xmlns="http://www.w3.org/2000/svg">
<mask id="mask0_681_1483" style="mask-type:luminance" maskUnits="userSpaceOnUse" x="0" y="0" width="32" height="32">
<path d="M0 1.90735e-06H32V32H0V1.90735e-06Z" fill="white"/>
</mask>
<g mask="url(#mask0_681_1483)">
<path d="M24.2784 29.2721C24.2784 28.4678 24.9305 27.8157 25.7349 27.8157H27.6949C28.4992 27.8157 29.1513 28.4678 29.1513 29.2721C29.1513 30.0765 28.4992 30.7285 27.6949 30.7285H25.7349C24.9305 30.7285 24.2784 30.0765 24.2784 29.2721Z" stroke="#CC68A1" stroke-width="1.6" stroke-miterlimit="10" stroke-linecap="round" stroke-linejoin="round"/>
<path d="M24.2784 26.359C24.2784 25.5546 24.9305 24.9026 25.7349 24.9026H29.0239C29.8282 24.9026 30.4803 25.5546 30.4803 26.359C30.4803 27.1633 29.8282 27.8154 29.0239 27.8154H25.7349C24.9305 27.8154 24.2784 27.1633 24.2784 26.359Z" stroke="#CC68A1" stroke-width="1.6" stroke-miterlimit="10" stroke-linecap="round" stroke-linejoin="round"/>
<path d="M24.2784 23.4459C24.2784 22.6415 24.9305 21.9895 25.7349 21.9895H29.9086C30.713 21.9895 31.3651 22.6415 31.3651 23.4459C31.3651 24.2502 30.713 24.9023 29.9086 24.9023H25.7349C24.9305 24.9023 24.2784 24.2503 24.2784 23.4459Z" stroke="#CC68A1" stroke-width="1.6" stroke-miterlimit="10" stroke-linecap="round" stroke-linejoin="round"/>
<path d="M24.2784 20.5338C24.2784 19.7295 24.9305 19.0774 25.7349 19.0774H28.9319C29.7362 19.0774 30.3883 19.7295 30.3883 20.5338C30.3883 21.3382 29.7362 21.9902 28.9319 21.9902H25.7349C24.9305 21.9902 24.2784 21.3382 24.2784 20.5338Z" stroke="#CC68A1" stroke-width="1.6" stroke-miterlimit="10" stroke-linecap="round" stroke-linejoin="round"/>
<path d="M24.411 19.9267C24.411 19.9267 23.0308 22.3818 20.7083 22.3818" stroke="#CC68A1" stroke-width="1.6" stroke-miterlimit="10" stroke-linecap="round" stroke-linejoin="round"/>
<path d="M0.627625 31.3604L6.61419 30.4094" stroke="#CC68A1" stroke-width="1.6" stroke-miterlimit="10" stroke-linecap="round" stroke-linejoin="round"/>
<path d="M12.0137 29.552L15.6704 28.9711C16.2694 28.877 16.8829 28.9674 17.4292 29.2305L19.9257 30.4329C20.3298 30.6275 20.7726 30.7285 21.221 30.7285H25.7349C24.9309 30.7285 24.2785 30.0763 24.2785 29.2721C24.2785 28.468 24.9309 27.8157 25.7349 27.8157C24.9309 27.8157 24.2785 27.1634 24.2785 26.3593C24.2785 25.5552 24.9309 24.9028 25.7349 24.9028C24.9309 24.9028 24.2785 24.2505 24.2785 23.4465C24.2785 22.6423 24.9309 21.99 25.7349 21.99C24.913 21.99 24.2496 21.3085 24.2795 20.4799C24.3079 19.6909 24.9805 19.0771 25.7701 19.0771H28.7552C30.2038 19.0771 31.3774 17.9021 31.375 16.4536C31.3746 16.1888 31.1571 15.9753 30.8924 15.9753L22.1731 15.9754C21.3743 15.9754 20.6152 16.3274 20.0995 16.938L17.4856 20.0325C16.8834 20.7453 15.9824 21.1356 15.0504 21.0873L0.625 20.339" stroke="#CC68A1" stroke-width="1.6" stroke-miterlimit="10" stroke-linecap="round" stroke-linejoin="round"/>
<path d="M6.24487 20.6305V19.206C6.24487 18.5716 6.75919 18.0573 7.39362 18.0573H8.76494C9.17537 18.0573 9.38087 17.5612 9.09062 17.2709L8.70156 16.8818C7.66062 15.8409 7.679 14.1476 8.74237 13.1295L11.6977 16.0849C12.3322 16.7195 12.6888 17.5802 12.6888 18.4777V20.9648L6.24487 20.6305Z" stroke="#CC68A1" stroke-width="1.6" stroke-miterlimit="10" stroke-linecap="round" stroke-linejoin="round"/>
<path d="M18.7902 5.37492L15.8469 2.43167L11.5787 8.28061C11.3514 8.6138 11.1947 8.99005 11.1184 9.38617L10.7921 11.0797L11.9387 12.2264L13.0854 13.373L14.779 13.0468C15.1751 12.9705 15.5514 12.8137 15.8845 12.5864L21.7335 8.31823L18.7902 5.37492Z" stroke="#CC68A1" stroke-width="1.6" stroke-miterlimit="10" stroke-linecap="round" stroke-linejoin="round"/>
<path d="M23.5258 6.52598L17.6393 0.639422L15.847 2.4318L21.7335 8.31836L23.5258 6.52598Z" stroke="#CC68A1" stroke-width="1.6" stroke-miterlimit="10" stroke-linecap="round" stroke-linejoin="round"/>
<path d="M10.7921 11.0799L8.74237 13.1296L11.0356 15.4229L13.0853 13.3731L10.7921 11.0799Z" stroke="#CC68A1" stroke-width="1.6" stroke-miterlimit="10" stroke-linecap="round" stroke-linejoin="round"/>
</g>
</svg>
