<svg width="26" height="28" viewBox="0 0 26 28" fill="none" xmlns="http://www.w3.org/2000/svg">
<path d="M8.5191 19.2461C10.6019 21.3289 15.6672 19.6404 19.8328 15.4748C23.9984 11.3092 25.6868 6.24395 23.604 4.16113" stroke="#CC68A1" stroke-width="2.66667" stroke-linecap="round" stroke-linejoin="round"/>
<path d="M14.647 2.74707L15.5898 3.68988" stroke="#CC68A1" stroke-width="2.66667" stroke-linecap="round" stroke-linejoin="round"/>
<path d="M11.3475 6.04688L12.2903 6.98967" stroke="#CC68A1" stroke-width="2.66667" stroke-linecap="round" stroke-linejoin="round"/>
<path d="M8.51874 9.81836L9.46154 10.7612" stroke="#CC68A1" stroke-width="2.66667" stroke-linecap="round" stroke-linejoin="round"/>
<path d="M7.57599 14.5322L8.51879 15.475" stroke="#CC68A1" stroke-width="2.66667" stroke-linecap="round" stroke-linejoin="round"/>
<path d="M19.8325 1.33301L20.7753 2.27581" stroke="#CC68A1" stroke-width="2.66667" stroke-linecap="round" stroke-linejoin="round"/>
<path d="M18.8898 6.99023L20.7755 8.87583" stroke="#CC68A1" stroke-width="2.66667" stroke-linecap="round" stroke-linejoin="round"/>
<path d="M15.5903 10.29L17.4759 12.1756" stroke="#CC68A1" stroke-width="2.66667" stroke-linecap="round" stroke-linejoin="round"/>
<path d="M11.8189 13.1182L13.7045 15.0038" stroke="#CC68A1" stroke-width="2.66667" stroke-linecap="round" stroke-linejoin="round"/>
<path d="M8.51877 22.0747C9.29981 21.2936 9.29982 20.0273 8.51877 19.2462C7.73772 18.4652 6.47139 18.4652 5.69034 19.2462L1.9191 23.0175C1.13805 23.7985 1.13805 25.0649 1.9191 25.8459C2.70015 26.627 3.96648 26.627 4.74753 25.8459L8.51877 22.0747Z" stroke="#CC68A1" stroke-width="2.66667" stroke-linecap="round" stroke-linejoin="round"/>
</svg>
