<svg width="48" height="48" viewBox="0 0 48 48" fill="none" xmlns="http://www.w3.org/2000/svg">
<path d="M23 42H14C12.9391 42 11.9217 41.5786 11.1716 40.8284C10.4214 40.0783 10 39.0609 10 38V26C10 24.9391 10.4214 23.9217 11.1716 23.1716C11.9217 22.4214 12.9391 22 14 22H34C34.76 22 35.468 22.212 36.074 22.58M16 22V14C16 11.8783 16.8429 9.84344 18.3431 8.34315C19.8434 6.84285 21.8783 6 24 6C26.1217 6 28.1566 6.84285 29.6569 8.34315C31.1571 9.84344 32 11.8783 32 14V22" stroke="#D682B0" stroke-width="3" stroke-linecap="round" stroke-linejoin="round"/>
<path d="M36 43.9999L42.7 37.4319C43.1109 37.0332 43.4377 36.5562 43.6612 36.0291C43.8847 35.502 44.0003 34.9355 44.0012 34.363C44.0022 33.7905 43.8884 33.2236 43.6666 32.6957C43.4448 32.1679 43.1196 31.6899 42.71 31.2899C41.8748 30.4716 40.7527 30.0123 39.5834 30.0101C38.4142 30.0078 37.2904 30.4628 36.452 31.2779L36.004 31.7179L35.558 31.2779C34.7228 30.4602 33.6012 30.0013 32.4324 29.999C31.2637 29.9968 30.1403 30.4514 29.302 31.2659C28.891 31.6644 28.564 32.1413 28.3404 32.6683C28.1167 33.1953 28.0009 33.7618 27.9998 34.3343C27.9986 34.9068 28.1122 35.4738 28.3338 36.0017C28.5554 36.5295 28.8806 37.0077 29.29 37.4079L36 43.9999Z" stroke="#D682B0" stroke-width="3" stroke-linecap="round" stroke-linejoin="round"/>
</svg>
