<svg width="32" height="31" viewBox="0 0 32 31" fill="none" xmlns="http://www.w3.org/2000/svg">
<path d="M2.30667 15.7002H11.4533C11.7999 15.7002 12.1322 15.8379 12.3773 16.0829C12.6223 16.328 12.76 16.6604 12.76 17.0069V28.7669C12.76 29.1269 12.4667 29.4202 12.1067 29.4202H1.65333C1.48006 29.4202 1.31388 29.3514 1.19136 29.2289C1.06883 29.1064 1 28.9402 1 28.7669V17.0069C1 16.6604 1.13767 16.328 1.38271 16.0829C1.62776 15.8379 1.96012 15.7002 2.30667 15.7002ZM19.2933 13.7402H29.7467C29.7467 13.7402 30.4 13.7402 30.4 14.3936V28.7669C30.4 28.7669 30.4 29.4202 29.7467 29.4202H19.2933C19.2933 29.4202 18.64 29.4202 18.64 28.7669V14.3936C18.64 14.3936 18.64 13.7402 19.2933 13.7402Z" stroke="#CC68A1" stroke-width="2" stroke-linecap="round" stroke-linejoin="round"/>
<path d="M2.96002 15.7V1.98C2.96002 1.798 3.0107 1.6196 3.10638 1.46478C3.20207 1.30997 3.33897 1.18485 3.50175 1.10346C3.66454 1.02207 3.84677 0.987616 4.02803 1.00396C4.20929 1.0203 4.38242 1.0868 4.52802 1.196L10.016 5.312C10.5094 5.68133 10.8 6.26267 10.8 6.88V15.7M4.92002 25.5H8.84002M18.64 21.58H30.4M18.64 25.5H30.4" stroke="#CC68A1" stroke-width="2" stroke-linecap="round" stroke-linejoin="round"/>
</svg>
