<svg width="32" height="32" viewBox="0 0 32 32" fill="none" xmlns="http://www.w3.org/2000/svg">
<path d="M10.8436 5.53747L4.18487 16L10.8436 26.4625C10.9142 26.5733 10.9622 26.697 10.985 26.8265C11.0077 26.9559 11.0047 27.0886 10.9762 27.2168C10.9476 27.3451 10.8941 27.4665 10.8186 27.5741C10.743 27.6816 10.6471 27.7733 10.5361 27.8437C10.3761 27.9463 10.1899 28.0005 9.99987 28C9.83136 28.0001 9.66554 27.9577 9.51781 27.8766C9.37008 27.7955 9.24524 27.6785 9.15487 27.5362L2.15487 16.5362C2.05277 16.3758 1.99854 16.1895 1.99854 15.9993C1.99854 15.8092 2.05277 15.6229 2.15487 15.4625L9.15487 4.46247C9.29726 4.23869 9.52271 4.08065 9.78163 4.0231C10.0405 3.96555 10.3117 4.01321 10.5355 4.1556C10.7593 4.29798 10.9173 4.52343 10.9749 4.78235C11.0324 5.04127 10.9848 5.31244 10.8424 5.53622L10.8436 5.53747ZM29.8436 15.4637L22.8436 4.46372C22.7731 4.35292 22.6815 4.25709 22.5739 4.1817C22.4664 4.10631 22.3451 4.05284 22.2169 4.02435C21.958 3.9668 21.6868 4.01446 21.463 4.15685C21.2392 4.29923 21.0812 4.52469 21.0236 4.7836C20.9661 5.04252 21.0137 5.31369 21.1561 5.53747L27.8149 16L21.1561 26.4625C21.0855 26.5733 21.0375 26.697 21.0148 26.8265C20.992 26.9559 20.995 27.0886 21.0236 27.2168C21.0521 27.3451 21.1057 27.4665 21.1812 27.5741C21.2567 27.6816 21.3527 27.7733 21.4636 27.8437C21.6236 27.9463 21.8098 28.0005 21.9999 28C22.1684 28.0001 22.3342 27.9577 22.4819 27.8766C22.6297 27.7955 22.7545 27.6785 22.8449 27.5362L29.8449 16.5362C29.9465 16.3758 30.0004 16.1897 30.0002 15.9998C30 15.8099 29.9457 15.6239 29.8436 15.4637Z" fill="#343330"/>
</svg>
