<svg width="32" height="32" viewBox="0 0 32 32" fill="none" xmlns="http://www.w3.org/2000/svg">
<path d="M26.0002 14C25.1362 14.0015 24.2959 14.2823 23.6046 14.8004C22.9132 15.3185 22.4079 16.0462 22.1639 16.875L16.8877 16.125C16.6471 16.091 16.4272 15.9706 16.2689 15.7863L11.8039 10.5688C12.6393 10.1454 13.2996 9.44227 13.6698 8.582C14.04 7.72172 14.0967 6.75882 13.8298 5.86109C13.5629 4.96337 12.9895 4.18774 12.2095 3.66939C11.4295 3.15103 10.4923 2.92282 9.56128 3.02451C8.63027 3.12621 7.76445 3.55136 7.11473 4.22588C6.465 4.90041 6.07256 5.78153 6.00579 6.7157C5.93902 7.64986 6.20216 8.57784 6.74935 9.33791C7.29655 10.098 8.09309 10.642 9.00018 10.875V21.125C8.05752 21.3684 7.23599 21.9473 6.68958 22.753C6.14316 23.5588 5.90939 24.5362 6.03206 25.502C6.15473 26.4678 6.62544 27.3558 7.35595 27.9993C8.08645 28.6429 9.02661 28.998 10.0002 28.998C10.9738 28.998 11.9139 28.6429 12.6444 27.9993C13.3749 27.3558 13.8456 26.4678 13.9683 25.502C14.091 24.5362 13.8572 23.5588 13.3108 22.753C12.7644 21.9473 11.9428 21.3684 11.0002 21.125V12.7038L14.7502 17.0788C15.2241 17.6317 15.883 17.9933 16.6039 18.0963L22.1039 18.8813C22.2699 19.6163 22.6402 20.2895 23.1721 20.8233C23.704 21.3571 24.3758 21.7298 25.1103 21.8985C25.8447 22.0672 26.6119 22.025 27.3234 21.7767C28.0349 21.5285 28.6618 21.0843 29.1319 20.4954C29.602 19.9064 29.8961 19.1967 29.9805 18.4479C30.0649 17.699 29.936 16.9416 29.6087 16.2628C29.2815 15.584 28.7691 15.0115 28.1307 14.6112C27.4923 14.2108 26.7537 13.999 26.0002 14ZM8.00018 7.00002C8.00018 6.60446 8.11748 6.21778 8.33724 5.88888C8.557 5.55998 8.86936 5.30364 9.23481 5.15226C9.60026 5.00089 10.0024 4.96128 10.3904 5.03845C10.7783 5.11562 11.1347 5.3061 11.4144 5.58581C11.6941 5.86551 11.8846 6.22188 11.9617 6.60984C12.0389 6.9978 11.9993 7.39994 11.8479 7.76539C11.6966 8.13084 11.4402 8.4432 11.1113 8.66296C10.7824 8.88272 10.3957 9.00002 10.0002 9.00002C9.46975 9.00002 8.96104 8.78931 8.58597 8.41424C8.21089 8.03916 8.00018 7.53045 8.00018 7.00002ZM12.0002 25C12.0002 25.3956 11.8829 25.7823 11.6631 26.1112C11.4434 26.4401 11.131 26.6964 10.7655 26.8478C10.4001 26.9992 9.99796 27.0388 9.61 26.9616C9.22204 26.8844 8.86567 26.6939 8.58597 26.4142C8.30626 26.1345 8.11578 25.7782 8.03861 25.3902C7.96144 25.0022 8.00104 24.6001 8.15242 24.2347C8.3038 23.8692 8.56014 23.5568 8.88904 23.3371C9.21794 23.1173 9.60462 23 10.0002 23C10.5306 23 11.0393 23.2107 11.4144 23.5858C11.7895 23.9609 12.0002 24.4696 12.0002 25ZM26.0002 20C25.6046 20 25.2179 19.8827 24.889 19.663C24.5601 19.4432 24.3038 19.1308 24.1524 18.7654C24.001 18.3999 23.9614 17.9978 24.0386 17.6098C24.1158 17.2219 24.3063 16.8655 24.586 16.5858C24.8657 16.3061 25.222 16.1156 25.61 16.0385C25.998 15.9613 26.4001 16.0009 26.7655 16.1523C27.131 16.3036 27.4434 16.56 27.6631 16.8889C27.8829 17.2178 28.0002 17.6045 28.0002 18C28.0002 18.5305 27.7895 19.0392 27.4144 19.4142C27.0393 19.7893 26.5306 20 26.0002 20Z" fill="#343330"/>
</svg>
