<svg width="32" height="32" viewBox="0 0 32 32" fill="none" xmlns="http://www.w3.org/2000/svg">
<path d="M22.0002 27C22.0002 27.2652 21.8949 27.5196 21.7073 27.7071C21.5198 27.8946 21.2654 28 21.0002 28H3.00023C2.73501 28 2.48066 27.8946 2.29312 27.7071C2.10558 27.5196 2.00023 27.2652 2.00023 27C2.00023 26.7348 2.10558 26.4804 2.29312 26.2929C2.48066 26.1054 2.73501 26 3.00023 26H21.0002C21.2654 26 21.5198 26.1054 21.7073 26.2929C21.8949 26.4804 22.0002 26.7348 22.0002 27ZM30.9827 11.6437C30.9566 11.7829 30.9011 11.915 30.8201 12.0311C30.7391 12.1473 30.6343 12.2449 30.5127 12.3175L12.0865 23.3175C11.3184 23.7679 10.4444 24.006 9.55398 24.0075C8.28562 24.0061 7.06575 23.52 6.14398 22.6487L6.12898 22.6337L1.62523 18.225C1.38694 17.9987 1.20808 17.7172 1.10446 17.4053C1.00085 17.0935 0.975672 16.7609 1.03116 16.437C1.08664 16.1131 1.22108 15.8079 1.42259 15.5483C1.6241 15.2887 1.88646 15.0828 2.18648 14.9487L2.56148 14.765C2.7983 14.6487 3.07147 14.6308 3.32148 14.715L6.85398 15.9075L9.37523 14.3825L6.64648 11.7337C6.40108 11.5077 6.21614 11.2238 6.10852 10.9079C6.00089 10.5921 5.974 10.2544 6.03028 9.92546C6.08657 9.59657 6.22424 9.28699 6.43077 9.02492C6.6373 8.76285 6.90611 8.55661 7.21273 8.42499L7.25273 8.40874L8.14648 8.06999C8.37182 7.98597 8.61989 7.98597 8.84523 8.06999L15.5877 10.5475L22.034 6.69999C23.0612 6.0886 24.2742 5.86735 25.4512 6.07667C26.6282 6.28599 27.6905 6.9119 28.444 7.83999L28.459 7.85874L30.789 10.845C30.876 10.9568 30.9383 11.0858 30.9717 11.2235C31.0051 11.3612 31.0089 11.5045 30.9827 11.6437ZM28.5152 11.1812L26.8902 9.09749C26.4379 8.5442 25.8022 8.17153 25.0984 8.04721C24.3947 7.92289 23.6697 8.05516 23.0552 8.41999L16.2052 12.51C16.0769 12.5861 15.9334 12.6327 15.7848 12.6465C15.6363 12.6604 15.4866 12.6411 15.3465 12.59L8.50023 10.0725L8.00023 10.2637L8.02648 10.2887L11.6965 13.85C11.8061 13.9565 11.8898 14.0867 11.9413 14.2306C11.9927 14.3745 12.0105 14.5283 11.9932 14.6801C11.9759 14.832 11.9241 14.9778 11.8417 15.1065C11.7593 15.2352 11.6484 15.3433 11.5177 15.4225L7.49148 17.8587C7.36693 17.934 7.22746 17.9811 7.08281 17.9969C6.93816 18.0126 6.79181 17.9966 6.65398 17.95L3.07023 16.7412L3.04648 16.7537L3.00023 16.775C3.00625 16.7793 3.01171 16.7843 3.01648 16.79L7.51648 21.1975C7.9861 21.6388 8.58609 21.9161 9.22654 21.9877C9.86699 22.0594 10.5134 21.9216 11.069 21.595L28.5152 11.1812Z" fill="#343330"/>
</svg>
