<svg width="32" height="32" viewBox="0 0 32 32" fill="none" xmlns="http://www.w3.org/2000/svg">
<path d="M29.6665 13.2762L7.67648 5.12497L7.65648 5.11872C7.30252 4.99685 6.92146 4.97676 6.55665 5.06075C6.19184 5.14474 5.85793 5.32943 5.5929 5.59381C5.32787 5.8582 5.14235 6.19165 5.05747 6.55625C4.97258 6.92085 4.99173 7.30196 5.11273 7.65622C5.11425 7.66305 5.11634 7.66974 5.11898 7.67622L13.2765 29.6662C13.4105 30.0583 13.6646 30.3982 14.0027 30.6376C14.3409 30.8771 14.7459 31.0038 15.1602 31H15.1977C15.6202 30.9967 16.0305 30.8578 16.3681 30.6038C16.7057 30.3497 16.9527 29.9938 17.0727 29.5887L17.0802 29.5637L19.8102 19.8137L29.5602 17.0837L29.5852 17.0762C29.9874 16.9525 30.3402 16.7051 30.5936 16.3692C30.847 16.0333 30.988 15.6261 30.9966 15.2055C31.0052 14.7848 30.8809 14.3722 30.6414 14.0263C30.4019 13.6804 30.0595 13.4188 29.6627 13.2787L29.6665 13.2762ZM18.7302 18.0375C18.5651 18.0838 18.4147 18.1719 18.2934 18.2931C18.1721 18.4144 18.0841 18.5648 18.0377 18.73L15.1627 29L15.1552 28.9787L7.00023 6.99997L28.9777 15.1525L28.9977 15.16L18.7302 18.0375Z" fill="#343330"/>
</svg>
