<svg width="32" height="32" viewBox="0 0 32 32" fill="none" xmlns="http://www.w3.org/2000/svg">
<path d="M28.6326 6.73624C28.4899 5.89468 28.0889 5.11835 27.4854 4.51477C26.8818 3.9112 26.1055 3.51026 25.2639 3.36749C21.2176 2.68124 13.5901 2.36749 7.98015 7.97999C2.37015 13.5925 2.6814 21.2175 3.36765 25.2637C3.5108 26.1062 3.91266 26.8831 4.51745 27.4868C5.12224 28.0905 5.89995 28.4909 6.74265 28.6325C8.16033 28.8743 9.59574 28.9972 11.0339 29C15.0451 29 20.0401 28 24.0201 24.02C29.6314 18.41 29.3189 10.7825 28.6326 6.73624ZM20.9314 4.98624C22.2722 4.99097 23.6102 5.10804 24.9314 5.33624C25.3641 5.41014 25.7631 5.61668 26.0732 5.92729C26.3834 6.23789 26.5894 6.6372 26.6626 7.06999C26.9205 8.56478 27.0336 10.081 27.0001 11.5975L20.4014 4.99999C20.5764 4.98999 20.7501 4.98749 20.9314 4.98749V4.98624ZM7.07015 26.6625C6.63742 26.5889 6.23825 26.3826 5.92787 26.0723C5.6175 25.7619 5.41124 25.3627 5.33765 24.93C5.07975 23.4352 4.96672 21.919 5.00015 20.4025L11.5976 27C10.0811 27.034 8.56486 26.921 7.07015 26.6625ZM22.6076 22.6075C21.1564 24.0575 18.4489 26.0737 14.1864 26.7662L5.2339 17.8137C5.9264 13.5512 7.94265 10.8437 9.39265 9.39249C10.8426 7.94124 13.5501 5.92499 17.8126 5.23249L26.7664 14.1862C26.0739 18.4487 24.0576 21.1562 22.6076 22.6075ZM20.7051 11.295C20.8925 11.4825 20.9978 11.7368 20.9978 12.0019C20.9978 12.267 20.8925 12.5212 20.7051 12.7087L18.9126 14.5L19.7051 15.2925C19.804 15.3839 19.8833 15.4944 19.9384 15.6172C19.9935 15.74 20.0232 15.8727 20.0258 16.0073C20.0284 16.1419 20.0038 16.2756 19.9534 16.4005C19.9031 16.5254 19.828 16.6388 19.7328 16.7339C19.6376 16.8291 19.5241 16.904 19.3992 16.9542C19.2743 17.0045 19.1405 17.029 19.0059 17.0263C18.8713 17.0236 18.7387 16.9937 18.6159 16.9385C18.4931 16.8833 18.3827 16.8039 18.2914 16.705L17.5001 15.9137L15.9139 17.5L16.7064 18.2925C16.8053 18.3838 16.8847 18.4942 16.9399 18.617C16.9951 18.7398 17.025 18.8724 17.0277 19.007C17.0304 19.1416 17.0059 19.2754 16.9557 19.4003C16.9054 19.5252 16.8305 19.6386 16.7353 19.7339C16.6402 19.8291 16.5268 19.9042 16.4019 19.9545C16.2771 20.0049 16.1433 20.0295 16.0087 20.0269C15.8741 20.0243 15.7414 19.9946 15.6186 19.9395C15.4958 19.8844 15.3853 19.805 15.2939 19.7062L14.5001 18.9125L12.7076 20.705C12.6157 20.8018 12.5053 20.8791 12.383 20.9326C12.2607 20.986 12.1289 21.0144 11.9955 21.0161C11.862 21.0178 11.7295 20.9928 11.6059 20.9425C11.4823 20.8922 11.3699 20.8177 11.2756 20.7233C11.1812 20.6289 11.1066 20.5166 11.0564 20.393C11.0061 20.2693 10.981 20.1369 10.9828 20.0034C10.9845 19.8699 11.0129 19.7382 11.0663 19.6159C11.1197 19.4935 11.1971 19.3832 11.2939 19.2912L13.0876 17.5L12.2951 16.7075C12.1198 16.5176 12.0248 16.2673 12.0299 16.0089C12.0351 15.7506 12.1401 15.5042 12.323 15.3216C12.5058 15.1389 12.7522 15.0341 13.0106 15.0292C13.269 15.0242 13.5192 15.1195 13.7089 15.295L14.5014 16.0875L16.0864 14.5L15.2939 13.7075C15.1184 13.5178 15.0231 13.2675 15.0281 13.0092C15.033 12.7508 15.1378 12.5044 15.3205 12.3215C15.5031 12.1387 15.7495 12.0337 16.0078 12.0285C16.2662 12.0234 16.5166 12.1184 16.7064 12.2937L17.5001 13.0875L19.2926 11.295C19.4801 11.108 19.7341 11.0029 19.9989 11.0029C20.2637 11.0029 20.5177 11.108 20.7051 11.295Z" fill="#343330"/>
</svg>
