<svg width="32" height="32" viewBox="0 0 32 32" fill="none" xmlns="http://www.w3.org/2000/svg">
<path d="M21.5002 11C22.1925 11 22.8692 10.7947 23.4447 10.4101C24.0203 10.0256 24.4689 9.47893 24.7338 8.83939C24.9987 8.19985 25.068 7.49612 24.933 6.81719C24.7979 6.13825 24.4646 5.51461 23.9751 5.02513C23.4856 4.53564 22.862 4.2023 22.1831 4.06725C21.5041 3.9322 20.8004 4.00152 20.1608 4.26642C19.5213 4.53133 18.9747 4.97993 18.5901 5.55551C18.2055 6.13108 18.0002 6.80777 18.0002 7.5C18.0002 8.42826 18.369 9.3185 19.0254 9.97487C19.6817 10.6313 20.572 11 21.5002 11ZM21.5002 6C21.7969 6 22.0869 6.08798 22.3336 6.2528C22.5803 6.41762 22.7725 6.65189 22.8861 6.92598C22.9996 7.20007 23.0293 7.50167 22.9714 7.79264C22.9135 8.08361 22.7707 8.35088 22.5609 8.56066C22.3511 8.77044 22.0838 8.9133 21.7929 8.97118C21.5019 9.02906 21.2003 8.99935 20.9262 8.88582C20.6521 8.77229 20.4179 8.58003 20.253 8.33336C20.0882 8.08668 20.0002 7.79667 20.0002 7.5C20.0002 7.10218 20.1583 6.72065 20.4396 6.43934C20.7209 6.15804 21.1024 6 21.5002 6ZM4.04024 9.72C4.07701 9.59393 4.13825 9.47634 4.22047 9.37394C4.30268 9.27154 4.40426 9.18633 4.51941 9.12319C4.63455 9.06005 4.761 9.0202 4.89155 9.00593C5.02209 8.99165 5.15417 9.00323 5.28024 9.04L14.0002 11.5838L15.2902 10.2925C15.3831 10.1995 15.4934 10.1258 15.6148 10.0754C15.7362 10.0251 15.8663 9.99921 15.9977 9.99921C16.1292 9.99921 16.2593 10.0251 16.3807 10.0754C16.5021 10.1258 16.6124 10.1995 16.7052 10.2925L20.414 14H25.0002C25.2655 14 25.5198 14.1054 25.7073 14.2929C25.8949 14.4804 26.0002 14.7348 26.0002 15C26.0002 15.2652 25.8949 15.5196 25.7073 15.7071C25.5198 15.8946 25.2655 16 25.0002 16H20.0002C19.8689 16.0001 19.7388 15.9743 19.6174 15.9241C19.496 15.8739 19.3857 15.8003 19.2927 15.7075L18.5915 15L4.71649 10.955C4.4637 10.8799 4.25082 10.708 4.12416 10.4767C3.99751 10.2454 3.96735 9.97343 4.04024 9.72ZM29.5552 25.53C28.4948 26.2386 27.2919 26.7059 26.0313 26.8992C24.7707 27.0925 23.483 27.007 22.259 26.6488L2.72149 20.9588C2.59321 20.924 2.47315 20.864 2.36832 20.7824C2.26348 20.7007 2.17598 20.5989 2.11093 20.4831C2.04587 20.3672 2.00456 20.2395 1.98942 20.1075C1.97428 19.9754 1.98561 19.8417 2.02274 19.7141C2.05988 19.5865 2.12207 19.4676 2.20569 19.3643C2.28932 19.261 2.39269 19.1754 2.50977 19.1125C2.62685 19.0497 2.75528 19.0107 2.88757 18.9981C3.01986 18.9854 3.15335 18.9992 3.28024 19.0388L12.7802 21.805L16.0915 18.5L10.7252 16.9613C10.5989 16.9251 10.481 16.8645 10.3781 16.7828C10.2752 16.7011 10.1894 16.5999 10.1256 16.4851C9.99682 16.2531 9.96543 15.9795 10.0384 15.7244C10.0745 15.5981 10.1351 15.4801 10.2168 15.3772C10.2985 15.2743 10.3997 15.1886 10.5145 15.1248C10.7465 14.996 11.0201 14.9646 11.2752 15.0375L18.2752 17.0375C18.4427 17.0853 18.5948 17.176 18.7164 17.3007C18.8381 17.4253 18.925 17.5796 18.9687 17.7482C19.0124 17.9168 19.0113 18.0939 18.9655 18.2619C18.9198 18.4299 18.8309 18.5831 18.7077 18.7063L14.9702 22.4438L22.819 24.7288C23.7626 25.0051 24.7554 25.0711 25.7273 24.9221C26.6991 24.773 27.6265 24.4126 28.444 23.8663C28.5532 23.7934 28.6758 23.7427 28.8046 23.7172C28.9334 23.6917 29.066 23.6917 29.1948 23.7175C29.3236 23.7432 29.446 23.794 29.5552 23.867C29.6643 23.9401 29.758 24.0339 29.8309 24.1431C29.9037 24.2524 29.9544 24.3749 29.9799 24.5037C30.0055 24.6325 30.0054 24.7651 29.9797 24.8939C29.9539 25.0227 29.9031 25.1451 29.8301 25.2543C29.757 25.3634 29.6632 25.4571 29.554 25.53H29.5552Z" fill="#343330"/>
</svg>
