<svg width="32" height="32" viewBox="0 0 32 32" fill="none" xmlns="http://www.w3.org/2000/svg">
<path d="M27.5336 19.8175C27.391 19.7275 27.228 19.6751 27.0598 19.6651C26.8915 19.655 26.7234 19.6877 26.5711 19.76C26.1901 19.9402 25.7697 20.0211 25.3489 19.9953C24.9282 19.9694 24.5209 19.8376 24.1648 19.6121C23.8087 19.3866 23.5154 19.0747 23.3121 18.7054C23.1089 18.3362 23.0023 17.9215 23.0023 17.5C23.0023 17.0785 23.1089 16.6638 23.3121 16.2945C23.5154 15.9253 23.8087 15.6134 24.1648 15.3879C24.5209 15.1624 24.9282 15.0305 25.3489 15.0047C25.7697 14.9788 26.1901 15.0598 26.5711 15.24C26.7236 15.3123 26.8919 15.3449 27.0603 15.3347C27.2287 15.3245 27.3918 15.2719 27.5345 15.1817C27.6771 15.0915 27.7945 14.9666 27.8759 14.8188C27.9573 14.671 27.9999 14.505 27.9999 14.3362V8.99998C27.9999 8.46955 27.7892 7.96084 27.4141 7.58577C27.039 7.2107 26.5303 6.99998 25.9999 6.99998H21.4724C21.491 6.83397 21.5002 6.66703 21.4999 6.49998C21.499 5.88539 21.3725 5.27745 21.1284 4.71344C20.8842 4.14943 20.5274 3.64123 20.0799 3.21998C19.4602 2.638 18.6884 2.24344 17.8537 2.08201C17.0191 1.92057 16.1558 1.99886 15.3638 2.30781C14.5718 2.61675 13.8835 3.14372 13.3787 3.82768C12.8738 4.51165 12.573 5.32463 12.5111 6.17248C12.4919 6.44828 12.4978 6.72525 12.5286 6.99998H7.99988C7.46944 6.99998 6.96074 7.2107 6.58566 7.58577C6.21059 7.96084 5.99988 8.46955 5.99988 8.99998V13.0275C5.83386 13.0089 5.66693 12.9997 5.49988 13C4.88529 13.001 4.27738 13.1274 3.71338 13.3716C3.14938 13.6158 2.64117 13.9725 2.21988 14.42C1.79556 14.8682 1.46884 15.3995 1.26035 15.9805C1.05187 16.5614 0.966152 17.1792 1.00863 17.795C1.08029 18.8792 1.54097 19.9011 2.30597 20.6727C3.07096 21.4444 4.08882 21.9139 5.17238 21.995C5.44816 22.0148 5.72518 22.009 5.99988 21.9775V26C5.99988 26.5304 6.21059 27.0391 6.58566 27.4142C6.96074 27.7893 7.46944 28 7.99988 28H25.9999C26.5303 28 27.039 27.7893 27.4141 27.4142C27.7892 27.0391 27.9999 26.5304 27.9999 26V20.6637C28 20.4948 27.9573 20.3285 27.8757 20.1806C27.7942 20.0326 27.6765 19.9077 27.5336 19.8175ZM25.9999 26H7.99988V20.6637C7.99993 20.495 7.95729 20.329 7.87591 20.1811C7.79453 20.0333 7.67706 19.9085 7.53445 19.8183C7.39184 19.7281 7.22873 19.6754 7.06029 19.6652C6.89185 19.655 6.72358 19.6876 6.57113 19.76C6.19008 19.9402 5.76966 20.0211 5.34895 19.9953C4.92823 19.9694 4.52089 19.8376 4.16478 19.6121C3.80867 19.3866 3.51536 19.0747 3.31211 18.7054C3.10887 18.3362 3.0023 17.9215 3.0023 17.5C3.0023 17.0785 3.10887 16.6638 3.31211 16.2945C3.51536 15.9253 3.80867 15.6134 4.16478 15.3879C4.52089 15.1624 4.92823 15.0305 5.34895 15.0047C5.76966 14.9788 6.19008 15.0598 6.57113 15.24C6.72358 15.3123 6.89185 15.3449 7.06029 15.3347C7.22873 15.3245 7.39184 15.2719 7.53445 15.1817C7.67706 15.0915 7.79453 14.9666 7.87591 14.8188C7.95729 14.671 7.99993 14.505 7.99988 14.3362V8.99998H13.8361C14.0049 9.00004 14.1709 8.95739 14.3187 8.87601C14.4665 8.79463 14.5914 8.67717 14.6816 8.53456C14.7718 8.39195 14.8244 8.22883 14.8346 8.06039C14.8448 7.89196 14.8122 7.72368 14.7399 7.57123C14.5597 7.19019 14.4787 6.76977 14.5046 6.34905C14.5304 5.92834 14.6622 5.52099 14.8878 5.16488C15.1133 4.80877 15.4252 4.51546 15.7944 4.31222C16.1637 4.10898 16.5784 4.0024 16.9999 4.0024C17.4214 4.0024 17.8361 4.10898 18.2053 4.31222C18.5746 4.51546 18.8865 4.80877 19.112 5.16488C19.3375 5.52099 19.4693 5.92834 19.4952 6.34905C19.521 6.76977 19.4401 7.19019 19.2599 7.57123C19.1875 7.72368 19.1549 7.89196 19.1651 8.06039C19.1753 8.22883 19.228 8.39195 19.3182 8.53456C19.4084 8.67717 19.5332 8.79463 19.681 8.87601C19.8289 8.95739 19.9949 9.00004 20.1636 8.99998H25.9999V13.0287C25.7252 12.9973 25.4482 12.9914 25.1724 13.0112C24.0085 13.0936 22.9222 13.6249 22.1425 14.4929C21.3628 15.3609 20.9507 16.4978 20.9932 17.6638C21.0357 18.8298 21.5294 19.9338 22.3702 20.7427C23.211 21.5517 24.3331 22.0025 25.4999 22C25.6669 22.0003 25.8339 21.9911 25.9999 21.9725V26Z" fill="#343330"/>
</svg>
