<svg width="32" height="32" viewBox="0 0 32 32" fill="none" xmlns="http://www.w3.org/2000/svg">
<path d="M31.4702 11.1176L16.4702 3.11758C16.3255 3.04054 16.1641 3.00024 16.0002 3.00024C15.8363 3.00024 15.6749 3.04054 15.5302 3.11758L0.530176 11.1176C0.370181 11.2028 0.236377 11.33 0.143076 11.4854C0.0497749 11.6409 0.000488281 11.8188 0.000488281 12.0001C0.000488281 12.1814 0.0497749 12.3593 0.143076 12.5147C0.236377 12.6702 0.370181 12.7973 0.530176 12.8826L4.00018 14.7338V20.7863C3.99914 21.2775 4.17991 21.7517 4.50768 22.1176C6.14518 23.9413 9.81392 27.0001 16.0002 27.0001C18.0514 27.017 20.0872 26.6455 22.0002 25.9051V30.0001C22.0002 30.2653 22.1055 30.5196 22.2931 30.7072C22.4806 30.8947 22.735 31.0001 23.0002 31.0001C23.2654 31.0001 23.5197 30.8947 23.7073 30.7072C23.8948 30.5196 24.0002 30.2653 24.0002 30.0001V24.9388C25.3042 24.1861 26.4826 23.2342 27.4927 22.1176C27.8204 21.7517 28.0012 21.2775 28.0002 20.7863V14.7338L31.4702 12.8826C31.6302 12.7973 31.764 12.6702 31.8573 12.5147C31.9506 12.3593 31.9999 12.1814 31.9999 12.0001C31.9999 11.8188 31.9506 11.6409 31.8573 11.4854C31.764 11.33 31.6302 11.2028 31.4702 11.1176ZM16.0002 25.0001C10.5914 25.0001 7.41018 22.3576 6.00018 20.7863V15.8001L15.5302 20.8826C15.6749 20.9596 15.8363 20.9999 16.0002 20.9999C16.1641 20.9999 16.3255 20.9596 16.4702 20.8826L22.0002 17.9338V23.7263C20.4252 24.4613 18.4402 25.0001 16.0002 25.0001ZM26.0002 20.7813C25.4007 21.4465 24.73 22.0438 24.0002 22.5626V16.8663L26.0002 15.8001V20.7813ZM23.5002 14.8676L23.4727 14.8513L16.4727 11.1176C16.2391 10.9983 15.9681 10.9755 15.7179 11.0542C15.4677 11.1328 15.2584 11.3066 15.1352 11.5381C15.0119 11.7695 14.9845 12.0402 15.0588 12.2917C15.1332 12.5431 15.3034 12.7554 15.5327 12.8826L21.3752 16.0001L16.0002 18.8663L3.12518 12.0001L16.0002 5.13383L28.8752 12.0001L23.5002 14.8676Z" fill="#343330"/>
</svg>
