<svg width="32" height="32" viewBox="0 0 32 32" fill="none" xmlns="http://www.w3.org/2000/svg">
<path d="M6.74013 4.32753C6.65231 4.22854 6.54572 4.14797 6.42653 4.09047C6.30734 4.03298 6.17793 3.99971 6.04579 3.99261C5.91365 3.9855 5.78141 4.00469 5.65674 4.04906C5.53207 4.09343 5.41745 4.16211 5.31952 4.25111C5.22159 4.34011 5.14229 4.44766 5.08623 4.56753C5.03017 4.6874 4.99846 4.8172 4.99294 4.94942C4.98741 5.08163 5.00819 5.21363 5.05405 5.33776C5.09992 5.46189 5.16996 5.57568 5.26013 5.67253L8.42138 9.15003C7.07202 9.45197 5.81371 10.0702 4.75013 10.9538C4.53129 11.1298 4.35195 11.3498 4.22381 11.5997C4.09566 11.8496 4.02157 12.1237 4.00635 12.4041C3.99114 12.6845 4.03515 12.9649 4.13552 13.2272C4.23588 13.4895 4.39036 13.7277 4.58888 13.9263L10.6251 19.9638L5.29263 25.2925C5.10499 25.4802 4.99957 25.7347 4.99957 26C4.99957 26.2654 5.10499 26.5199 5.29263 26.7075C5.48027 26.8952 5.73477 27.0006 6.00013 27.0006C6.26549 27.0006 6.51999 26.8952 6.70763 26.7075L12.0364 21.375L18.0726 27.4113C18.2582 27.5976 18.4787 27.7456 18.7215 27.8466C18.9643 27.9476 19.2246 27.9997 19.4876 28C19.5351 28 19.5814 28 19.6289 28C19.914 27.9803 20.1915 27.8994 20.4425 27.7629C20.6936 27.6263 20.9123 27.4374 21.0839 27.2088C21.6746 26.4308 22.1612 25.579 22.5314 24.675L25.2614 27.675C25.3492 27.774 25.4558 27.8546 25.575 27.9121C25.6942 27.9696 25.8236 28.0029 25.9557 28.01C26.0879 28.0171 26.2201 27.9979 26.3448 27.9535C26.4694 27.9091 26.5841 27.8405 26.682 27.7515C26.7799 27.6625 26.8592 27.5549 26.9153 27.435C26.9713 27.3152 27.003 27.1854 27.0086 27.0532C27.0141 26.9209 26.9933 26.7889 26.9475 26.6648C26.9016 26.5407 26.8315 26.4269 26.7414 26.33L6.74013 4.32753ZM19.4876 26L6.00013 12.51C7.27888 11.4788 8.65013 10.965 10.0826 10.9763L20.9776 22.9613C20.6989 24.195 20.0301 25.2788 19.4876 26ZM29.4151 13L23.8351 18.5988C23.7424 18.6918 23.6322 18.7656 23.511 18.816C23.3897 18.8664 23.2597 18.8925 23.1283 18.8926C22.997 18.8928 22.8669 18.8671 22.7455 18.817C22.6241 18.7669 22.5137 18.6934 22.4208 18.6007C22.3278 18.5079 22.2539 18.3978 22.2035 18.2765C22.1531 18.1552 22.1271 18.0252 22.1269 17.8939C22.1267 17.7625 22.1524 17.6324 22.2025 17.511C22.2526 17.3896 22.3261 17.2793 22.4189 17.1863L28.0001 11.5875L20.4151 4.00003L15.2626 9.16878C15.0739 9.34876 14.8223 9.44788 14.5615 9.44501C14.3008 9.44214 14.0514 9.33751 13.8667 9.15342C13.6819 8.96934 13.5764 8.72037 13.5726 8.45961C13.5688 8.19884 13.6671 7.94691 13.8464 7.75753L19.0001 2.58753C19.1859 2.40177 19.4064 2.25441 19.649 2.15387C19.8917 2.05333 20.1518 2.00159 20.4145 2.00159C20.6772 2.00159 20.9373 2.05333 21.18 2.15387C21.4227 2.25441 21.6432 2.40177 21.8289 2.58753L29.4151 10.1725C29.7899 10.5476 30.0005 11.0561 30.0005 11.5863C30.0005 12.1165 29.7899 12.625 29.4151 13Z" fill="#343330"/>
</svg>
