<svg width="32" height="32" viewBox="0 0 32 32" fill="none" xmlns="http://www.w3.org/2000/svg">
<path d="M27.9998 15.9999C27.9998 16.2652 27.8945 16.5195 27.7069 16.7071C27.5194 16.8946 27.265 16.9999 26.9998 16.9999H13.9998C13.7346 16.9999 13.4802 16.8946 13.2927 16.7071C13.1052 16.5195 12.9998 16.2652 12.9998 15.9999C12.9998 15.7347 13.1052 15.4804 13.2927 15.2928C13.4802 15.1053 13.7346 14.9999 13.9998 14.9999H26.9998C27.265 14.9999 27.5194 15.1053 27.7069 15.2928C27.8945 15.4804 27.9998 15.7347 27.9998 15.9999ZM13.9998 8.99995H26.9998C27.265 8.99995 27.5194 8.89459 27.7069 8.70705C27.8945 8.51952 27.9998 8.26516 27.9998 7.99995C27.9998 7.73473 27.8945 7.48038 27.7069 7.29284C27.5194 7.1053 27.265 6.99995 26.9998 6.99995H13.9998C13.7346 6.99995 13.4802 7.1053 13.2927 7.29284C13.1052 7.48038 12.9998 7.73473 12.9998 7.99995C12.9998 8.26516 13.1052 8.51952 13.2927 8.70705C13.4802 8.89459 13.7346 8.99995 13.9998 8.99995ZM26.9998 22.9999H4.99981C4.73459 22.9999 4.48024 23.1053 4.2927 23.2928C4.10517 23.4804 3.99981 23.7347 3.99981 23.9999C3.99981 24.2652 4.10517 24.5195 4.2927 24.7071C4.48024 24.8946 4.73459 24.9999 4.99981 24.9999H26.9998C27.265 24.9999 27.5194 24.8946 27.7069 24.7071C27.8945 24.5195 27.9998 24.2652 27.9998 23.9999C27.9998 23.7347 27.8945 23.4804 27.7069 23.2928C27.5194 23.1053 27.265 22.9999 26.9998 22.9999ZM4.29231 17.7074C4.38518 17.8004 4.49547 17.8742 4.61687 17.9245C4.73827 17.9748 4.86839 18.0007 4.99981 18.0007C5.13123 18.0007 5.26135 17.9748 5.38275 17.9245C5.50415 17.8742 5.61444 17.8004 5.70731 17.7074L10.7073 12.7074C10.8003 12.6146 10.874 12.5043 10.9244 12.3829C10.9747 12.2615 11.0006 12.1314 11.0006 11.9999C11.0006 11.8685 10.9747 11.7384 10.9244 11.617C10.874 11.4956 10.8003 11.3853 10.7073 11.2924L5.70731 6.29245C5.51967 6.1048 5.26517 5.99939 4.99981 5.99939C4.73445 5.99939 4.47995 6.1048 4.29231 6.29245C4.10467 6.48009 3.99925 6.73458 3.99925 6.99995C3.99925 7.26531 4.10467 7.5198 4.29231 7.70745L8.58606 11.9999L4.29231 16.2924C4.19933 16.3853 4.12557 16.4956 4.07525 16.617C4.02493 16.7384 3.99902 16.8685 3.99902 16.9999C3.99902 17.1314 4.02493 17.2615 4.07525 17.3829C4.12557 17.5043 4.19933 17.6146 4.29231 17.7074Z" fill="#343330"/>
</svg>
