<svg width="32" height="32" viewBox="0 0 32 32" fill="none" xmlns="http://www.w3.org/2000/svg">
<path d="M26.6723 27.74C26.476 27.9183 26.2169 28.0114 25.952 27.9987C25.6871 27.9861 25.4381 27.8687 25.2598 27.6725L16.9998 18.5862V24H19.9998C20.265 24 20.5193 24.1053 20.7069 24.2929C20.8944 24.4804 20.9998 24.7347 20.9998 25C20.9998 25.2652 20.8944 25.5195 20.7069 25.7071C20.5193 25.8946 20.265 26 19.9998 26H11.9998C11.7345 26 11.4802 25.8946 11.2927 25.7071C11.1051 25.5195 10.9998 25.2652 10.9998 25C10.9998 24.7347 11.1051 24.4804 11.2927 24.2929C11.4802 24.1053 11.7345 24 11.9998 24H14.9998V16.3862L7.99976 8.68621V11C7.99976 11.2652 7.89441 11.5195 7.70687 11.7071C7.51933 11.8946 7.26498 12 6.99976 12C6.73455 12 6.48019 11.8946 6.29266 11.7071C6.10512 11.5195 5.99976 11.2652 5.99976 11V6.99996C5.99989 6.8572 6.03057 6.71612 6.08976 6.58621L5.25976 5.67246C5.1696 5.5756 5.09955 5.46181 5.05369 5.33769C5.00782 5.21356 4.98705 5.08156 4.99257 4.94934C4.99809 4.81713 5.02981 4.68732 5.08587 4.56746C5.14193 4.44759 5.22122 4.34003 5.31915 4.25104C5.41708 4.16204 5.53171 4.09336 5.65637 4.04899C5.78104 4.00461 5.91328 3.98542 6.04542 3.99253C6.17756 3.99964 6.30697 4.03291 6.42616 4.0904C6.54535 4.14789 6.65194 4.22847 6.73976 4.32746L26.7398 26.3275C26.9181 26.5237 27.0112 26.7828 26.9985 27.0477C26.9859 27.3126 26.8685 27.5616 26.6723 27.74ZM13.2235 7.99996H14.9998V10.0537C14.9998 10.3189 15.1051 10.5733 15.2927 10.7608C15.4802 10.9484 15.7345 11.0537 15.9998 11.0537C16.265 11.0537 16.5193 10.9484 16.7069 10.7608C16.8944 10.5733 16.9998 10.3189 16.9998 10.0537V7.99996H23.9998V11C23.9998 11.2652 24.1051 11.5195 24.2927 11.7071C24.4802 11.8946 24.7345 12 24.9998 12C25.265 12 25.5193 11.8946 25.7069 11.7071C25.8944 11.5195 25.9998 11.2652 25.9998 11V6.99996C25.9998 6.73475 25.8944 6.48039 25.7069 6.29286C25.5193 6.10532 25.265 5.99996 24.9998 5.99996H13.2235C12.9583 5.99996 12.7039 6.10532 12.5164 6.29286C12.3289 6.48039 12.2235 6.73475 12.2235 6.99996C12.2235 7.26518 12.3289 7.51953 12.5164 7.70707C12.7039 7.8946 12.9583 7.99996 13.2235 7.99996Z" fill="#343330"/>
</svg>
