<svg width="32" height="32" viewBox="0 0 32 32" fill="none" xmlns="http://www.w3.org/2000/svg">
<path d="M30.0001 24C30.0001 24.2652 29.8947 24.5196 29.7072 24.7071C29.5196 24.8946 29.2653 25 29.0001 25H11.0001C10.7349 25 10.4805 24.8946 10.293 24.7071C10.1054 24.5196 10.0001 24.2652 10.0001 24V8.41374L5.70757 12.7075C5.51993 12.8951 5.26543 13.0005 5.00007 13.0005C4.7347 13.0005 4.48021 12.8951 4.29257 12.7075C4.10493 12.5199 3.99951 12.2654 3.99951 12C3.99951 11.7346 4.10493 11.4801 4.29257 11.2925L10.2926 5.29249C10.3854 5.19952 10.4957 5.12576 10.6171 5.07543C10.7385 5.02511 10.8687 4.99921 11.0001 4.99921C11.1315 4.99921 11.2616 5.02511 11.383 5.07543C11.5044 5.12576 11.6147 5.19952 11.7076 5.29249L17.7076 11.2925C17.8005 11.3854 17.8742 11.4957 17.9245 11.6171C17.9747 11.7385 18.0006 11.8686 18.0006 12C18.0006 12.1314 17.9747 12.2615 17.9245 12.3829C17.8742 12.5043 17.8005 12.6146 17.7076 12.7075C17.6147 12.8004 17.5044 12.8741 17.383 12.9244C17.2616 12.9747 17.1315 13.0005 17.0001 13.0005C16.8687 13.0005 16.7386 12.9747 16.6172 12.9244C16.4958 12.8741 16.3855 12.8004 16.2926 12.7075L12.0001 8.41374V23H29.0001C29.2653 23 29.5196 23.1053 29.7072 23.2929C29.8947 23.4804 30.0001 23.7348 30.0001 24Z" fill="#343330"/>
</svg>
