<svg width="32" height="32" viewBox="0 0 32 32" fill="none" xmlns="http://www.w3.org/2000/svg">
<path d="M26.0001 9.99999V21C26.0001 23.1217 25.1572 25.1566 23.6569 26.6568C22.1566 28.1571 20.1218 29 18.0001 29C15.8783 29 13.8435 28.1571 12.3432 26.6568C10.8429 25.1566 10.0001 23.1217 10.0001 21V6.41374L5.70757 10.7075C5.51993 10.8951 5.26543 11.0005 5.00007 11.0005C4.7347 11.0005 4.48021 10.8951 4.29257 10.7075C4.10493 10.5199 3.99951 10.2654 3.99951 9.99999C3.99951 9.73463 4.10493 9.48013 4.29257 9.29249L10.2926 3.29249C10.3854 3.19952 10.4957 3.12576 10.6171 3.07543C10.7385 3.02511 10.8687 2.99921 11.0001 2.99921C11.1315 2.99921 11.2616 3.02511 11.383 3.07543C11.5044 3.12576 11.6147 3.19952 11.7076 3.29249L17.7076 9.29249C17.8952 9.48013 18.0006 9.73463 18.0006 9.99999C18.0006 10.2654 17.8952 10.5199 17.7076 10.7075C17.5199 10.8951 17.2654 11.0005 17.0001 11.0005C16.7347 11.0005 16.4802 10.8951 16.2926 10.7075L12.0001 6.41374V21C12.0001 22.5913 12.6322 24.1174 13.7574 25.2426C14.8826 26.3679 16.4088 27 18.0001 27C19.5914 27 21.1175 26.3679 22.2427 25.2426C23.3679 24.1174 24.0001 22.5913 24.0001 21V9.99999C24.0001 9.73478 24.1054 9.48042 24.293 9.29289C24.4805 9.10535 24.7349 8.99999 25.0001 8.99999C25.2653 8.99999 25.5196 9.10535 25.7072 9.29289C25.8947 9.48042 26.0001 9.73478 26.0001 9.99999Z" fill="#343330"/>
</svg>
