<svg width="32" height="32" viewBox="0 0 32 32" fill="none" xmlns="http://www.w3.org/2000/svg">
<path d="M20.7076 24.2926C20.8005 24.3854 20.8743 24.4957 20.9246 24.6171C20.975 24.7385 21.0009 24.8686 21.0009 25.0001C21.0009 25.1315 20.975 25.2616 20.9246 25.383C20.8743 25.5044 20.8005 25.6147 20.7076 25.7076L16.7076 29.7076C16.6147 29.8005 16.5044 29.8743 16.383 29.9246C16.2616 29.9749 16.1315 30.0008 16.0001 30.0008C15.8687 30.0008 15.7385 29.9749 15.6171 29.9246C15.4957 29.8743 15.3854 29.8005 15.2926 29.7076L11.2926 25.7076C11.1049 25.5199 10.9995 25.2654 10.9995 25.0001C10.9995 24.7347 11.1049 24.4802 11.2926 24.2926C11.4802 24.1049 11.7347 23.9995 12.0001 23.9995C12.2654 23.9995 12.5199 24.1049 12.7076 24.2926L15.0001 26.5863V5.4138L12.7076 7.70755C12.5199 7.8952 12.2654 8.00061 12.0001 8.00061C11.7347 8.00061 11.4802 7.8952 11.2926 7.70755C11.1049 7.51991 10.9995 7.26542 10.9995 7.00005C10.9995 6.73469 11.1049 6.4802 11.2926 6.29255L15.2926 2.29255C15.3854 2.19958 15.4957 2.12582 15.6171 2.07549C15.7385 2.02517 15.8687 1.99927 16.0001 1.99927C16.1315 1.99927 16.2616 2.02517 16.383 2.07549C16.5044 2.12582 16.6147 2.19958 16.7076 2.29255L20.7076 6.29255C20.8952 6.4802 21.0006 6.73469 21.0006 7.00005C21.0006 7.26542 20.8952 7.51991 20.7076 7.70755C20.5199 7.8952 20.2654 8.00061 20.0001 8.00061C19.7347 8.00061 19.4802 7.8952 19.2926 7.70755L17.0001 5.4138V26.5863L19.2926 24.2926C19.3854 24.1996 19.4957 24.1258 19.6171 24.0755C19.7385 24.0252 19.8687 23.9993 20.0001 23.9993C20.1315 23.9993 20.2616 24.0252 20.383 24.0755C20.5044 24.1258 20.6147 24.1996 20.7076 24.2926Z" fill="#343330"/>
</svg>
