<svg width="32" height="32" viewBox="0 0 32 32" fill="none" xmlns="http://www.w3.org/2000/svg">
<path d="M30.0002 7V13C30.0002 13.2652 29.8948 13.5196 29.7073 13.7071C29.5197 13.8946 29.2654 14 29.0002 14H23.0002C22.735 14 22.4806 13.8946 22.2931 13.7071C22.1055 13.5196 22.0002 13.2652 22.0002 13C22.0002 12.7348 22.1055 12.4804 22.2931 12.2929C22.4806 12.1054 22.735 12 23.0002 12H26.4252L23.1014 8.955L23.0702 8.925C21.6803 7.53562 19.9118 6.58658 17.9856 6.19644C16.0595 5.8063 14.0611 5.99236 12.24 6.73138C10.419 7.4704 8.85612 8.72961 7.7466 10.3517C6.63707 11.9738 6.03009 13.8869 6.0015 15.8519C5.97291 17.817 6.52397 19.7469 7.58584 21.4006C8.64771 23.0543 10.1733 24.3584 11.9721 25.1501C13.7708 25.9418 15.763 26.1859 17.6996 25.852C19.6363 25.5181 21.4317 24.6209 22.8614 23.2725C23.0542 23.0902 23.3115 22.9919 23.5768 22.9993C23.842 23.0066 24.0935 23.1191 24.2758 23.3119C24.4581 23.5047 24.5564 23.762 24.549 24.0272C24.5417 24.2925 24.4292 24.5439 24.2364 24.7263C22.0133 26.8347 19.0641 28.0069 16.0002 28H15.8352C13.8698 27.9731 11.9412 27.4638 10.2188 26.517C8.49638 25.5702 7.0329 24.2147 5.957 22.5698C4.88109 20.9249 4.2257 19.0409 4.04842 17.0834C3.87115 15.1259 4.17742 13.1549 4.94031 11.3435C5.7032 9.53203 6.89936 7.93574 8.42366 6.69487C9.94796 5.454 11.7537 4.60655 13.6822 4.227C15.6108 3.84744 17.603 3.94741 19.4838 4.51811C21.3646 5.08881 23.0765 6.11278 24.4689 7.5L28.0002 10.725V7C28.0002 6.73479 28.1055 6.48043 28.2931 6.2929C28.4806 6.10536 28.735 6 29.0002 6C29.2654 6 29.5197 6.10536 29.7073 6.2929C29.8948 6.48043 30.0002 6.73479 30.0002 7Z" fill="#343330"/>
</svg>
