<svg width="32" height="32" viewBox="0 0 32 32" fill="none" xmlns="http://www.w3.org/2000/svg">
<path d="M11.2923 7.70755C11.1993 7.61468 11.1256 7.50439 11.0753 7.38299C11.0249 7.2616 10.999 7.13147 10.999 7.00005C10.999 6.86864 11.0249 6.73851 11.0753 6.61711C11.1256 6.49572 11.1993 6.38543 11.2923 6.29255L15.2923 2.29255C15.3852 2.19958 15.4955 2.12582 15.6169 2.07549C15.7383 2.02517 15.8684 1.99927 15.9998 1.99927C16.1312 1.99927 16.2614 2.02517 16.3828 2.07549C16.5041 2.12582 16.6144 2.19958 16.7073 2.29255L20.7073 6.29255C20.895 6.4802 21.0004 6.73469 21.0004 7.00005C21.0004 7.26542 20.895 7.51991 20.7073 7.70755C20.5197 7.8952 20.2652 8.00061 19.9998 8.00061C19.7344 8.00061 19.4799 7.8952 19.2923 7.70755L16.9998 5.4138V12.0001C16.9998 12.2653 16.8945 12.5196 16.7069 12.7072C16.5194 12.8947 16.265 13.0001 15.9998 13.0001C15.7346 13.0001 15.4802 12.8947 15.2927 12.7072C15.1052 12.5196 14.9998 12.2653 14.9998 12.0001V5.4138L12.7073 7.70755C12.6144 7.80053 12.5041 7.87429 12.3828 7.92461C12.2614 7.97494 12.1312 8.00084 11.9998 8.00084C11.8684 8.00084 11.7383 7.97494 11.6169 7.92461C11.4955 7.87429 11.3852 7.80053 11.2923 7.70755ZM19.2923 24.2926L16.9998 26.5863V20.0001C16.9998 19.7348 16.8945 19.4805 16.7069 19.2929C16.5194 19.1054 16.265 19.0001 15.9998 19.0001C15.7346 19.0001 15.4802 19.1054 15.2927 19.2929C15.1052 19.4805 14.9998 19.7348 14.9998 20.0001V26.5863L12.7073 24.2926C12.5197 24.1049 12.2652 23.9995 11.9998 23.9995C11.7344 23.9995 11.4799 24.1049 11.2923 24.2926C11.1047 24.4802 10.9993 24.7347 10.9993 25.0001C10.9993 25.2654 11.1047 25.5199 11.2923 25.7076L15.2923 29.7076C15.3852 29.8005 15.4955 29.8743 15.6169 29.9246C15.7383 29.9749 15.8684 30.0008 15.9998 30.0008C16.1312 30.0008 16.2614 29.9749 16.3828 29.9246C16.5041 29.8743 16.6144 29.8005 16.7073 29.7076L20.7073 25.7076C20.895 25.5199 21.0004 25.2654 21.0004 25.0001C21.0004 24.7347 20.895 24.4802 20.7073 24.2926C20.5197 24.1049 20.2652 23.9995 19.9998 23.9995C19.7344 23.9995 19.4799 24.1049 19.2923 24.2926ZM29.7073 15.2926L25.7073 11.2926C25.5197 11.1049 25.2652 10.9995 24.9998 10.9995C24.7344 10.9995 24.4799 11.1049 24.2923 11.2926C24.1047 11.4802 23.9993 11.7347 23.9993 12.0001C23.9993 12.2654 24.1047 12.5199 24.2923 12.7076L26.5861 15.0001H19.9998C19.7346 15.0001 19.4802 15.1054 19.2927 15.2929C19.1052 15.4805 18.9998 15.7348 18.9998 16.0001C18.9998 16.2653 19.1052 16.5196 19.2927 16.7072C19.4802 16.8947 19.7346 17.0001 19.9998 17.0001H26.5861L24.2923 19.2926C24.1047 19.4802 23.9993 19.7347 23.9993 20.0001C23.9993 20.2654 24.1047 20.5199 24.2923 20.7076C24.4799 20.8952 24.7344 21.0006 24.9998 21.0006C25.2652 21.0006 25.5197 20.8952 25.7073 20.7076L29.7073 16.7076C29.8003 16.6147 29.874 16.5044 29.9244 16.383C29.9747 16.2616 30.0006 16.1315 30.0006 16.0001C30.0006 15.8686 29.9747 15.7385 29.9244 15.6171C29.874 15.4957 29.8003 15.3854 29.7073 15.2926ZM5.41356 17.0001H11.9998C12.265 17.0001 12.5194 16.8947 12.7069 16.7072C12.8945 16.5196 12.9998 16.2653 12.9998 16.0001C12.9998 15.7348 12.8945 15.4805 12.7069 15.2929C12.5194 15.1054 12.265 15.0001 11.9998 15.0001H5.41356L7.70731 12.7076C7.89495 12.5199 8.00037 12.2654 8.00037 12.0001C8.00037 11.7347 7.89495 11.4802 7.70731 11.2926C7.51967 11.1049 7.26517 10.9995 6.99981 10.9995C6.73445 10.9995 6.47995 11.1049 6.29231 11.2926L2.29231 15.2926C2.19933 15.3854 2.12557 15.4957 2.07525 15.6171C2.02493 15.7385 1.99902 15.8686 1.99902 16.0001C1.99902 16.1315 2.02493 16.2616 2.07525 16.383C2.12557 16.5044 2.19933 16.6147 2.29231 16.7076L6.29231 20.7076C6.47995 20.8952 6.73445 21.0006 6.99981 21.0006C7.26517 21.0006 7.51967 20.8952 7.70731 20.7076C7.89495 20.5199 8.00037 20.2654 8.00037 20.0001C8.00037 19.7347 7.89495 19.4802 7.70731 19.2926L5.41356 17.0001Z" fill="#343330"/>
</svg>
