<svg width="32" height="32" viewBox="0 0 32 32" fill="none" xmlns="http://www.w3.org/2000/svg">
<path d="M22.7076 21.2926C22.8005 21.3854 22.8743 21.4957 22.9246 21.6171C22.975 21.7385 23.0009 21.8686 23.0009 22.0001C23.0009 22.1315 22.975 22.2616 22.9246 22.383C22.8743 22.5044 22.8005 22.6147 22.7076 22.7076L16.7076 28.7076C16.6147 28.8005 16.5044 28.8743 16.383 28.9246C16.2616 28.9749 16.1315 29.0008 16.0001 29.0008C15.8687 29.0008 15.7385 28.9749 15.6171 28.9246C15.4957 28.8743 15.3854 28.8005 15.2926 28.7076L9.29257 22.7076C9.10493 22.5199 8.99951 22.2654 8.99951 22.0001C8.99951 21.7347 9.10493 21.4802 9.29257 21.2926C9.48021 21.1049 9.7347 20.9995 10.0001 20.9995C10.2654 20.9995 10.5199 21.1049 10.7076 21.2926L16.0001 26.5863L21.2926 21.2926C21.3854 21.1996 21.4957 21.1258 21.6171 21.0755C21.7385 21.0252 21.8687 20.9993 22.0001 20.9993C22.1315 20.9993 22.2616 21.0252 22.383 21.0755C22.5044 21.1258 22.6147 21.1996 22.7076 21.2926ZM10.7076 10.7076L16.0001 5.4138L21.2926 10.7076C21.4802 10.8952 21.7347 11.0006 22.0001 11.0006C22.2654 11.0006 22.5199 10.8952 22.7076 10.7076C22.8952 10.5199 23.0006 10.2654 23.0006 10.0001C23.0006 9.73469 22.8952 9.48019 22.7076 9.29255L16.7076 3.29255C16.6147 3.19958 16.5044 3.12582 16.383 3.07549C16.2616 3.02517 16.1315 2.99927 16.0001 2.99927C15.8687 2.99927 15.7385 3.02517 15.6171 3.07549C15.4957 3.12582 15.3854 3.19958 15.2926 3.29255L9.29257 9.29255C9.10493 9.48019 8.99951 9.73469 8.99951 10.0001C8.99951 10.2654 9.10493 10.5199 9.29257 10.7076C9.48021 10.8952 9.7347 11.0006 10.0001 11.0006C10.2654 11.0006 10.5199 10.8952 10.7076 10.7076Z" fill="#343330"/>
</svg>
