<svg width="32" height="32" viewBox="0 0 32 32" fill="none" xmlns="http://www.w3.org/2000/svg">
<path d="M26.7076 24.2926C26.8005 24.3855 26.8742 24.4958 26.9245 24.6172C26.9747 24.7386 27.0006 24.8687 27.0006 25.0001C27.0006 25.1314 26.9747 25.2616 26.9245 25.3829C26.8742 25.5043 26.8005 25.6146 26.7076 25.7076C26.6147 25.8005 26.5044 25.8742 26.383 25.9244C26.2616 25.9747 26.1315 26.0006 26.0001 26.0006C25.8687 26.0006 25.7386 25.9747 25.6172 25.9244C25.4958 25.8742 25.3855 25.8005 25.2926 25.7076L16.0001 16.4138L6.70757 25.7076C6.51993 25.8952 6.26543 26.0006 6.00007 26.0006C5.7347 26.0006 5.48021 25.8952 5.29257 25.7076C5.10493 25.5199 4.99951 25.2654 4.99951 25.0001C4.99951 24.7347 5.10493 24.4802 5.29257 24.2926L15.2926 14.2926C15.3854 14.1996 15.4957 14.1258 15.6171 14.0755C15.7385 14.0252 15.8687 13.9993 16.0001 13.9993C16.1315 13.9993 16.2616 14.0252 16.383 14.0755C16.5044 14.1258 16.6147 14.1996 16.7076 14.2926L26.7076 24.2926ZM6.70757 15.7076L16.0001 6.4138L25.2926 15.7076C25.3855 15.8005 25.4958 15.8742 25.6172 15.9244C25.7386 15.9747 25.8687 16.0006 26.0001 16.0006C26.1315 16.0006 26.2616 15.9747 26.383 15.9244C26.5044 15.8742 26.6147 15.8005 26.7076 15.7076C26.8005 15.6146 26.8742 15.5043 26.9245 15.383C26.9747 15.2616 27.0006 15.1314 27.0006 15.0001C27.0006 14.8687 26.9747 14.7386 26.9245 14.6172C26.8742 14.4958 26.8005 14.3855 26.7076 14.2926L16.7076 4.29255C16.6147 4.19958 16.5044 4.12582 16.383 4.07549C16.2616 4.02517 16.1315 3.99927 16.0001 3.99927C15.8687 3.99927 15.7385 4.02517 15.6171 4.07549C15.4957 4.12582 15.3854 4.19958 15.2926 4.29255L5.29257 14.2926C5.10493 14.4802 4.99951 14.7347 4.99951 15.0001C4.99951 15.2654 5.10493 15.5199 5.29257 15.7076C5.48021 15.8952 5.7347 16.0006 6.00007 16.0006C6.26543 16.0006 6.51993 15.8952 6.70757 15.7076Z" fill="#343330"/>
</svg>
