<svg width="32" height="32" viewBox="0 0 32 32" fill="none" xmlns="http://www.w3.org/2000/svg">
<path d="M25.7073 25.2924C25.8002 25.3854 25.8739 25.4957 25.9242 25.6171C25.9745 25.7384 26.0004 25.8686 26.0004 25.9999C26.0004 26.1313 25.9745 26.2614 25.9242 26.3828C25.8739 26.5042 25.8002 26.6145 25.7073 26.7074C25.6144 26.8004 25.5041 26.8741 25.3827 26.9243C25.2613 26.9746 25.1312 27.0005 24.9998 27.0005C24.8684 27.0005 24.7383 26.9746 24.6169 26.9243C24.4955 26.8741 24.3852 26.8004 24.2923 26.7074L14.2923 16.7074C14.1993 16.6146 14.1256 16.5043 14.0753 16.3829C14.0249 16.2615 13.999 16.1314 13.999 15.9999C13.999 15.8685 14.0249 15.7384 14.0753 15.617C14.1256 15.4956 14.1993 15.3853 14.2923 15.2924L24.2923 5.29245C24.4799 5.10481 24.7344 4.99939 24.9998 4.99939C25.2652 4.99939 25.5197 5.1048 25.7073 5.29245C25.895 5.48009 26.0004 5.73458 26.0004 5.99995C26.0004 6.26531 25.895 6.5198 25.7073 6.70745L16.4136 15.9999L25.7073 25.2924ZM6.41356 15.9999L15.7073 6.70745C15.895 6.5198 16.0004 6.26531 16.0004 5.99995C16.0004 5.73458 15.895 5.48009 15.7073 5.29245C15.5197 5.1048 15.2652 4.99939 14.9998 4.99939C14.7344 4.99939 14.4799 5.1048 14.2923 5.29245L4.29231 15.2924C4.19933 15.3853 4.12557 15.4956 4.07525 15.617C4.02493 15.7384 3.99902 15.8685 3.99902 15.9999C3.99902 16.1314 4.02493 16.2615 4.07525 16.3829C4.12557 16.5043 4.19933 16.6146 4.29231 16.7074L14.2923 26.7074C14.3852 26.8004 14.4955 26.8741 14.6169 26.9243C14.7383 26.9746 14.8684 27.0005 14.9998 27.0005C15.1312 27.0005 15.2613 26.9746 15.3827 26.9243C15.5041 26.8741 15.6144 26.8004 15.7073 26.7074C15.8002 26.6145 15.8739 26.5042 15.9242 26.3828C15.9745 26.2614 16.0004 26.1313 16.0004 25.9999C16.0004 25.8686 15.9745 25.7384 15.9242 25.6171C15.8739 25.4957 15.8002 25.3854 15.7073 25.2924L6.41356 15.9999Z" fill="#343330"/>
</svg>
