<svg width="32" height="32" viewBox="0 0 32 32" fill="none" xmlns="http://www.w3.org/2000/svg">
<path d="M25.1927 6.80754C22.7547 4.36953 19.448 2.99988 16.0002 2.99988C12.5523 2.99988 9.24566 4.36953 6.80766 6.80754C4.36966 9.24554 3 12.5522 3 16C3 19.4479 4.36966 22.7545 6.80766 25.1925C9.24566 27.6305 12.5523 29.0002 16.0002 29.0002C19.448 29.0002 22.7547 27.6305 25.1927 25.1925C27.6307 22.7545 29.0003 19.4479 29.0003 16C29.0003 12.5522 27.6307 9.24554 25.1927 6.80754ZM23.7789 23.7788C22.2405 25.317 20.2805 26.3645 18.1467 26.7888C16.013 27.2131 13.8013 26.9952 11.7914 26.1626C9.78152 25.3299 8.06365 23.92 6.85503 22.1111C5.64641 20.3022 5.00131 18.1756 5.00131 16C5.00131 13.8245 5.64641 11.6978 6.85503 9.88893C8.06365 8.08003 9.78152 6.67013 11.7914 5.83752C13.8013 5.00491 16.013 4.78697 18.1467 5.21128C20.2805 5.63558 22.2405 6.68307 23.7789 8.22129C25.8388 10.286 26.9956 13.0835 26.9956 16C26.9956 18.9166 25.8388 21.7141 23.7789 23.7788ZM20.7077 20.2925C20.8953 20.4802 21.0007 20.7347 21.0007 21C21.0007 21.2654 20.8953 21.5199 20.7077 21.7075C20.52 21.8952 20.2655 22.0006 20.0002 22.0006C19.7348 22.0006 19.4803 21.8952 19.2927 21.7075L16.0002 18.4138L12.7077 21.7075C12.6147 21.8004 12.5044 21.8741 12.3831 21.9244C12.2617 21.9747 12.1316 22.0006 12.0002 22.0006C11.8688 22.0006 11.7387 21.9747 11.6173 21.9244C11.4959 21.8741 11.3856 21.8004 11.2927 21.7075C11.1997 21.6146 11.126 21.5043 11.0758 21.3829C11.0255 21.2615 10.9996 21.1314 10.9996 21C10.9996 20.8686 11.0255 20.7385 11.0758 20.6171C11.126 20.4957 11.1997 20.3854 11.2927 20.2925L15.2927 16.2925C15.3855 16.1996 15.4958 16.1258 15.6172 16.0755C15.7386 16.0252 15.8687 15.9992 16.0002 15.9992C16.1316 15.9992 16.2617 16.0252 16.3831 16.0755C16.5045 16.1258 16.6148 16.1996 16.7077 16.2925L20.7077 20.2925ZM20.7077 13.2925C20.8006 13.3854 20.8743 13.4957 20.9246 13.6171C20.9748 13.7385 21.0007 13.8686 21.0007 14C21.0007 14.1314 20.9748 14.2615 20.9246 14.3829C20.8743 14.5043 20.8006 14.6146 20.7077 14.7075C20.6147 14.8004 20.5044 14.8741 20.3831 14.9244C20.2617 14.9747 20.1316 15.0006 20.0002 15.0006C19.8688 15.0006 19.7387 14.9747 19.6173 14.9244C19.4959 14.8741 19.3856 14.8004 19.2927 14.7075L16.0002 11.4138L12.7077 14.7075C12.52 14.8952 12.2655 15.0006 12.0002 15.0006C11.7348 15.0006 11.4803 14.8952 11.2927 14.7075C11.105 14.5199 10.9996 14.2654 10.9996 14C10.9996 13.7347 11.105 13.4802 11.2927 13.2925L15.2927 9.29254C15.3855 9.19956 15.4958 9.1258 15.6172 9.07548C15.7386 9.02515 15.8687 8.99925 16.0002 8.99925C16.1316 8.99925 16.2617 9.02515 16.3831 9.07548C16.5045 9.1258 16.6148 9.19956 16.7077 9.29254L20.7077 13.2925Z" fill="#343330"/>
</svg>
