<svg width="32" height="32" viewBox="0 0 32 32" fill="none" xmlns="http://www.w3.org/2000/svg">
<path d="M18.7076 15.2924C18.8005 15.3853 18.8743 15.4956 18.9246 15.617C18.975 15.7384 19.0009 15.8685 19.0009 15.9999C19.0009 16.1314 18.975 16.2615 18.9246 16.3829C18.8743 16.5043 18.8005 16.6146 18.7076 16.7074L8.70757 26.7074C8.51993 26.8951 8.26543 27.0005 8.00007 27.0005C7.7347 27.0005 7.48021 26.8951 7.29257 26.7074C7.10493 26.5198 6.99951 26.2653 6.99951 25.9999C6.99951 25.7346 7.10493 25.4801 7.29257 25.2924L16.5863 15.9999L7.29257 6.70745C7.10493 6.5198 6.99951 6.26531 6.99951 5.99995C6.99951 5.73458 7.10493 5.48009 7.29257 5.29245C7.48021 5.1048 7.7347 4.99939 8.00007 4.99939C8.26543 4.99939 8.51993 5.1048 8.70757 5.29245L18.7076 15.2924ZM23.0001 4.99995C22.7349 4.99995 22.4805 5.1053 22.293 5.29284C22.1054 5.48038 22.0001 5.73473 22.0001 5.99995V25.9999C22.0001 26.2652 22.1054 26.5195 22.293 26.7071C22.4805 26.8946 22.7349 26.9999 23.0001 26.9999C23.2653 26.9999 23.5196 26.8946 23.7072 26.7071C23.8947 26.5195 24.0001 26.2652 24.0001 25.9999V5.99995C24.0001 5.73473 23.8947 5.48038 23.7072 5.29284C23.5196 5.1053 23.2653 4.99995 23.0001 4.99995Z" fill="#343330"/>
</svg>
