<svg width="32" height="32" viewBox="0 0 32 32" fill="none" xmlns="http://www.w3.org/2000/svg">
<path d="M25.1924 6.80754C22.7544 4.36953 19.4478 2.99988 15.9999 2.99988C12.5521 2.99988 9.24542 4.36953 6.80741 6.80754C4.36941 9.24554 2.99976 12.5522 2.99976 16C2.99976 19.4479 4.36941 22.7545 6.80741 25.1925C9.24542 27.6305 12.5521 29.0002 15.9999 29.0002C19.4478 29.0002 22.7544 27.6305 25.1924 25.1925C27.6304 22.7545 29.0001 19.4479 29.0001 16C29.0001 12.5522 27.6304 9.24554 25.1924 6.80754ZM23.7787 23.7788C22.2402 25.317 20.2802 26.3645 18.1465 26.7888C16.0127 27.2131 13.8011 26.9952 11.7912 26.1626C9.78128 25.3299 8.06341 23.92 6.85479 22.1111C5.64616 20.3022 5.00107 18.1756 5.00107 16C5.00107 13.8245 5.64616 11.6978 6.85479 9.88893C8.06341 8.08003 9.78128 6.67013 11.7912 5.83752C13.8011 5.00491 16.0127 4.78697 18.1465 5.21128C20.2802 5.63558 22.2402 6.68307 23.7787 8.22129C25.8386 10.286 26.9954 13.0835 26.9954 16C26.9954 18.9166 25.8386 21.7141 23.7787 23.7788ZM20.7074 10.2925C20.8004 10.3854 20.8742 10.4957 20.9245 10.6171C20.9748 10.7385 21.0007 10.8686 21.0007 11C21.0007 11.1315 20.9748 11.2616 20.9245 11.383C20.8742 11.5044 20.8004 11.6147 20.7074 11.7075L16.7074 15.7075C16.6145 15.8005 16.5043 15.8743 16.3829 15.9246C16.2615 15.9749 16.1313 16.0008 15.9999 16.0008C15.8685 16.0008 15.7384 15.9749 15.617 15.9246C15.4956 15.8743 15.3853 15.8005 15.2924 15.7075L11.2924 11.7075C11.1048 11.5199 10.9994 11.2654 10.9994 11C10.9994 10.7347 11.1048 10.4802 11.2924 10.2925C11.4801 10.1049 11.7346 9.99948 11.9999 9.99948C12.2653 9.99948 12.5198 10.1049 12.7074 10.2925L15.9999 13.5863L19.2924 10.2925C19.3853 10.1996 19.4956 10.1258 19.617 10.0755C19.7384 10.0252 19.8685 9.99925 19.9999 9.99925C20.1313 9.99925 20.2615 10.0252 20.3829 10.0755C20.5043 10.1258 20.6145 10.1996 20.7074 10.2925ZM20.7074 17.2925C20.8004 17.3854 20.8742 17.4957 20.9245 17.6171C20.9748 17.7385 21.0007 17.8686 21.0007 18C21.0007 18.1315 20.9748 18.2616 20.9245 18.383C20.8742 18.5044 20.8004 18.6147 20.7074 18.7075L16.7074 22.7075C16.6145 22.8005 16.5043 22.8743 16.3829 22.9246C16.2615 22.9749 16.1313 23.0008 15.9999 23.0008C15.8685 23.0008 15.7384 22.9749 15.617 22.9246C15.4956 22.8743 15.3853 22.8005 15.2924 22.7075L11.2924 18.7075C11.1048 18.5199 10.9994 18.2654 10.9994 18C10.9994 17.7347 11.1048 17.4802 11.2924 17.2925C11.4801 17.1049 11.7346 16.9995 11.9999 16.9995C12.2653 16.9995 12.5198 17.1049 12.7074 17.2925L15.9999 20.5863L19.2924 17.2925C19.3853 17.1996 19.4956 17.1258 19.617 17.0755C19.7384 17.0252 19.8685 16.9993 19.9999 16.9993C20.1313 16.9993 20.2615 17.0252 20.3829 17.0755C20.5043 17.1258 20.6145 17.1996 20.7074 17.2925Z" fill="#343330"/>
</svg>
