<svg width="32" height="32" viewBox="0 0 32 32" fill="none" xmlns="http://www.w3.org/2000/svg">
<path d="M5.29257 9.70745C5.10493 9.51981 4.99951 9.26531 4.99951 8.99995C4.99951 8.73458 5.10493 8.48009 5.29257 8.29245C5.48021 8.10481 5.7347 7.99939 6.00007 7.99939C6.26543 7.99939 6.51993 8.1048 6.70757 8.29245L16.0001 17.5862L25.2926 8.29245C25.4802 8.1048 25.7347 7.99939 26.0001 7.99939C26.2654 7.99939 26.5199 8.1048 26.7076 8.29245C26.8952 8.48009 27.0006 8.73458 27.0006 8.99995C27.0006 9.26531 26.8952 9.51981 26.7076 9.70745L16.7076 19.7074C16.6147 19.8004 16.5044 19.8742 16.383 19.9245C16.2616 19.9748 16.1315 20.0007 16.0001 20.0007C15.8687 20.0007 15.7385 19.9748 15.6171 19.9245C15.4957 19.8742 15.3854 19.8004 15.2926 19.7074L5.29257 9.70745ZM26.0001 22.9999H6.00007C5.73485 22.9999 5.4805 23.1053 5.29296 23.2928C5.10542 23.4804 5.00007 23.7347 5.00007 23.9999C5.00007 24.2652 5.10542 24.5195 5.29296 24.7071C5.4805 24.8946 5.73485 24.9999 6.00007 24.9999H26.0001C26.2653 24.9999 26.5196 24.8946 26.7072 24.7071C26.8947 24.5195 27.0001 24.2652 27.0001 23.9999C27.0001 23.7347 26.8947 23.4804 26.7072 23.2928C26.5196 23.1053 26.2653 22.9999 26.0001 22.9999Z" fill="#343330"/>
</svg>
