<svg width="32" height="32" viewBox="0 0 32 32" fill="none" xmlns="http://www.w3.org/2000/svg">
<path d="M28.7076 24.7076L24.7076 28.7076C24.5199 28.8952 24.2654 29.0006 24.0001 29.0006C23.7347 29.0006 23.4802 28.8952 23.2926 28.7076C23.1049 28.5199 22.9995 28.2654 22.9995 28.0001C22.9995 27.7347 23.1049 27.4802 23.2926 27.2926L25.5863 25.0001H10.0001C9.73485 25.0001 9.4805 24.8947 9.29296 24.7072C9.10542 24.5196 9.00007 24.2653 9.00007 24.0001V7.4138L6.70757 9.70755C6.51993 9.8952 6.26543 10.0006 6.00007 10.0006C5.7347 10.0006 5.48021 9.89519 5.29257 9.70755C5.10493 9.51991 4.99951 9.26542 4.99951 9.00005C4.99951 8.73469 5.10493 8.48019 5.29257 8.29255L9.29257 4.29255C9.38544 4.19958 9.49573 4.12582 9.61713 4.07549C9.73853 4.02517 9.86865 3.99927 10.0001 3.99927C10.1315 3.99927 10.2616 4.02517 10.383 4.07549C10.5044 4.12582 10.6147 4.19958 10.7076 4.29255L14.7076 8.29255C14.8952 8.48019 15.0006 8.73469 15.0006 9.00005C15.0006 9.26542 14.8952 9.51991 14.7076 9.70755C14.5199 9.8952 14.2654 10.0006 14.0001 10.0006C13.7347 10.0006 13.4802 9.8952 13.2926 9.70755L11.0001 7.4138V23.0001H25.5863L23.2926 20.7076C23.1049 20.5199 22.9995 20.2654 22.9995 20.0001C22.9995 19.7347 23.1049 19.4802 23.2926 19.2926C23.4802 19.1049 23.7347 18.9995 24.0001 18.9995C24.2654 18.9995 24.5199 19.1049 24.7076 19.2926L28.7076 23.2926C28.8005 23.3854 28.8743 23.4957 28.9246 23.6171C28.975 23.7385 29.0009 23.8686 29.0009 24.0001C29.0009 24.1315 28.975 24.2616 28.9246 24.383C28.8743 24.5044 28.8005 24.6147 28.7076 24.7076Z" fill="#343330"/>
</svg>
